<svg xmlns="http://www.w3.org/2000/svg" viewBox="0 0 990 186" role="img" aria-label="ECG rhythm strip" data-kind="rhythm_strip" data-rhythm="afib" data-duration-sec="6" data-px-per-sec="150" data-px-per-mv="60"><line x1="0" y1="0" x2="0" y2="186" stroke="#e9a0ad" stroke-width="1"/><line x1="6" y1="0" x2="6" y2="186" stroke="#f7cbd3" stroke-width="0.5"/><line x1="12" y1="0" x2="12" y2="186" stroke="#f7cbd3" stroke-width="0.5"/><line x1="18" y1="0" x2="18" y2="186" stroke="#f7cbd3" stroke-width="0.5"/><line x1="24" y1="0" x2="24" y2="186" stroke="#f7cbd3" stroke-width="0.5"/><line x1="30" y1="0" x2="30" y2="186" stroke="#e9a0ad" stroke-width="1"/><line x1="36" y1="0" x2="36" y2="186" stroke="#f7cbd3" stroke-width="0.5"/><line x1="42" y1="0" x2="42" y2="186" stroke="#f7cbd3" stroke-width="0.5"/><line x1="48" y1="0" x2="48" y2="186" stroke="#f7cbd3" stroke-width="0.5"/><line x1="54" y1="0" x2="54" y2="186" stroke="#f7cbd3" stroke-width="0.5"/><line x1="60" y1="0" x2="60" y2="186" stroke="#e9a0ad" stroke-width="1"/><line x1="66" y1="0" x2="66" y2="186" stroke="#f7cbd3" stroke-width="0.5"/><line x1="72" y1="0" x2="72" y2="186" stroke="#f7cbd3" stroke-width="0.5"/><line x1="78" y1="0" x2="78" y2="186" stroke="#f7cbd3" stroke-width="0.5"/><line x1="84" y1="0" x2="84" y2="186" stroke="#f7cbd3" stroke-width="0.5"/><line x1="90" y1="0" x2="90" y2="186" stroke="#e9a0ad" stroke-width="1"/><line x1="96" y1="0" x2="96" y2="186" stroke="#f7cbd3" stroke-width="0.5"/><line x1="102" y1="0" x2="102" y2="186" stroke="#f7cbd3" stroke-width="0.5"/><line x1="108" y1="0" x2="108" y2="186" stroke="#f7cbd3" stroke-width="0.5"/><line x1="114" y1="0" x2="114" y2="186" stroke="#f7cbd3" stroke-width="0.5"/><line x1="120" y1="0" x2="120" y2="186" stroke="#e9a0ad" stroke-width="1"/><line x1="126" y1="0" x2="126" y2="186" stroke="#f7cbd3" stroke-width="0.5"/><line x1="132" y1="0" x2="132" y2="186" stroke="#f7cbd3" stroke-width="0.5"/><line x1="138" y1="0" x2="138" y2="186" stroke="#f7cbd3" stroke-width="0.5"/><line x1="144" y1="0" x2="144" y2="186" stroke="#f7cbd3" stroke-width="0.5"/><line x1="150" y1="0" x2="150" y2="186" stroke="#e9a0ad" stroke-width="1"/><line x1="156" y1="0" x2="156" y2="186" stroke="#f7cbd3" stroke-width="0.5"/><line x1="162" y1="0" x2="162" y2="186" stroke="#f7cbd3" stroke-width="0.5"/><line x1="168" y1="0" x2="168" y2="186" stroke="#f7cbd3" stroke-width="0.5"/><line x1="174" y1="0" x2="174" y2="186" stroke="#f7cbd3" stroke-width="0.5"/><line x1="180" y1="0" x2="180" y2="186" stroke="#e9a0ad" stroke-width="1"/><line x1="186" y1="0" x2="186" y2="186" stroke="#f7cbd3" stroke-width="0.5"/><line x1="192" y1="0" x2="192" y2="186" stroke="#f7cbd3" stroke-width="0.5"/><line x1="198" y1="0" x2="198" y2="186" stroke="#f7cbd3" stroke-width="0.5"/><line x1="204" y1="0" x2="204" y2="186" stroke="#f7cbd3" stroke-width="0.5"/><line x1="210" y1="0" x2="210" y2="186" stroke="#e9a0ad" stroke-width="1"/><line x1="216" y1="0" x2="216" y2="186" stroke="#f7cbd3" stroke-width="0.5"/><line x1="222" y1="0" x2="222" y2="186" stroke="#f7cbd3" stroke-width="0.5"/><line x1="228" y1="0" x2="228" y2="186" stroke="#f7cbd3" stroke-width="0.5"/><line x1="234" y1="0" x2="234" y2="186" stroke="#f7cbd3" stroke-width="0.5"/><line x1="240" y1="0" x2="240" y2="186" stroke="#e9a0ad" stroke-width="1"/><line x1="246" y1="0" x2="246" y2="186" stroke="#f7cbd3" stroke-width="0.5"/><line x1="252" y1="0" x2="252" y2="186" stroke="#f7cbd3" stroke-width="0.5"/><line x1="258" y1="0" x2="258" y2="186" stroke="#f7cbd3" stroke-width="0.5"/><line x1="264" y1="0" x2="264" y2="186" stroke="#f7cbd3" stroke-width="0.5"/><line x1="270" y1="0" x2="270" y2="186" stroke="#e9a0ad" stroke-width="1"/><line x1="276" y1="0" x2="276" y2="186" stroke="#f7cbd3" stroke-width="0.5"/><line x1="282" y1="0" x2="282" y2="186" stroke="#f7cbd3" stroke-width="0.5"/><line x1="288" y1="0" x2="288" y2="186" stroke="#f7cbd3" stroke-width="0.5"/><line x1="294" y1="0" x2="294" y2="186" stroke="#f7cbd3" stroke-width="0.5"/><line x1="300" y1="0" x2="300" y2="186" stroke="#e9a0ad" stroke-width="1"/><line x1="306" y1="0" x2="306" y2="186" stroke="#f7cbd3" stroke-width="0.5"/><line x1="312" y1="0" x2="312" y2="186" stroke="#f7cbd3" stroke-width="0.5"/><line x1="318" y1="0" x2="318" y2="186" stroke="#f7cbd3" stroke-width="0.5"/><line x1="324" y1="0" x2="324" y2="186" stroke="#f7cbd3" stroke-width="0.5"/><line x1="330" y1="0" x2="330" y2="186" stroke="#e9a0ad" stroke-width="1"/><line x1="336" y1="0" x2="336" y2="186" stroke="#f7cbd3" stroke-width="0.5"/><line x1="342" y1="0" x2="342" y2="186" stroke="#f7cbd3" stroke-width="0.5"/><line x1="348" y1="0" x2="348" y2="186" stroke="#f7cbd3" stroke-width="0.5"/><line x1="354" y1="0" x2="354" y2="186" stroke="#f7cbd3" stroke-width="0.5"/><line x1="360" y1="0" x2="360" y2="186" stroke="#e9a0ad" stroke-width="1"/><line x1="366" y1="0" x2="366" y2="186" stroke="#f7cbd3" stroke-width="0.5"/><line x1="372" y1="0" x2="372" y2="186" stroke="#f7cbd3" stroke-width="0.5"/><line x1="378" y1="0" x2="378" y2="186" stroke="#f7cbd3" stroke-width="0.5"/><line x1="384" y1="0" x2="384" y2="186" stroke="#f7cbd3" stroke-width="0.5"/><line x1="390" y1="0" x2="390" y2="186" stroke="#e9a0ad" stroke-width="1"/><line x1="396" y1="0" x2="396" y2="186" stroke="#f7cbd3" stroke-width="0.5"/><line x1="402" y1="0" x2="402" y2="186" stroke="#f7cbd3" stroke-width="0.5"/><line x1="408" y1="0" x2="408" y2="186" stroke="#f7cbd3" stroke-width="0.5"/><line x1="414" y1="0" x2="414" y2="186" stroke="#f7cbd3" stroke-width="0.5"/><line x1="420" y1="0" x2="420" y2="186" stroke="#e9a0ad" stroke-width="1"/><line x1="426" y1="0" x2="426" y2="186" stroke="#f7cbd3" stroke-width="0.5"/><line x1="432" y1="0" x2="432" y2="186" stroke="#f7cbd3" stroke-width="0.5"/><line x1="438" y1="0" x2="438" y2="186" stroke="#f7cbd3" stroke-width="0.5"/><line x1="444" y1="0" x2="444" y2="186" stroke="#f7cbd3" stroke-width="0.5"/><line x1="450" y1="0" x2="450" y2="186" stroke="#e9a0ad" stroke-width="1"/><line x1="456" y1="0" x2="456" y2="186" stroke="#f7cbd3" stroke-width="0.5"/><line x1="462" y1="0" x2="462" y2="186" stroke="#f7cbd3" stroke-width="0.5"/><line x1="468" y1="0" x2="468" y2="186" stroke="#f7cbd3" stroke-width="0.5"/><line x1="474" y1="0" x2="474" y2="186" stroke="#f7cbd3" stroke-width="0.5"/><line x1="480" y1="0" x2="480" y2="186" stroke="#e9a0ad" stroke-width="1"/><line x1="486" y1="0" x2="486" y2="186" stroke="#f7cbd3" stroke-width="0.5"/><line x1="492" y1="0" x2="492" y2="186" stroke="#f7cbd3" stroke-width="0.5"/><line x1="498" y1="0" x2="498" y2="186" stroke="#f7cbd3" stroke-width="0.5"/><line x1="504" y1="0" x2="504" y2="186" stroke="#f7cbd3" stroke-width="0.5"/><line x1="510" y1="0" x2="510" y2="186" stroke="#e9a0ad" stroke-width="1"/><line x1="516" y1="0" x2="516" y2="186" stroke="#f7cbd3" stroke-width="0.5"/><line x1="522" y1="0" x2="522" y2="186" stroke="#f7cbd3" stroke-width="0.5"/><line x1="528" y1="0" x2="528" y2="186" stroke="#f7cbd3" stroke-width="0.5"/><line x1="534" y1="0" x2="534" y2="186" stroke="#f7cbd3" stroke-width="0.5"/><line x1="540" y1="0" x2="540" y2="186" stroke="#e9a0ad" stroke-width="1"/><line x1="546" y1="0" x2="546" y2="186" stroke="#f7cbd3" stroke-width="0.5"/><line x1="552" y1="0" x2="552" y2="186" stroke="#f7cbd3" stroke-width="0.5"/><line x1="558" y1="0" x2="558" y2="186" stroke="#f7cbd3" stroke-width="0.5"/><line x1="564" y1="0" x2="564" y2="186" stroke="#f7cbd3" stroke-width="0.5"/><line x1="570" y1="0" x2="570" y2="186" stroke="#e9a0ad" stroke-width="1"/><line x1="576" y1="0" x2="576" y2="186" stroke="#f7cbd3" stroke-width="0.5"/><line x1="582" y1="0" x2="582" y2="186" stroke="#f7cbd3" stroke-width="0.5"/><line x1="588" y1="0" x2="588" y2="186" stroke="#f7cbd3" stroke-width="0.5"/><line x1="594" y1="0" x2="594" y2="186" stroke="#f7cbd3" stroke-width="0.5"/><line x1="600" y1="0" x2="600" y2="186" stroke="#e9a0ad" stroke-width="1"/><line x1="606" y1="0" x2="606" y2="186" stroke="#f7cbd3" stroke-width="0.5"/><line x1="612" y1="0" x2="612" y2="186" stroke="#f7cbd3" stroke-width="0.5"/><line x1="618" y1="0" x2="618" y2="186" stroke="#f7cbd3" stroke-width="0.5"/><line x1="624" y1="0" x2="624" y2="186" stroke="#f7cbd3" stroke-width="0.5"/><line x1="630" y1="0" x2="630" y2="186" stroke="#e9a0ad" stroke-width="1"/><line x1="636" y1="0" x2="636" y2="186" stroke="#f7cbd3" stroke-width="0.5"/><line x1="642" y1="0" x2="642" y2="186" stroke="#f7cbd3" stroke-width="0.5"/><line x1="648" y1="0" x2="648" y2="186" stroke="#f7cbd3" stroke-width="0.5"/><line x1="654" y1="0" x2="654" y2="186" stroke="#f7cbd3" stroke-width="0.5"/><line x1="660" y1="0" x2="660" y2="186" stroke="#e9a0ad" stroke-width="1"/><line x1="666" y1="0" x2="666" y2="186" stroke="#f7cbd3" stroke-width="0.5"/><line x1="672" y1="0" x2="672" y2="186" stroke="#f7cbd3" stroke-width="0.5"/><line x1="678" y1="0" x2="678" y2="186" stroke="#f7cbd3" stroke-width="0.5"/><line x1="684" y1="0" x2="684" y2="186" stroke="#f7cbd3" stroke-width="0.5"/><line x1="690" y1="0" x2="690" y2="186" stroke="#e9a0ad" stroke-width="1"/><line x1="696" y1="0" x2="696" y2="186" stroke="#f7cbd3" stroke-width="0.5"/><line x1="702" y1="0" x2="702" y2="186" stroke="#f7cbd3" stroke-width="0.5"/><line x1="708" y1="0" x2="708" y2="186" stroke="#f7cbd3" stroke-width="0.5"/><line x1="714" y1="0" x2="714" y2="186" stroke="#f7cbd3" stroke-width="0.5"/><line x1="720" y1="0" x2="720" y2="186" stroke="#e9a0ad" stroke-width="1"/><line x1="726" y1="0" x2="726" y2="186" stroke="#f7cbd3" stroke-width="0.5"/><line x1="732" y1="0" x2="732" y2="186" stroke="#f7cbd3" stroke-width="0.5"/><line x1="738" y1="0" x2="738" y2="186" stroke="#f7cbd3" stroke-width="0.5"/><line x1="744" y1="0" x2="744" y2="186" stroke="#f7cbd3" stroke-width="0.5"/><line x1="750" y1="0" x2="750" y2="186" stroke="#e9a0ad" stroke-width="1"/><line x1="756" y1="0" x2="756" y2="186" stroke="#f7cbd3" stroke-width="0.5"/><line x1="762" y1="0" x2="762" y2="186" stroke="#f7cbd3" stroke-width="0.5"/><line x1="768" y1="0" x2="768" y2="186" stroke="#f7cbd3" stroke-width="0.5"/><line x1="774" y1="0" x2="774" y2="186" stroke="#f7cbd3" stroke-width="0.5"/><line x1="780" y1="0" x2="780" y2="186" stroke="#e9a0ad" stroke-width="1"/><line x1="786" y1="0" x2="786" y2="186" stroke="#f7cbd3" stroke-width="0.5"/><line x1="792" y1="0" x2="792" y2="186" stroke="#f7cbd3" stroke-width="0.5"/><line x1="798" y1="0" x2="798" y2="186" stroke="#f7cbd3" stroke-width="0.5"/><line x1="804" y1="0" x2="804" y2="186" stroke="#f7cbd3" stroke-width="0.5"/><line x1="810" y1="0" x2="810" y2="186" stroke="#e9a0ad" stroke-width="1"/><line x1="816" y1="0" x2="816" y2="186" stroke="#f7cbd3" stroke-width="0.5"/><line x1="822" y1="0" x2="822" y2="186" stroke="#f7cbd3" stroke-width="0.5"/><line x1="828" y1="0" x2="828" y2="186" stroke="#f7cbd3" stroke-width="0.5"/><line x1="834" y1="0" x2="834" y2="186" stroke="#f7cbd3" stroke-width="0.5"/><line x1="840" y1="0" x2="840" y2="186" stroke="#e9a0ad" stroke-width="1"/><line x1="846" y1="0" x2="846" y2="186" stroke="#f7cbd3" stroke-width="0.5"/><line x1="852" y1="0" x2="852" y2="186" stroke="#f7cbd3" stroke-width="0.5"/><line x1="858" y1="0" x2="858" y2="186" stroke="#f7cbd3" stroke-width="0.5"/><line x1="864" y1="0" x2="864" y2="186" stroke="#f7cbd3" stroke-width="0.5"/><line x1="870" y1="0" x2="870" y2="186" stroke="#e9a0ad" stroke-width="1"/><line x1="876" y1="0" x2="876" y2="186" stroke="#f7cbd3" stroke-width="0.5"/><line x1="882" y1="0" x2="882" y2="186" stroke="#f7cbd3" stroke-width="0.5"/><line x1="888" y1="0" x2="888" y2="186" stroke="#f7cbd3" stroke-width="0.5"/><line x1="894" y1="0" x2="894" y2="186" stroke="#f7cbd3" stroke-width="0.5"/><line x1="900" y1="0" x2="900" y2="186" stroke="#e9a0ad" stroke-width="1"/><line x1="906" y1="0" x2="906" y2="186" stroke="#f7cbd3" stroke-width="0.5"/><line x1="912" y1="0" x2="912" y2="186" stroke="#f7cbd3" stroke-width="0.5"/><line x1="918" y1="0" x2="918" y2="186" stroke="#f7cbd3" stroke-width="0.5"/><line x1="924" y1="0" x2="924" y2="186" stroke="#f7cbd3" stroke-width="0.5"/><line x1="930" y1="0" x2="930" y2="186" stroke="#e9a0ad" stroke-width="1"/><line x1="936" y1="0" x2="936" y2="186" stroke="#f7cbd3" stroke-width="0.5"/><line x1="942" y1="0" x2="942" y2="186" stroke="#f7cbd3" stroke-width="0.5"/><line x1="948" y1="0" x2="948" y2="186" stroke="#f7cbd3" stroke-width="0.5"/><line x1="954" y1="0" x2="954" y2="186" stroke="#f7cbd3" stroke-width="0.5"/><line x1="960" y1="0" x2="960" y2="186" stroke="#e9a0ad" stroke-width="1"/><line x1="966" y1="0" x2="966" y2="186" stroke="#f7cbd3" stroke-width="0.5"/><line x1="972" y1="0" x2="972" y2="186" stroke="#f7cbd3" stroke-width="0.5"/><line x1="978" y1="0" x2="978" y2="186" stroke="#f7cbd3" stroke-width="0.5"/><line x1="984" y1="0" x2="984" y2="186" stroke="#f7cbd3" stroke-width="0.5"/><line x1="990" y1="0" x2="990" y2="186" stroke="#e9a0ad" stroke-width="1"/><line x1="0" y1="0" x2="990" y2="0" stroke="#e9a0ad" stroke-width="1"/><line x1="0" y1="6" x2="990" y2="6" stroke="#f7cbd3" stroke-width="0.5"/><line x1="0" y1="12" x2="990" y2="12" stroke="#f7cbd3" stroke-width="0.5"/><line x1="0" y1="18" x2="990" y2="18" stroke="#f7cbd3" stroke-width="0.5"/><line x1="0" y1="24" x2="990" y2="24" stroke="#f7cbd3" stroke-width="0.5"/><line x1="0" y1="30" x2="990" y2="30" stroke="#e9a0ad" stroke-width="1"/><line x1="0" y1="36" x2="990" y2="36" stroke="#f7cbd3" stroke-width="0.5"/><line x1="0" y1="42" x2="990" y2="42" stroke="#f7cbd3" stroke-width="0.5"/><line x1="0" y1="48" x2="990" y2="48" stroke="#f7cbd3" stroke-width="0.5"/><line x1="0" y1="54" x2="990" y2="54" stroke="#f7cbd3" stroke-width="0.5"/><line x1="0" y1="60" x2="990" y2="60" stroke="#e9a0ad" stroke-width="1"/><line x1="0" y1="66" x2="990" y2="66" stroke="#f7cbd3" stroke-width="0.5"/><line x1="0" y1="72" x2="990" y2="72" stroke="#f7cbd3" stroke-width="0.5"/><line x1="0" y1="78" x2="990" y2="78" stroke="#f7cbd3" stroke-width="0.5"/><line x1="0" y1="84" x2="990" y2="84" stroke="#f7cbd3" stroke-width="0.5"/><line x1="0" y1="90" x2="990" y2="90" stroke="#e9a0ad" stroke-width="1"/><line x1="0" y1="96" x2="990" y2="96" stroke="#f7cbd3" stroke-width="0.5"/><line x1="0" y1="102" x2="990" y2="102" stroke="#f7cbd3" stroke-width="0.5"/><line x1="0" y1="108" x2="990" y2="108" stroke="#f7cbd3" stroke-width="0.5"/><line x1="0" y1="114" x2="990" y2="114" stroke="#f7cbd3" stroke-width="0.5"/><line x1="0" y1="120" x2="990" y2="120" stroke="#e9a0ad" stroke-width="1"/><line x1="0" y1="126" x2="990" y2="126" stroke="#f7cbd3" stroke-width="0.5"/><line x1="0" y1="132" x2="990" y2="132" stroke="#f7cbd3" stroke-width="0.5"/><line x1="0" y1="138" x2="990" y2="138" stroke="#f7cbd3" stroke-width="0.5"/><line x1="0" y1="144" x2="990" y2="144" stroke="#f7cbd3" stroke-width="0.5"/><line x1="0" y1="150" x2="990" y2="150" stroke="#e9a0ad" stroke-width="1"/><line x1="0" y1="156" x2="990" y2="156" stroke="#f7cbd3" stroke-width="0.5"/><line x1="0" y1="162" x2="990" y2="162" stroke="#f7cbd3" stroke-width="0.5"/><line x1="0" y1="168" x2="990" y2="168" stroke="#f7cbd3" stroke-width="0.5"/><line x1="0" y1="174" x2="990" y2="174" stroke="#f7cbd3" stroke-width="0.5"/><line x1="0" y1="180" x2="990" y2="180" stroke="#e9a0ad" stroke-width="1"/><line x1="0" y1="186" x2="990" y2="186" stroke="#f7cbd3" stroke-width="0.5"/><path d="M 18 93 h 6 v -60 h 30 v 60 h 6" fill="none" stroke="#263238" stroke-width="2" stroke-linecap="round" stroke-linejoin="round" data-calibration-mv="1" data-calibration-sec="0.2" data-calibration-top-y="33"/><polyline points="72,91.92 72.6,91.16 73.2,90.53 73.8,90.06 74.4,89.77 75,89.67 75.6,89.74 76.2,89.97 76.8,90.32 77.4,90.77 78,91.28 78.6,91.8 79.2,92.31 79.8,92.77 80.4,93.17 81,93.48 81.6,93.71 82.2,93.87 82.8,93.96 83.4,93.99 84,94.01 84.6,94.01 85.2,94.03 85.8,94.07 86.4,94.15 87,94.27 87.6,94.41 88.2,94.56 88.8,94.71 89.4,94.82 90,94.88 90.6,94.86 91.2,94.73 91.8,94.49 92.4,94.13 93,93.66 93.6,93.09 94.2,92.44 94.8,91.76 95.4,91.07 96,90.44 96.6,89.89 97.2,89.48 97.8,89.23 98.4,89.17 99,89.32 99.6,89.68 100.2,90.23 100.8,90.94 101.4,91.78 102,92.69 102.6,93.64 103.2,94.55 103.8,95.39 104.4,96.09 105,96.61 105.6,96.94 106.2,97.06 106.8,96.95 107.4,96.65 108,96.16 108.6,95.53 109.2,94.81 109.8,94.03 110.4,93.26 111,92.52 111.6,91.87 112.2,91.34 112.8,90.93 113.4,90.67 114,90.56 114.6,90.57 115.2,90.69 115.8,90.9 116.4,91.16 117,91.44 117.6,91.72 118.2,91.98 118.8,92.2 119.4,92.37 120,92.5 120.6,92.59 121.2,92.66 121.8,92.72 122.4,92.8 123,92.91 123.6,93.07 124.2,93.3 124.8,93.58 125.4,93.92 126,94.3 126.6,94.69 127.2,95.08 127.8,95.42 128.4,95.69 129,95.85 129.6,95.87 130.2,95.74 130.8,95.45 131.4,94.99 132,94.39 132.6,93.67 133.2,92.87 133.8,92.02 134.4,91.19 135,90.41 135.6,89.75 136.2,89.24 136.8,88.92 137.4,88.81 138,88.92 138.6,89.25 139.2,89.78 139.8,90.48 140.4,91.3 141,92.2 141.6,93.12 142.2,94.01 142.8,94.81 143.4,95.49 144,96 144.6,96.33 145.2,96.46 145.8,96.4 146.4,96.16 147,95.77 147.6,95.27 148.2,94.7 148.8,94.08 149.4,93.48 150,92.91 150.6,92.41 151.2,92 151.8,91.68 152.4,91.45 153,91.32 153.6,91.25 154.2,91.24 154.8,91.25 155.4,91.26 156,91.27 156.6,91.24 157.2,91.18 157.8,91.08 158.4,90.96 159,90.82 159.6,90.69 160.2,90.59 160.8,90.54 161.4,90.57 162,90.68 162.6,90.9 163.2,91.21 163.8,91.61 164.4,92.08 165,92.59 165.6,93.1 166.2,93.58 166.8,93.98 167.4,94.26 168,94.38 168.6,94.33 169.2,94.08 169.8,93.65 170.4,93.1 171,92.54 171.6,92.17 172.2,92.24 172.8,92.92 173.4,94.1 174,95.23 174.6,95.06 175.2,91.44 175.8,81.62 176.4,64.79 177,46.13 177.6,36.24 178.2,42.43 178.8,60.95 179.4,81.04 180,94.87 180.6,101.11 181.2,101.89 181.8,99.64 182.4,96.25 183,92.98 183.6,90.46 184.2,88.78 184.8,87.69 185.4,86.91 186,86.24 186.6,85.58 187.2,84.9 187.8,84.21 188.4,83.55 189,82.92 189.6,82.35 190.2,81.83 190.8,81.37 191.4,80.96 192,80.58 192.6,80.22 193.2,79.85 193.8,79.46 194.4,79.03 195,78.57 195.6,78.06 196.2,77.51 196.8,76.96 197.4,76.4 198,75.89 198.6,75.44 199.2,75.08 199.8,74.85 200.4,74.77 201,74.85 201.6,75.09 202.2,75.48 202.8,76.01 203.4,76.64 204,77.33 204.6,78.05 205.2,78.73 205.8,79.34 206.4,79.82 207,80.14 207.6,80.27 208.2,80.2 208.8,79.93 209.4,79.47 210,78.85 210.6,78.1 211.2,77.28 211.8,76.44 212.4,75.64 213,74.92 213.6,74.34 214.2,73.92 214.8,73.71 215.4,73.71 216,73.93 216.6,74.34 217.2,74.94 217.8,75.67 218.4,76.51 219,77.41 219.6,78.31 220.2,79.2 220.8,80.02 221.4,80.75 222,81.37 222.6,81.89 223.2,82.3 223.8,82.62 224.4,82.86 225,83.04 225.6,83.2 226.2,83.35 226.8,83.51 227.4,83.7 228,83.91 228.6,84.16 229.2,84.42 229.8,84.69 230.4,84.94 231,85.15 231.6,85.3 232.2,85.37 232.8,85.35 233.4,85.23 234,85.02 234.6,84.72 235.2,84.36 235.8,83.97 236.4,83.59 237,83.24 237.6,82.98 238.2,82.84 238.8,82.84 239.4,83 240,83.35 240.6,83.89 241.2,84.63 241.8,85.64 242.4,87.01 243,88.91 243.6,91.43 244.2,94.45 244.8,97.45 245.4,99.29 246,97.98 246.6,90.75 247.2,75.85 247.8,56.61 248.4,42.84 249,43.79 249.6,58.79 250.2,78.02 250.8,92.27 251.4,98.76 252,99.2 252.6,96.21 253.2,91.89 253.8,87.71 254.4,84.5 255,82.47 255.6,81.41 256.2,80.99 256.8,80.92 257.4,81.02 258,81.18 258.6,81.34 259.2,81.47 259.8,81.54 260.4,81.54 261,81.47 261.6,81.33 262.2,81.14 262.8,80.92 263.4,80.68 264,80.45 264.6,80.24 265.2,80.07 265.8,79.94 266.4,79.86 267,79.81 267.6,79.78 268.2,79.76 268.8,79.7 269.4,79.59 270,79.4 270.6,79.1 271.2,78.68 271.8,78.14 272.4,77.48 273,76.71 273.6,75.86 274.2,74.96 274.8,74.06 275.4,73.2 276,72.43 276.6,71.79 277.2,71.33 277.8,71.06 278.4,71.02 279,71.2 279.6,71.6 280.2,72.19 280.8,72.93 281.4,73.79 282,74.7 282.6,75.62 283.2,76.49 283.8,77.25 284.4,77.87 285,78.32 285.6,78.62 286.2,78.8 286.8,79.01 287.4,79.44 288,80.32 288.6,81.73 289.2,83.42 289.8,84.6 290.4,83.72 291,78.29 291.6,65.83 292.2,47.28 292.8,30.32 293.4,25.66 294,37 294.6,57.03 295.2,75.06 295.8,85.7 296.4,89.37 297,88.54 297.6,85.51 298.2,81.96 298.8,78.93 299.4,76.87 300,75.69 300.6,75.14 301.2,74.94 301.8,74.92 302.4,75 303,75.15 303.6,75.38 304.2,75.68 304.8,76.04 305.4,76.45 306,76.88 306.6,77.31 307.2,77.7 307.8,78.01 308.4,78.22 309,78.28 309.6,78.18 310.2,77.9 310.8,77.45 311.4,76.84 312,76.09 312.6,75.23 313.2,74.31 313.8,73.39 314.4,72.51 315,71.73 315.6,71.1 316.2,70.65 316.8,70.41 317.4,70.4 318,70.62 318.6,71.06 319.2,71.69 319.8,72.47 320.4,73.36 321,74.3 321.6,75.23 322.2,76.12 322.8,76.91 323.4,77.57 324,78.07 324.6,78.39 325.2,78.55 325.8,78.54 326.4,78.39 327,78.14 327.6,77.82 328.2,77.46 328.8,77.1 329.4,76.78 330,76.52 330.6,76.35 331.2,76.26 331.8,76.26 332.4,76.35 333,76.5 333.6,76.69 334.2,76.92 334.8,77.14 335.4,77.35 336,77.54 336.6,77.69 337.2,77.81 337.8,77.9 338.4,77.99 339,78.09 339.6,78.23 340.2,78.44 340.8,78.73 341.4,79.12 342,79.62 342.6,80.24 343.2,80.96 343.8,81.77 344.4,82.63 345,83.51 345.6,84.36 346.2,85.14 346.8,85.82 347.4,86.36 348,86.78 348.6,87.15 349.2,87.61 349.8,88.37 350.4,89.57 351,91.15 351.6,92.58 352.2,92.7 352.8,89.48 353.4,80.17 354,63.6 354.6,44.21 355.2,32.36 355.8,36.29 356.4,53.5 357,73.55 357.6,87.98 358.2,94.86 358.8,96.14 359.4,94.31 360,91.3 360.6,88.43 361.2,86.35 361.8,85.18 362.4,84.66 363,84.47 363.6,84.36 364.2,84.19 364.8,83.93 365.4,83.57 366,83.13 366.6,82.64 367.2,82.14 367.8,81.64 368.4,81.17 369,80.74 369.6,80.35 370.2,80.01 370.8,79.7 371.4,79.41 372,79.12 372.6,78.81 373.2,78.47 373.8,78.08 374.4,77.63 375,77.13 375.6,76.58 376.2,76.01 376.8,75.44 377.4,74.91 378,74.43 378.6,74.05 379.2,73.8 379.8,73.71 380.4,73.79 381,74.04 381.6,74.46 382.2,75.04 382.8,75.74 383.4,76.52 384,77.34 384.6,78.15 385.2,78.9 385.8,79.54 386.4,80.02 387,80.32 387.6,80.42 388.2,80.31 388.8,80.01 389.4,79.52 390,78.9 390.6,78.18 391.2,77.41 391.8,76.65 392.4,75.96 393,75.38 393.6,74.95 394.2,74.7 394.8,74.66 395.4,74.82 396,75.17 396.6,75.7 397.2,76.38 397.8,77.17 398.4,78.02 399,78.9 399.6,79.77 400.2,80.59 400.8,81.34 401.4,82 402,82.57 402.6,83.05 403.2,83.44 403.8,83.77 404.4,84.05 405,84.31 405.6,84.57 406.2,84.84 406.8,85.14 407.4,85.47 408,85.83 408.6,86.2 409.2,86.58 409.8,86.93 410.4,87.23 411,87.47 411.6,87.62 412.2,87.66 412.8,87.59 413.4,87.42 414,87.14 414.6,86.8 415.2,86.42 415.8,86.03 416.4,85.67 417,85.4 417.6,85.24 418.2,85.24 418.8,85.4 419.4,85.76 420,86.3 420.6,87.02 421.2,87.89 421.8,88.87 422.4,89.91 423,90.97 423.6,91.98 424.2,92.9 424.8,93.67 425.4,94.26 426,94.63 426.6,94.78 427.2,94.69 427.8,94.39 428.4,93.9 429,93.26 429.6,92.51 430.2,91.7 430.8,90.88 431.4,90.1 432,89.4 432.6,88.82 433.2,88.38 433.8,88.08 434.4,87.94 435,87.92 435.6,88.03 436.2,88.21 436.8,88.46 437.4,88.73 438,88.99 438.6,89.23 439.2,89.46 439.8,89.71 440.4,90.1 441,90.82 441.6,92.07 442.2,93.93 442.8,96.17 443.4,98.03 444,98.01 444.6,93.67 445.2,82.41 445.8,64.64 446.4,47.39 447,41.47 447.6,51.59 448.2,71.23 448.8,89.57 449.4,100.58 450,104.28 450.6,103.11 451.2,99.41 451.8,94.95 452.4,90.85 453,87.61 453.6,85.24 454.2,83.5 454.8,82.14 455.4,81.01 456,80.05 456.6,79.27 457.2,78.67 457.8,78.29 458.4,78.12 459,78.17 459.6,78.42 460.2,78.83 460.8,79.37 461.4,79.98 462,80.61 462.6,81.21 463.2,81.72 463.8,82.11 464.4,82.33 465,82.36 465.6,82.2 466.2,81.84 466.8,81.31 467.4,80.62 468,79.83 468.6,78.97 469.2,78.08 469.8,77.21 470.4,76.4 471,75.67 471.6,75.06 472.2,74.57 472.8,74.2 473.4,73.95 474,73.8 474.6,73.73 475.2,73.72 475.8,73.75 476.4,73.78 477,73.8 477.6,73.81 478.2,73.79 478.8,73.75 479.4,73.71 480,73.67 480.6,73.65 481.2,73.69 481.8,73.79 482.4,73.98 483,74.26 483.6,74.65 484.2,75.13 484.8,75.74 485.4,76.52 486,77.57 486.6,79.06 487.2,81.1 487.8,83.64 488.4,86.24 489,87.87 489.6,86.67 490.2,79.95 490.8,65.65 491.4,46.26 492,30.95 492.6,29.68 493.2,43.34 493.8,62.8 494.4,78.25 495,86.08 495.6,87.64 496.2,85.54 496.8,81.96 497.4,78.44 498,75.86 498.6,74.49 499.2,74.14 499.8,74.45 500.4,75.11 501,75.9 501.6,76.69 502.2,77.41 502.8,78 503.4,78.43 504,78.7 504.6,78.78 505.2,78.7 505.8,78.48 506.4,78.13 507,77.69 507.6,77.2 508.2,76.69 508.8,76.2 509.4,75.75 510,75.36 510.6,75.04 511.2,74.78 511.8,74.6 512.4,74.46 513,74.35 513.6,74.26 514.2,74.17 514.8,74.05 515.4,73.9 516,73.71 516.6,73.5 517.2,73.27 517.8,73.03 518.4,72.83 519,72.67 519.6,72.6 520.2,72.64 520.8,72.8 521.4,73.11 522,73.56 522.6,74.15 523.2,74.86 523.8,75.66 524.4,76.52 525,77.39 525.6,78.22 526.2,78.97 526.8,79.59 527.4,80.06 528,80.33 528.6,80.41 529.2,80.28 529.8,79.96 530.4,79.48 531,78.87 531.6,78.19 532.2,77.48 532.8,76.8 533.4,76.21 534,75.75 534.6,75.47 535.2,75.38 535.8,75.5 536.4,75.84 537,76.38 537.6,77.09 538.2,77.94 538.8,78.89 539.4,79.89 540,80.89 540.6,81.85 541.2,82.73 541.8,83.5 542.4,84.15 543,84.66 543.6,85.05 544.2,85.31 544.8,85.47 545.4,85.55 546,85.59 546.6,85.6 547.2,85.6 547.8,85.63 548.4,85.67 549,85.75 549.6,85.85 550.2,85.96 550.8,86.06 551.4,86.14 552,86.16 552.6,86.13 553.2,86.04 553.8,85.92 554.4,85.84 555,85.98 555.6,86.54 556.2,87.7 556.8,89.44 557.4,91.31 558,92.25 558.6,90.34 559.2,82.85 559.8,68.08 560.4,49.42 561,36.63 561.6,38.92 562.2,55.49 562.8,76.41 563.4,92.4 564,100.59 564.6,102.63 565.2,101.01 565.8,97.78 566.4,94.34 567,91.49 567.6,89.43 568.2,87.96 568.8,86.8 569.4,85.72 570,84.62 570.6,83.47 571.2,82.31 571.8,81.17 572.4,80.1 573,79.16 573.6,78.36 574.2,77.74 574.8,77.31 575.4,77.05 576,76.96 576.6,77.01 577.2,77.17 577.8,77.4 578.4,77.67 579,77.93 579.6,78.17 580.2,78.35 580.8,78.46 581.4,78.5 582,78.47 582.6,78.37 583.2,78.23 583.8,78.06 584.4,77.9 585,77.75 585.6,77.63 586.2,77.56 586.8,77.54 587.4,77.56 588,77.61 588.6,77.68 589.2,77.73 589.8,77.75 590.4,77.71 591,77.59 591.6,77.37 592.2,77.04 592.8,76.61 593.4,76.09 594,75.5 594.6,74.86 595.2,74.23 595.8,73.64 596.4,73.14 597,72.76 597.6,72.55 598.2,72.54 598.8,72.73 599.4,73.14 600,73.76 600.6,74.55 601.2,75.49 601.8,76.54 602.4,77.63 603,78.71 603.6,79.74 604.2,80.64 604.8,81.39 605.4,81.94 606,82.29 606.6,82.42 607.2,82.35 607.8,82.15 608.4,81.93 609,81.86 609.6,82.2 610.2,83.14 610.8,84.7 611.4,86.44 612,87.33 612.6,85.49 613.2,78.17 613.8,63.56 614.4,44.74 615,31.3 615.6,32.67 616.2,48.5 616.8,69.07 617.4,84.91 618,92.96 618.6,94.76 619.2,92.89 619.8,89.44 620.4,85.89 621,83.08 621.6,81.28 622.2,80.31 622.8,79.88 623.4,79.77 624,79.81 624.6,79.95 625.2,80.15 625.8,80.39 626.4,80.65 627,80.91 627.6,81.13 628.2,81.27 628.8,81.32 629.4,81.24 630,81 630.6,80.6 631.2,80.04 631.8,79.33 632.4,78.48 633,77.54 633.6,76.54 634.2,75.55 634.8,74.59 635.4,73.74 636,73.03 636.6,72.51 637.2,72.2 637.8,72.12 638.4,72.26 639,72.62 639.6,73.17 640.2,73.87 640.8,74.67 641.4,75.53 642,76.37 642.6,77.17 643.2,77.85 643.8,78.4 644.4,78.78 645,78.98 645.6,78.99 646.2,78.84 646.8,78.54 647.4,78.12 648,77.63 648.6,77.1 649.2,76.57 649.8,76.08 650.4,75.66 651,75.34 651.6,75.11 652.2,75 652.8,74.98 653.4,75.05 654,75.19 654.6,75.36 655.2,75.56 655.8,75.76 656.4,75.93 657,76.08 657.6,76.2 658.2,76.29 658.8,76.37 659.4,76.45 660,76.56 660.6,76.74 661.2,77.04 661.8,77.55 662.4,78.45 663,79.92 663.6,82.11 664.2,84.97 664.8,87.99 665.4,90.08 666,89.28 666.6,82.79 667.2,68.76 667.8,50.28 668.4,36.95 669,38.16 669.6,53.55 670.2,73.41 670.8,88.33 671.4,95.32 672,96.01 672.6,93.02 673.2,88.51 673.8,83.99 674.4,80.35 675,77.87 675.6,76.41 676.2,75.67 676.8,75.42 677.4,75.48 678,75.78 678.6,76.26 679.2,76.85 679.8,77.53 680.4,78.23 681,78.91 681.6,79.52 682.2,80.02 682.8,80.39 683.4,80.6 684,80.65 684.6,80.55 685.2,80.31 685.8,79.95 686.4,79.51 687,79.02 687.6,78.51 688.2,78.01 688.8,77.55 689.4,77.14 690,76.79 690.6,76.51 691.2,76.28 691.8,76.09 692.4,75.93 693,75.78 693.6,75.62 694.2,75.43 694.8,75.2 695.4,74.93 696,74.64 696.6,74.32 697.2,74 697.8,73.72 698.4,73.49 699,73.35 699.6,73.33 700.2,73.45 700.8,73.72 701.4,74.16 702,74.76 702.6,75.5 703.2,76.35 703.8,77.28 704.4,78.25 705,79.19 705.6,80.07 706.2,80.83 706.8,81.45 707.4,81.87 708,82.1 708.6,82.11 709.2,81.92 709.8,81.56 710.4,81.05 711,80.44 711.6,79.79 712.2,79.14 712.8,78.55 713.4,78.08 714,77.75 714.6,77.61 715.2,77.67 715.8,77.94 716.4,78.41 717,79.05 717.6,79.84 718.2,80.73 718.8,81.69 719.4,82.67 720,83.62 720.6,84.52 721.2,85.32 721.8,86.02 722.4,86.6 723,87.07 723.6,87.43 724.2,87.7 724.8,87.9 725.4,88.06 726,88.2 726.6,88.35 727.2,88.5 727.8,88.69 728.4,88.9 729,89.13 729.6,89.37 730.2,89.6 730.8,89.79 731.4,89.93 732,90 732.6,89.98 733.2,89.86 733.8,89.64 734.4,89.34 735,88.98 735.6,88.57 736.2,88.16 736.8,87.78 737.4,87.47 738,87.28 738.6,87.22 739.2,87.33 739.8,87.62 740.4,88.08 741,88.71 741.6,89.48 742.2,90.36 742.8,91.3 743.4,92.24 744,93.14 744.6,93.94 745.2,94.59 745.8,95.05 746.4,95.3 747,95.32 747.6,95.11 748.2,94.68 748.8,94.06 749.4,93.29 750,92.41 750.6,91.47 751.2,90.54 751.8,89.65 752.4,88.84 753,88.17 753.6,87.65 754.2,87.29 754.8,87.12 755.4,87.16 756,87.49 756.6,88.22 757.2,89.53 757.8,91.51 758.4,94.03 759,96.51 759.6,97.73 760.2,95.58 760.8,87.29 761.4,71.56 762,52.69 762.6,40.96 763.2,44.74 763.8,61.71 764.4,81.5 765,95.58 765.6,101.99 766.2,102.68 766.8,100.18 767.4,96.46 768,92.88 768.6,90.14 769.2,88.35 769.8,87.26 770.4,86.54 771,85.93 771.6,85.28 772.2,84.53 772.8,83.67 773.4,82.71 774,81.68 774.6,80.62 775.2,79.58 775.8,78.6 776.4,77.74 777,77.02 777.6,76.5 778.2,76.18 778.8,76.08 779.4,76.2 780,76.51 780.6,76.99 781.2,77.6 781.8,78.28 782.4,78.99 783,79.66 783.6,80.25 784.2,80.71 784.8,81.01 785.4,81.11 786,81.02 786.6,80.73 787.2,80.26 787.8,79.65 788.4,78.93 789,78.14 789.6,77.32 790.2,76.54 790.8,75.82 791.4,75.2 792,74.71 792.6,74.36 793.2,74.15 793.8,74.09 794.4,74.14 795,74.3 795.6,74.53 796.2,74.81 796.8,75.11 797.4,75.41 798,75.7 798.6,75.96 799.2,76.19 799.8,76.41 800.4,76.62 801,76.84 801.6,77.09 802.2,77.4 802.8,77.77 803.4,78.22 804,78.75 804.6,79.36 805.2,80.04 805.8,80.75 806.4,81.48 807,82.19 807.6,82.84 808.2,83.39 808.8,83.82 809.4,84.09 810,84.19 810.6,84.11 811.2,83.86 811.8,83.46 812.4,82.94 813,82.34 813.6,81.7 814.2,81.08 814.8,80.53 815.4,80.1 816,79.83 816.6,79.75 817.2,79.88 817.8,80.22 818.4,80.77 819,81.5 819.6,82.38 820.2,83.36 820.8,84.38 821.4,85.41 822,86.38 822.6,87.25 823.2,88.02 823.8,88.7 824.4,89.4 825,90.29 825.6,91.58 826.2,93.33 826.8,95.33 827.4,96.8 828,96.26 828.6,91.28 829.2,79.28 829.8,60.85 830.4,43.19 831,37.11 831.6,47.13 832.2,66.56 832.8,84.61 833.4,95.41 834,99.08 834.6,98.08 835.2,94.74 835.8,90.77 836.4,87.28 837,84.73 837.6,83.09 838.2,82.08 838.8,81.44 839.4,81 840,80.67 840.6,80.43 841.2,80.3 841.8,80.28 842.4,80.38 843,80.59 843.6,80.9 844.2,81.28 844.8,81.7 845.4,82.12 846,82.49 846.6,82.78 847.2,82.94 847.8,82.94 848.4,82.75 849,82.36 849.6,81.77 850.2,81 850.8,80.08 851.4,79.03 852,77.91 852.6,76.78 853.2,75.69 853.8,74.69 854.4,73.84 855,73.17 855.6,72.72 856.2,72.49 856.8,72.49 857.4,72.72 858,73.13 858.6,73.7 859.2,74.39 859.8,75.14 860.4,75.9 861,76.64 861.6,77.32 862.2,77.89 862.8,78.34 863.4,78.67 864,78.87 864.6,78.95 865.2,78.94 865.8,78.86 866.4,78.75 867,78.62 867.6,78.5 868.2,78.42 868.8,78.4 869.4,78.43 870,78.52 870.6,78.65 871.2,78.82 871.8,79 872.4,79.18 873,79.33 873.6,79.43 874.2,79.49 874.8,79.49 875.4,79.44 876,79.35 876.6,79.25 877.2,79.16 877.8,79.12 878.4,79.16 879,79.31 879.6,79.59 880.2,80.02 880.8,80.62 881.4,81.38 882,82.28 882.6,83.3 883.2,84.4 883.8,85.53 884.4,86.66 885,87.71 885.6,88.65 886.2,89.43 886.8,90.02 887.4,90.38 888,90.52 888.6,90.43 889.2,90.13 889.8,89.65 890.4,89.05 891,88.35 891.6,87.63 892.2,86.92 892.8,86.3 893.4,85.79 894,85.43 894.6,85.24 895.2,85.25 895.8,85.43 896.4,85.77 897,86.25 897.6,86.84 898.2,87.49 898.8,88.16 899.4,88.81 900,89.41 900.6,89.93 901.2,90.35 901.8,90.67 902.4,90.87 903,90.98 903.6,91 904.2,90.95 904.8,90.87 905.4,90.76 906,90.67 906.6,90.6 907.2,90.62 907.8,90.8 908.4,91.29 909,92.27 909.6,93.88 910.2,96 910.8,98.1 911.4,99.04 912,96.79 912.6,88.57 913.2,72.82 913.8,53.28 914.4,39.97 915,41.8 915.6,57.42 916.2,76.74 916.8,90.83 917.4,97.28 918,97.91 918.6,95.3 919.2,91.52 919.8,87.99 920.4,85.47 921,84.14 921.6,83.74 922.2,83.93 922.8,84.4 923.4,84.97 924,85.5 924.6,85.91 925.2,86.17 925.8,86.23 926.4,86.07 927,85.69 927.6,85.11 928.2,84.33 928.8,83.4 929.4,82.36 930,81.25 930.6,80.14 931.2,79.07 931.8,78.08 932.4,77.21 933,76.49 933.6,75.94 934.2,75.55 934.8,75.32 935.4,75.24 936,75.27 936.6,75.39 937.2,75.56 937.8,75.76 938.4,75.95 939,76.12 939.6,76.26 940.2,76.35 940.8,76.4 941.4,76.43 942,76.44 942.6,76.45 943.2,76.49 943.8,76.57 944.4,76.71 945,76.92 945.6,77.19 946.2,77.51 946.8,77.88 947.4,78.27 948,78.65 948.6,78.98 949.2,79.25 949.8,79.42 950.4,79.47 951,79.38 951.6,79.16 952.2,78.81 952.8,78.36 953.4,77.82 954,77.25 954.6,76.69 955.2,76.18 955.8,75.77 956.4,75.51 957,75.44 957.6,75.58 958.2,75.94 958.8,76.53 959.4,77.32 960,78.3 960.6,79.41 961.2,80.62 961.8,81.87 962.4,83.1 963,84.26 963.6,85.3 964.2,86.18 964.8,86.87 965.4,87.36 966,87.64 966.6,87.73 967.2,87.65 967.8,87.44 968.4,87.12 969,86.76 969.6,86.38 970.2,86.03 970.8,85.75 971.4,85.55 972,85.45" fill="none" stroke="#1f2933" stroke-width="2.2" stroke-linecap="round" stroke-linejoin="round"/></svg>