<svg xmlns="http://www.w3.org/2000/svg" viewBox="0 0 990 186" role="img" aria-label="ECG rhythm strip" data-kind="rhythm_strip" data-rhythm="sinus" data-duration-sec="6" data-px-per-sec="150" data-px-per-mv="60"><line x1="0" y1="0" x2="0" y2="186" stroke="#e9a0ad" stroke-width="1"/><line x1="6" y1="0" x2="6" y2="186" stroke="#f7cbd3" stroke-width="0.5"/><line x1="12" y1="0" x2="12" y2="186" stroke="#f7cbd3" stroke-width="0.5"/><line x1="18" y1="0" x2="18" y2="186" stroke="#f7cbd3" stroke-width="0.5"/><line x1="24" y1="0" x2="24" y2="186" stroke="#f7cbd3" stroke-width="0.5"/><line x1="30" y1="0" x2="30" y2="186" stroke="#e9a0ad" stroke-width="1"/><line x1="36" y1="0" x2="36" y2="186" stroke="#f7cbd3" stroke-width="0.5"/><line x1="42" y1="0" x2="42" y2="186" stroke="#f7cbd3" stroke-width="0.5"/><line x1="48" y1="0" x2="48" y2="186" stroke="#f7cbd3" stroke-width="0.5"/><line x1="54" y1="0" x2="54" y2="186" stroke="#f7cbd3" stroke-width="0.5"/><line x1="60" y1="0" x2="60" y2="186" stroke="#e9a0ad" stroke-width="1"/><line x1="66" y1="0" x2="66" y2="186" stroke="#f7cbd3" stroke-width="0.5"/><line x1="72" y1="0" x2="72" y2="186" stroke="#f7cbd3" stroke-width="0.5"/><line x1="78" y1="0" x2="78" y2="186" stroke="#f7cbd3" stroke-width="0.5"/><line x1="84" y1="0" x2="84" y2="186" stroke="#f7cbd3" stroke-width="0.5"/><line x1="90" y1="0" x2="90" y2="186" stroke="#e9a0ad" stroke-width="1"/><line x1="96" y1="0" x2="96" y2="186" stroke="#f7cbd3" stroke-width="0.5"/><line x1="102" y1="0" x2="102" y2="186" stroke="#f7cbd3" stroke-width="0.5"/><line x1="108" y1="0" x2="108" y2="186" stroke="#f7cbd3" stroke-width="0.5"/><line x1="114" y1="0" x2="114" y2="186" stroke="#f7cbd3" stroke-width="0.5"/><line x1="120" y1="0" x2="120" y2="186" stroke="#e9a0ad" stroke-width="1"/><line x1="126" y1="0" x2="126" y2="186" stroke="#f7cbd3" stroke-width="0.5"/><line x1="132" y1="0" x2="132" y2="186" stroke="#f7cbd3" stroke-width="0.5"/><line x1="138" y1="0" x2="138" y2="186" stroke="#f7cbd3" stroke-width="0.5"/><line x1="144" y1="0" x2="144" y2="186" stroke="#f7cbd3" stroke-width="0.5"/><line x1="150" y1="0" x2="150" y2="186" stroke="#e9a0ad" stroke-width="1"/><line x1="156" y1="0" x2="156" y2="186" stroke="#f7cbd3" stroke-width="0.5"/><line x1="162" y1="0" x2="162" y2="186" stroke="#f7cbd3" stroke-width="0.5"/><line x1="168" y1="0" x2="168" y2="186" stroke="#f7cbd3" stroke-width="0.5"/><line x1="174" y1="0" x2="174" y2="186" stroke="#f7cbd3" stroke-width="0.5"/><line x1="180" y1="0" x2="180" y2="186" stroke="#e9a0ad" stroke-width="1"/><line x1="186" y1="0" x2="186" y2="186" stroke="#f7cbd3" stroke-width="0.5"/><line x1="192" y1="0" x2="192" y2="186" stroke="#f7cbd3" stroke-width="0.5"/><line x1="198" y1="0" x2="198" y2="186" stroke="#f7cbd3" stroke-width="0.5"/><line x1="204" y1="0" x2="204" y2="186" stroke="#f7cbd3" stroke-width="0.5"/><line x1="210" y1="0" x2="210" y2="186" stroke="#e9a0ad" stroke-width="1"/><line x1="216" y1="0" x2="216" y2="186" stroke="#f7cbd3" stroke-width="0.5"/><line x1="222" y1="0" x2="222" y2="186" stroke="#f7cbd3" stroke-width="0.5"/><line x1="228" y1="0" x2="228" y2="186" stroke="#f7cbd3" stroke-width="0.5"/><line x1="234" y1="0" x2="234" y2="186" stroke="#f7cbd3" stroke-width="0.5"/><line x1="240" y1="0" x2="240" y2="186" stroke="#e9a0ad" stroke-width="1"/><line x1="246" y1="0" x2="246" y2="186" stroke="#f7cbd3" stroke-width="0.5"/><line x1="252" y1="0" x2="252" y2="186" stroke="#f7cbd3" stroke-width="0.5"/><line x1="258" y1="0" x2="258" y2="186" stroke="#f7cbd3" stroke-width="0.5"/><line x1="264" y1="0" x2="264" y2="186" stroke="#f7cbd3" stroke-width="0.5"/><line x1="270" y1="0" x2="270" y2="186" stroke="#e9a0ad" stroke-width="1"/><line x1="276" y1="0" x2="276" y2="186" stroke="#f7cbd3" stroke-width="0.5"/><line x1="282" y1="0" x2="282" y2="186" stroke="#f7cbd3" stroke-width="0.5"/><line x1="288" y1="0" x2="288" y2="186" stroke="#f7cbd3" stroke-width="0.5"/><line x1="294" y1="0" x2="294" y2="186" stroke="#f7cbd3" stroke-width="0.5"/><line x1="300" y1="0" x2="300" y2="186" stroke="#e9a0ad" stroke-width="1"/><line x1="306" y1="0" x2="306" y2="186" stroke="#f7cbd3" stroke-width="0.5"/><line x1="312" y1="0" x2="312" y2="186" stroke="#f7cbd3" stroke-width="0.5"/><line x1="318" y1="0" x2="318" y2="186" stroke="#f7cbd3" stroke-width="0.5"/><line x1="324" y1="0" x2="324" y2="186" stroke="#f7cbd3" stroke-width="0.5"/><line x1="330" y1="0" x2="330" y2="186" stroke="#e9a0ad" stroke-width="1"/><line x1="336" y1="0" x2="336" y2="186" stroke="#f7cbd3" stroke-width="0.5"/><line x1="342" y1="0" x2="342" y2="186" stroke="#f7cbd3" stroke-width="0.5"/><line x1="348" y1="0" x2="348" y2="186" stroke="#f7cbd3" stroke-width="0.5"/><line x1="354" y1="0" x2="354" y2="186" stroke="#f7cbd3" stroke-width="0.5"/><line x1="360" y1="0" x2="360" y2="186" stroke="#e9a0ad" stroke-width="1"/><line x1="366" y1="0" x2="366" y2="186" stroke="#f7cbd3" stroke-width="0.5"/><line x1="372" y1="0" x2="372" y2="186" stroke="#f7cbd3" stroke-width="0.5"/><line x1="378" y1="0" x2="378" y2="186" stroke="#f7cbd3" stroke-width="0.5"/><line x1="384" y1="0" x2="384" y2="186" stroke="#f7cbd3" stroke-width="0.5"/><line x1="390" y1="0" x2="390" y2="186" stroke="#e9a0ad" stroke-width="1"/><line x1="396" y1="0" x2="396" y2="186" stroke="#f7cbd3" stroke-width="0.5"/><line x1="402" y1="0" x2="402" y2="186" stroke="#f7cbd3" stroke-width="0.5"/><line x1="408" y1="0" x2="408" y2="186" stroke="#f7cbd3" stroke-width="0.5"/><line x1="414" y1="0" x2="414" y2="186" stroke="#f7cbd3" stroke-width="0.5"/><line x1="420" y1="0" x2="420" y2="186" stroke="#e9a0ad" stroke-width="1"/><line x1="426" y1="0" x2="426" y2="186" stroke="#f7cbd3" stroke-width="0.5"/><line x1="432" y1="0" x2="432" y2="186" stroke="#f7cbd3" stroke-width="0.5"/><line x1="438" y1="0" x2="438" y2="186" stroke="#f7cbd3" stroke-width="0.5"/><line x1="444" y1="0" x2="444" y2="186" stroke="#f7cbd3" stroke-width="0.5"/><line x1="450" y1="0" x2="450" y2="186" stroke="#e9a0ad" stroke-width="1"/><line x1="456" y1="0" x2="456" y2="186" stroke="#f7cbd3" stroke-width="0.5"/><line x1="462" y1="0" x2="462" y2="186" stroke="#f7cbd3" stroke-width="0.5"/><line x1="468" y1="0" x2="468" y2="186" stroke="#f7cbd3" stroke-width="0.5"/><line x1="474" y1="0" x2="474" y2="186" stroke="#f7cbd3" stroke-width="0.5"/><line x1="480" y1="0" x2="480" y2="186" stroke="#e9a0ad" stroke-width="1"/><line x1="486" y1="0" x2="486" y2="186" stroke="#f7cbd3" stroke-width="0.5"/><line x1="492" y1="0" x2="492" y2="186" stroke="#f7cbd3" stroke-width="0.5"/><line x1="498" y1="0" x2="498" y2="186" stroke="#f7cbd3" stroke-width="0.5"/><line x1="504" y1="0" x2="504" y2="186" stroke="#f7cbd3" stroke-width="0.5"/><line x1="510" y1="0" x2="510" y2="186" stroke="#e9a0ad" stroke-width="1"/><line x1="516" y1="0" x2="516" y2="186" stroke="#f7cbd3" stroke-width="0.5"/><line x1="522" y1="0" x2="522" y2="186" stroke="#f7cbd3" stroke-width="0.5"/><line x1="528" y1="0" x2="528" y2="186" stroke="#f7cbd3" stroke-width="0.5"/><line x1="534" y1="0" x2="534" y2="186" stroke="#f7cbd3" stroke-width="0.5"/><line x1="540" y1="0" x2="540" y2="186" stroke="#e9a0ad" stroke-width="1"/><line x1="546" y1="0" x2="546" y2="186" stroke="#f7cbd3" stroke-width="0.5"/><line x1="552" y1="0" x2="552" y2="186" stroke="#f7cbd3" stroke-width="0.5"/><line x1="558" y1="0" x2="558" y2="186" stroke="#f7cbd3" stroke-width="0.5"/><line x1="564" y1="0" x2="564" y2="186" stroke="#f7cbd3" stroke-width="0.5"/><line x1="570" y1="0" x2="570" y2="186" stroke="#e9a0ad" stroke-width="1"/><line x1="576" y1="0" x2="576" y2="186" stroke="#f7cbd3" stroke-width="0.5"/><line x1="582" y1="0" x2="582" y2="186" stroke="#f7cbd3" stroke-width="0.5"/><line x1="588" y1="0" x2="588" y2="186" stroke="#f7cbd3" stroke-width="0.5"/><line x1="594" y1="0" x2="594" y2="186" stroke="#f7cbd3" stroke-width="0.5"/><line x1="600" y1="0" x2="600" y2="186" stroke="#e9a0ad" stroke-width="1"/><line x1="606" y1="0" x2="606" y2="186" stroke="#f7cbd3" stroke-width="0.5"/><line x1="612" y1="0" x2="612" y2="186" stroke="#f7cbd3" stroke-width="0.5"/><line x1="618" y1="0" x2="618" y2="186" stroke="#f7cbd3" stroke-width="0.5"/><line x1="624" y1="0" x2="624" y2="186" stroke="#f7cbd3" stroke-width="0.5"/><line x1="630" y1="0" x2="630" y2="186" stroke="#e9a0ad" stroke-width="1"/><line x1="636" y1="0" x2="636" y2="186" stroke="#f7cbd3" stroke-width="0.5"/><line x1="642" y1="0" x2="642" y2="186" stroke="#f7cbd3" stroke-width="0.5"/><line x1="648" y1="0" x2="648" y2="186" stroke="#f7cbd3" stroke-width="0.5"/><line x1="654" y1="0" x2="654" y2="186" stroke="#f7cbd3" stroke-width="0.5"/><line x1="660" y1="0" x2="660" y2="186" stroke="#e9a0ad" stroke-width="1"/><line x1="666" y1="0" x2="666" y2="186" stroke="#f7cbd3" stroke-width="0.5"/><line x1="672" y1="0" x2="672" y2="186" stroke="#f7cbd3" stroke-width="0.5"/><line x1="678" y1="0" x2="678" y2="186" stroke="#f7cbd3" stroke-width="0.5"/><line x1="684" y1="0" x2="684" y2="186" stroke="#f7cbd3" stroke-width="0.5"/><line x1="690" y1="0" x2="690" y2="186" stroke="#e9a0ad" stroke-width="1"/><line x1="696" y1="0" x2="696" y2="186" stroke="#f7cbd3" stroke-width="0.5"/><line x1="702" y1="0" x2="702" y2="186" stroke="#f7cbd3" stroke-width="0.5"/><line x1="708" y1="0" x2="708" y2="186" stroke="#f7cbd3" stroke-width="0.5"/><line x1="714" y1="0" x2="714" y2="186" stroke="#f7cbd3" stroke-width="0.5"/><line x1="720" y1="0" x2="720" y2="186" stroke="#e9a0ad" stroke-width="1"/><line x1="726" y1="0" x2="726" y2="186" stroke="#f7cbd3" stroke-width="0.5"/><line x1="732" y1="0" x2="732" y2="186" stroke="#f7cbd3" stroke-width="0.5"/><line x1="738" y1="0" x2="738" y2="186" stroke="#f7cbd3" stroke-width="0.5"/><line x1="744" y1="0" x2="744" y2="186" stroke="#f7cbd3" stroke-width="0.5"/><line x1="750" y1="0" x2="750" y2="186" stroke="#e9a0ad" stroke-width="1"/><line x1="756" y1="0" x2="756" y2="186" stroke="#f7cbd3" stroke-width="0.5"/><line x1="762" y1="0" x2="762" y2="186" stroke="#f7cbd3" stroke-width="0.5"/><line x1="768" y1="0" x2="768" y2="186" stroke="#f7cbd3" stroke-width="0.5"/><line x1="774" y1="0" x2="774" y2="186" stroke="#f7cbd3" stroke-width="0.5"/><line x1="780" y1="0" x2="780" y2="186" stroke="#e9a0ad" stroke-width="1"/><line x1="786" y1="0" x2="786" y2="186" stroke="#f7cbd3" stroke-width="0.5"/><line x1="792" y1="0" x2="792" y2="186" stroke="#f7cbd3" stroke-width="0.5"/><line x1="798" y1="0" x2="798" y2="186" stroke="#f7cbd3" stroke-width="0.5"/><line x1="804" y1="0" x2="804" y2="186" stroke="#f7cbd3" stroke-width="0.5"/><line x1="810" y1="0" x2="810" y2="186" stroke="#e9a0ad" stroke-width="1"/><line x1="816" y1="0" x2="816" y2="186" stroke="#f7cbd3" stroke-width="0.5"/><line x1="822" y1="0" x2="822" y2="186" stroke="#f7cbd3" stroke-width="0.5"/><line x1="828" y1="0" x2="828" y2="186" stroke="#f7cbd3" stroke-width="0.5"/><line x1="834" y1="0" x2="834" y2="186" stroke="#f7cbd3" stroke-width="0.5"/><line x1="840" y1="0" x2="840" y2="186" stroke="#e9a0ad" stroke-width="1"/><line x1="846" y1="0" x2="846" y2="186" stroke="#f7cbd3" stroke-width="0.5"/><line x1="852" y1="0" x2="852" y2="186" stroke="#f7cbd3" stroke-width="0.5"/><line x1="858" y1="0" x2="858" y2="186" stroke="#f7cbd3" stroke-width="0.5"/><line x1="864" y1="0" x2="864" y2="186" stroke="#f7cbd3" stroke-width="0.5"/><line x1="870" y1="0" x2="870" y2="186" stroke="#e9a0ad" stroke-width="1"/><line x1="876" y1="0" x2="876" y2="186" stroke="#f7cbd3" stroke-width="0.5"/><line x1="882" y1="0" x2="882" y2="186" stroke="#f7cbd3" stroke-width="0.5"/><line x1="888" y1="0" x2="888" y2="186" stroke="#f7cbd3" stroke-width="0.5"/><line x1="894" y1="0" x2="894" y2="186" stroke="#f7cbd3" stroke-width="0.5"/><line x1="900" y1="0" x2="900" y2="186" stroke="#e9a0ad" stroke-width="1"/><line x1="906" y1="0" x2="906" y2="186" stroke="#f7cbd3" stroke-width="0.5"/><line x1="912" y1="0" x2="912" y2="186" stroke="#f7cbd3" stroke-width="0.5"/><line x1="918" y1="0" x2="918" y2="186" stroke="#f7cbd3" stroke-width="0.5"/><line x1="924" y1="0" x2="924" y2="186" stroke="#f7cbd3" stroke-width="0.5"/><line x1="930" y1="0" x2="930" y2="186" stroke="#e9a0ad" stroke-width="1"/><line x1="936" y1="0" x2="936" y2="186" stroke="#f7cbd3" stroke-width="0.5"/><line x1="942" y1="0" x2="942" y2="186" stroke="#f7cbd3" stroke-width="0.5"/><line x1="948" y1="0" x2="948" y2="186" stroke="#f7cbd3" stroke-width="0.5"/><line x1="954" y1="0" x2="954" y2="186" stroke="#f7cbd3" stroke-width="0.5"/><line x1="960" y1="0" x2="960" y2="186" stroke="#e9a0ad" stroke-width="1"/><line x1="966" y1="0" x2="966" y2="186" stroke="#f7cbd3" stroke-width="0.5"/><line x1="972" y1="0" x2="972" y2="186" stroke="#f7cbd3" stroke-width="0.5"/><line x1="978" y1="0" x2="978" y2="186" stroke="#f7cbd3" stroke-width="0.5"/><line x1="984" y1="0" x2="984" y2="186" stroke="#f7cbd3" stroke-width="0.5"/><line x1="990" y1="0" x2="990" y2="186" stroke="#e9a0ad" stroke-width="1"/><line x1="0" y1="0" x2="990" y2="0" stroke="#e9a0ad" stroke-width="1"/><line x1="0" y1="6" x2="990" y2="6" stroke="#f7cbd3" stroke-width="0.5"/><line x1="0" y1="12" x2="990" y2="12" stroke="#f7cbd3" stroke-width="0.5"/><line x1="0" y1="18" x2="990" y2="18" stroke="#f7cbd3" stroke-width="0.5"/><line x1="0" y1="24" x2="990" y2="24" stroke="#f7cbd3" stroke-width="0.5"/><line x1="0" y1="30" x2="990" y2="30" stroke="#e9a0ad" stroke-width="1"/><line x1="0" y1="36" x2="990" y2="36" stroke="#f7cbd3" stroke-width="0.5"/><line x1="0" y1="42" x2="990" y2="42" stroke="#f7cbd3" stroke-width="0.5"/><line x1="0" y1="48" x2="990" y2="48" stroke="#f7cbd3" stroke-width="0.5"/><line x1="0" y1="54" x2="990" y2="54" stroke="#f7cbd3" stroke-width="0.5"/><line x1="0" y1="60" x2="990" y2="60" stroke="#e9a0ad" stroke-width="1"/><line x1="0" y1="66" x2="990" y2="66" stroke="#f7cbd3" stroke-width="0.5"/><line x1="0" y1="72" x2="990" y2="72" stroke="#f7cbd3" stroke-width="0.5"/><line x1="0" y1="78" x2="990" y2="78" stroke="#f7cbd3" stroke-width="0.5"/><line x1="0" y1="84" x2="990" y2="84" stroke="#f7cbd3" stroke-width="0.5"/><line x1="0" y1="90" x2="990" y2="90" stroke="#e9a0ad" stroke-width="1"/><line x1="0" y1="96" x2="990" y2="96" stroke="#f7cbd3" stroke-width="0.5"/><line x1="0" y1="102" x2="990" y2="102" stroke="#f7cbd3" stroke-width="0.5"/><line x1="0" y1="108" x2="990" y2="108" stroke="#f7cbd3" stroke-width="0.5"/><line x1="0" y1="114" x2="990" y2="114" stroke="#f7cbd3" stroke-width="0.5"/><line x1="0" y1="120" x2="990" y2="120" stroke="#e9a0ad" stroke-width="1"/><line x1="0" y1="126" x2="990" y2="126" stroke="#f7cbd3" stroke-width="0.5"/><line x1="0" y1="132" x2="990" y2="132" stroke="#f7cbd3" stroke-width="0.5"/><line x1="0" y1="138" x2="990" y2="138" stroke="#f7cbd3" stroke-width="0.5"/><line x1="0" y1="144" x2="990" y2="144" stroke="#f7cbd3" stroke-width="0.5"/><line x1="0" y1="150" x2="990" y2="150" stroke="#e9a0ad" stroke-width="1"/><line x1="0" y1="156" x2="990" y2="156" stroke="#f7cbd3" stroke-width="0.5"/><line x1="0" y1="162" x2="990" y2="162" stroke="#f7cbd3" stroke-width="0.5"/><line x1="0" y1="168" x2="990" y2="168" stroke="#f7cbd3" stroke-width="0.5"/><line x1="0" y1="174" x2="990" y2="174" stroke="#f7cbd3" stroke-width="0.5"/><line x1="0" y1="180" x2="990" y2="180" stroke="#e9a0ad" stroke-width="1"/><line x1="0" y1="186" x2="990" y2="186" stroke="#f7cbd3" stroke-width="0.5"/><path d="M 18 93 h 6 v -60 h 30 v 60 h 6" fill="none" stroke="#263238" stroke-width="2" stroke-linecap="round" stroke-linejoin="round" data-calibration-mv="1" data-calibration-sec="0.2" data-calibration-top-y="33"/><polyline points="72,93 72.6,93 73.2,93 73.8,93 74.4,93 75,93 75.6,93 76.2,93 76.8,93 77.4,93 78,93 78.6,93 79.2,93 79.8,93 80.4,93 81,93 81.6,93 82.2,93 82.8,93 83.4,93 84,93 84.6,93 85.2,93 85.8,93 86.4,93 87,93 87.6,93 88.2,93 88.8,93 89.4,93 90,93 90.6,93 91.2,93 91.8,93 92.4,93 93,93 93.6,93 94.2,93 94.8,93 95.4,93 96,93 96.6,93 97.2,93 97.8,93 98.4,93 99,93 99.6,93 100.2,93 100.8,93 101.4,93 102,93 102.6,93 103.2,93 103.8,93 104.4,93 105,93 105.6,93 106.2,93 106.8,93 107.4,93 108,93 108.6,93 109.2,93 109.8,93 110.4,93 111,93 111.6,93 112.2,93 112.8,93 113.4,93 114,93 114.6,93 115.2,93 115.8,93 116.4,93 117,93 117.6,93 118.2,93 118.8,93 119.4,93 120,93 120.6,93 121.2,93 121.8,93 122.4,93 123,93 123.6,93 124.2,93 124.8,93 125.4,93 126,93 126.6,93 127.2,93 127.8,93 128.4,93 129,93 129.6,93 130.2,93 130.8,93 131.4,93 132,93 132.6,93 133.2,93 133.8,93 134.4,93 135,93 135.6,93 136.2,93 136.8,93 137.4,93 138,93 138.6,93 139.2,93 139.8,93 140.4,93 141,93 141.6,92.99 142.2,92.99 142.8,92.99 143.4,92.99 144,92.98 144.6,92.98 145.2,92.97 145.8,92.96 146.4,92.94 147,92.92 147.6,92.9 148.2,92.87 148.8,92.83 149.4,92.78 150,92.72 150.6,92.65 151.2,92.56 151.8,92.46 152.4,92.33 153,92.18 153.6,92.01 154.2,91.8 154.8,91.57 155.4,91.31 156,91.01 156.6,90.68 157.2,90.32 157.8,89.92 158.4,89.49 159,89.03 159.6,88.55 160.2,88.05 160.8,87.54 161.4,87.02 162,86.5 162.6,85.99 163.2,85.5 163.8,85.04 164.4,84.62 165,84.24 165.6,83.92 166.2,83.66 166.8,83.47 167.4,83.35 168,83.3 168.6,83.32 169.2,83.43 169.8,83.6 170.4,83.84 171,84.14 171.6,84.49 172.2,84.89 172.8,85.33 173.4,85.79 174,86.27 174.6,86.76 175.2,87.25 175.8,87.74 176.4,88.2 177,88.65 177.6,89.07 178.2,89.46 178.8,89.82 179.4,90.14 180,90.42 180.6,90.66 181.2,90.87 181.8,91.05 182.4,91.19 183,91.3 183.6,91.4 184.2,91.49 184.8,91.65 185.4,91.97 186,92.64 186.6,93.86 187.2,95.7 187.8,97.97 188.4,99.91 189,100.03 189.6,95.75 190.2,84.08 190.8,64.86 191.4,45.06 192,36.63 192.6,45.89 193.2,66.73 193.8,87.19 194.4,100 195,104.84 195.6,104.39 196.2,101.25 196.8,97.32 197.4,93.8 198,91.24 198.6,89.64 199.2,88.72 199.8,88.2 200.4,87.85 201,87.57 201.6,87.31 202.2,87.04 202.8,86.78 203.4,86.5 204,86.22 204.6,85.94 205.2,85.65 205.8,85.36 206.4,85.06 207,84.76 207.6,84.46 208.2,84.15 208.8,83.84 209.4,83.53 210,83.22 210.6,82.9 211.2,82.59 211.8,82.28 212.4,81.97 213,81.66 213.6,81.35 214.2,81.04 214.8,80.74 215.4,80.44 216,80.15 216.6,79.86 217.2,79.58 217.8,79.31 218.4,79.05 219,78.79 219.6,78.54 220.2,78.3 220.8,78.07 221.4,77.85 222,77.65 222.6,77.45 223.2,77.27 223.8,77.1 224.4,76.95 225,76.8 225.6,76.68 226.2,76.56 226.8,76.47 227.4,76.38 228,76.31 228.6,76.26 229.2,76.23 229.8,76.21 230.4,76.2 231,76.21 231.6,76.24 232.2,76.28 232.8,76.34 233.4,76.41 234,76.5 234.6,76.61 235.2,76.73 235.8,76.86 236.4,77.01 237,77.17 237.6,77.34 238.2,77.53 238.8,77.73 239.4,77.94 240,78.16 240.6,78.4 241.2,78.64 241.8,78.89 242.4,79.15 243,79.42 243.6,79.7 244.2,79.98 244.8,80.27 245.4,80.56 246,80.86 246.6,81.16 247.2,81.47 247.8,81.78 248.4,82.09 249,82.4 249.6,82.72 250.2,83.03 250.8,83.34 251.4,83.65 252,83.97 252.6,84.27 253.2,84.58 253.8,84.88 254.4,85.18 255,85.48 255.6,85.77 256.2,86.06 256.8,86.34 257.4,86.61 258,86.88 258.6,87.15 259.2,87.41 259.8,87.66 260.4,87.9 261,88.14 261.6,88.37 262.2,88.6 262.8,88.82 263.4,89.03 264,89.23 264.6,89.43 265.2,89.62 265.8,89.8 266.4,89.98 267,90.15 267.6,90.31 268.2,90.46 268.8,90.61 269.4,90.75 270,90.89 270.6,91.02 271.2,91.14 271.8,91.26 272.4,91.37 273,91.47 273.6,91.57 274.2,91.66 274.8,91.75 275.4,91.83 276,91.91 276.6,91.98 277.2,92.04 277.8,92.1 278.4,92.15 279,92.19 279.6,92.23 280.2,92.25 280.8,92.27 281.4,92.27 282,92.26 282.6,92.23 283.2,92.19 283.8,92.13 284.4,92.05 285,91.94 285.6,91.81 286.2,91.65 286.8,91.46 287.4,91.24 288,90.98 288.6,90.69 289.2,90.36 289.8,90 290.4,89.6 291,89.17 291.6,88.72 292.2,88.24 292.8,87.74 293.4,87.23 294,86.72 294.6,86.21 295.2,85.72 295.8,85.25 296.4,84.81 297,84.41 297.6,84.06 298.2,83.77 298.8,83.54 299.4,83.38 300,83.29 300.6,83.27 301.2,83.34 301.8,83.47 302.4,83.67 303,83.94 303.6,84.26 304.2,84.64 304.8,85.05 305.4,85.5 306,85.98 306.6,86.47 307.2,86.96 307.8,87.45 308.4,87.93 309,88.39 309.6,88.82 310.2,89.23 310.8,89.61 311.4,89.95 312,90.25 312.6,90.52 313.2,90.75 313.8,90.95 314.4,91.11 315,91.24 315.6,91.34 316.2,91.43 316.8,91.54 317.4,91.75 318,92.19 318.6,93.07 319.2,94.54 319.8,96.61 320.4,98.87 321,100.3 321.6,98.98 322.2,91.96 322.8,76.87 323.4,56.12 324,39.59 324.6,38.38 325.2,53.75 325.8,75.79 326.4,93.53 327,102.83 327.6,105.13 328.2,103.3 328.8,99.65 329.4,95.78 330,92.62 330.6,90.48 331.2,89.19 331.8,88.47 332.4,88.04 333,87.73 333.6,87.46 334.2,87.2 334.8,86.93 335.4,86.66 336,86.39 336.6,86.11 337.2,85.82 337.8,85.53 338.4,85.24 339,84.94 339.6,84.64 340.2,84.33 340.8,84.02 341.4,83.71 342,83.4 342.6,83.09 343.2,82.78 343.8,82.46 344.4,82.15 345,81.84 345.6,81.53 346.2,81.22 346.8,80.92 347.4,80.62 348,80.32 348.6,80.03 349.2,79.75 349.8,79.47 350.4,79.2 351,78.94 351.6,78.68 352.2,78.44 352.8,78.21 353.4,77.98 354,77.77 354.6,77.57 355.2,77.38 355.8,77.2 356.4,77.04 357,76.89 357.6,76.75 358.2,76.63 358.8,76.52 359.4,76.43 360,76.35 360.6,76.29 361.2,76.25 361.8,76.22 362.4,76.2 363,76.2 363.6,76.22 364.2,76.25 364.8,76.3 365.4,76.37 366,76.45 366.6,76.54 367.2,76.65 367.8,76.78 368.4,76.92 369,77.07 369.6,77.24 370.2,77.42 370.8,77.61 371.4,77.81 372,78.03 372.6,78.26 373.2,78.49 373.8,78.74 374.4,79 375,79.26 375.6,79.53 376.2,79.81 376.8,80.1 377.4,80.39 378,80.68 378.6,80.99 379.2,81.29 379.8,81.6 380.4,81.91 381,82.22 381.6,82.53 382.2,82.85 382.8,83.16 383.4,83.47 384,83.78 384.6,84.09 385.2,84.4 385.8,84.71 386.4,85.01 387,85.3 387.6,85.6 388.2,85.89 388.8,86.17 389.4,86.45 390,86.73 390.6,86.99 391.2,87.26 391.8,87.51 392.4,87.76 393,88 393.6,88.24 394.2,88.47 394.8,88.69 395.4,88.91 396,89.11 396.6,89.31 397.2,89.51 397.8,89.7 398.4,89.88 399,90.05 399.6,90.21 400.2,90.37 400.8,90.53 401.4,90.67 402,90.81 402.6,90.94 403.2,91.07 403.8,91.19 404.4,91.3 405,91.41 405.6,91.51 406.2,91.61 406.8,91.7 407.4,91.79 408,91.87 408.6,91.94 409.2,92.01 409.8,92.07 410.4,92.12 411,92.17 411.6,92.21 412.2,92.24 412.8,92.26 413.4,92.27 414,92.27 414.6,92.25 415.2,92.22 415.8,92.17 416.4,92.1 417,92.01 417.6,91.89 418.2,91.75 418.8,91.58 419.4,91.37 420,91.14 420.6,90.86 421.2,90.56 421.8,90.21 422.4,89.84 423,89.43 423.6,88.99 424.2,88.52 424.8,88.03 425.4,87.53 426,87.02 426.6,86.51 427.2,86.01 427.8,85.52 428.4,85.06 429,84.64 429.6,84.26 430.2,83.93 430.8,83.66 431.4,83.46 432,83.33 432.6,83.27 433.2,83.29 433.8,83.38 434.4,83.54 435,83.77 435.6,84.07 436.2,84.41 436.8,84.8 437.4,85.24 438,85.7 438.6,86.18 439.2,86.67 439.8,87.16 440.4,87.65 441,88.12 441.6,88.57 442.2,89 442.8,89.39 443.4,89.75 444,90.08 444.6,90.37 445.2,90.62 445.8,90.84 446.4,91.02 447,91.17 447.6,91.28 448.2,91.38 448.8,91.47 449.4,91.61 450,91.89 450.6,92.49 451.2,93.6 451.8,95.34 452.4,97.56 453,99.64 453.6,100.24 454.2,96.96 454.8,86.75 455.4,68.6 456,48.07 456.6,36.85 457.2,43.09 457.8,62.75 458.4,84.03 459,98.37 459.6,104.46 460.2,104.73 460.8,101.91 461.4,98.01 462,94.36 462.6,91.62 463.2,89.86 463.8,88.85 464.4,88.27 465,87.9 465.6,87.62 466.2,87.35 466.8,87.09 467.4,86.82 468,86.55 468.6,86.27 469.2,85.99 469.8,85.7 470.4,85.41 471,85.12 471.6,84.82 472.2,84.51 472.8,84.21 473.4,83.9 474,83.59 474.6,83.27 475.2,82.96 475.8,82.65 476.4,82.33 477,82.02 477.6,81.71 478.2,81.4 478.8,81.1 479.4,80.79 480,80.5 480.6,80.2 481.2,79.91 481.8,79.63 482.4,79.36 483,79.09 483.6,78.83 484.2,78.58 484.8,78.34 485.4,78.11 486,77.89 486.6,77.68 487.2,77.49 487.8,77.3 488.4,77.13 489,76.97 489.6,76.83 490.2,76.7 490.8,76.58 491.4,76.48 492,76.4 492.6,76.33 493.2,76.27 493.8,76.23 494.4,76.21 495,76.2 495.6,76.21 496.2,76.23 496.8,76.27 497.4,76.33 498,76.4 498.6,76.49 499.2,76.59 499.8,76.7 500.4,76.84 501,76.98 501.6,77.14 502.2,77.31 502.8,77.5 503.4,77.69 504,77.9 504.6,78.12 505.2,78.35 505.8,78.59 506.4,78.85 507,79.1 507.6,79.37 508.2,79.65 508.8,79.93 509.4,80.22 510,80.51 510.6,80.81 511.2,81.11 511.8,81.42 512.4,81.72 513,82.04 513.6,82.35 514.2,82.66 514.8,82.97 515.4,83.29 516,83.6 516.6,83.91 517.2,84.22 517.8,84.53 518.4,84.83 519,85.13 519.6,85.43 520.2,85.72 520.8,86.01 521.4,86.29 522,86.56 522.6,86.84 523.2,87.1 523.8,87.36 524.4,87.61 525,87.86 525.6,88.1 526.2,88.33 526.8,88.56 527.4,88.78 528,88.99 528.6,89.2 529.2,89.4 529.8,89.59 530.4,89.77 531,89.95 531.6,90.12 532.2,90.28 532.8,90.44 533.4,90.59 534,90.73 534.6,90.87 535.2,91 535.8,91.12 536.4,91.24 537,91.35 537.6,91.45 538.2,91.55 538.8,91.65 539.4,91.74 540,91.82 540.6,91.9 541.2,91.97 541.8,92.03 542.4,92.09 543,92.14 543.6,92.19 544.2,92.22 544.8,92.25 545.4,92.27 546,92.27 546.6,92.26 547.2,92.24 547.8,92.2 548.4,92.14 549,92.07 549.6,91.96 550.2,91.84 550.8,91.68 551.4,91.5 552,91.28 552.6,91.03 553.2,90.74 553.8,90.42 554.4,90.06 555,89.67 555.6,89.25 556.2,88.8 556.8,88.32 557.4,87.83 558,87.32 558.6,86.81 559.2,86.3 559.8,85.8 560.4,85.33 561,84.88 561.6,84.47 562.2,84.12 562.8,83.81 563.4,83.57 564,83.4 564.6,83.3 565.2,83.27 565.8,83.32 566.4,83.44 567,83.63 567.6,83.89 568.2,84.2 568.8,84.57 569.4,84.98 570,85.42 570.6,85.89 571.2,86.38 571.8,86.87 572.4,87.36 573,87.84 573.6,88.31 574.2,88.75 574.8,89.16 575.4,89.54 576,89.89 576.6,90.2 577.2,90.48 577.8,90.71 578.4,90.92 579,91.08 579.6,91.22 580.2,91.32 580.8,91.41 581.4,91.52 582,91.7 582.6,92.09 583.2,92.87 583.8,94.24 584.4,96.22 585,98.49 585.6,100.18 586.2,99.53 586.8,93.75 587.4,80.11 588,59.84 588.6,41.64 589.2,37.24 589.8,50.19 590.4,71.97 591,91 591.6,101.77 592.2,105.1 592.8,103.81 593.4,100.34 594,96.43 594.6,93.11 595.2,90.78 595.8,89.37 596.4,88.57 597,88.1 597.6,87.78 598.2,87.51 598.8,87.24 599.4,86.98 600,86.71 600.6,86.44 601.2,86.16 601.8,85.87 602.4,85.58 603,85.29 603.6,84.99 604.2,84.69 604.8,84.39 605.4,84.08 606,83.77 606.6,83.46 607.2,83.14 607.8,82.83 608.4,82.52 609,82.2 609.6,81.89 610.2,81.58 610.8,81.28 611.4,80.97 612,80.67 612.6,80.37 613.2,80.08 613.8,79.8 614.4,79.52 615,79.25 615.6,78.98 616.2,78.73 616.8,78.48 617.4,78.25 618,78.02 618.6,77.81 619.2,77.6 619.8,77.41 620.4,77.23 621,77.06 621.6,76.91 622.2,76.77 622.8,76.65 623.4,76.54 624,76.44 624.6,76.36 625.2,76.3 625.8,76.25 626.4,76.22 627,76.2 627.6,76.2 628.2,76.22 628.8,76.25 629.4,76.29 630,76.36 630.6,76.43 631.2,76.53 631.8,76.63 632.4,76.76 633,76.89 633.6,77.04 634.2,77.21 634.8,77.39 635.4,77.58 636,77.78 636.6,77.99 637.2,78.22 637.8,78.45 638.4,78.7 639,78.95 639.6,79.21 640.2,79.48 640.8,79.76 641.4,80.05 642,80.34 642.6,80.63 643.2,80.93 643.8,81.24 644.4,81.54 645,81.85 645.6,82.16 646.2,82.48 646.8,82.79 647.4,83.1 648,83.42 648.6,83.73 649.2,84.04 649.8,84.35 650.4,84.65 651,84.95 651.6,85.25 652.2,85.55 652.8,85.84 653.4,86.12 654,86.4 654.6,86.68 655.2,86.95 655.8,87.21 656.4,87.47 657,87.72 657.6,87.96 658.2,88.2 658.8,88.43 659.4,88.65 660,88.87 660.6,89.08 661.2,89.28 661.8,89.48 662.4,89.66 663,89.84 663.6,90.02 664.2,90.19 664.8,90.35 665.4,90.5 666,90.65 666.6,90.79 667.2,90.92 667.8,91.05 668.4,91.17 669,91.28 669.6,91.39 670.2,91.5 670.8,91.59 671.4,91.69 672,91.77 672.6,91.85 673.2,91.93 673.8,91.99 674.4,92.06 675,92.11 675.6,92.16 676.2,92.2 676.8,92.23 677.4,92.26 678,92.27 678.6,92.27 679.2,92.26 679.8,92.23 680.4,92.18 681,92.11 681.6,92.03 682.2,91.92 682.8,91.78 683.4,91.61 684,91.41 684.6,91.18 685.2,90.91 685.8,90.61 686.4,90.28 687,89.91 687.6,89.5 688.2,89.07 688.8,88.61 689.4,88.12 690,87.62 690.6,87.11 691.2,86.6 691.8,86.09 692.4,85.6 693,85.14 693.6,84.71 694.2,84.32 694.8,83.98 695.4,83.71 696,83.49 696.6,83.35 697.2,83.28 697.8,83.28 698.4,83.36 699,83.51 699.6,83.73 700.2,84.01 700.8,84.35 701.4,84.73 702,85.16 702.6,85.61 703.2,86.09 703.8,86.58 704.4,87.07 705,87.56 705.6,88.04 706.2,88.49 706.8,88.92 707.4,89.32 708,89.69 708.6,90.02 709.2,90.32 709.8,90.58 710.4,90.8 711,90.99 711.6,91.14 712.2,91.26 712.8,91.36 713.4,91.45 714,91.58 714.6,91.83 715.2,92.35 715.8,93.35 716.4,94.98 717,97.15 717.6,99.33 718.2,100.33 718.8,97.96 719.4,89.17 720,72.24 720.6,51.38 721.2,37.66 721.8,40.74 722.4,58.81 723,80.64 723.6,96.48 724.2,103.89 724.8,104.97 725.4,102.53 726,98.71 726.6,94.95 727.2,92.03 727.8,90.11 728.4,88.99 729,88.35 729.6,87.96 730.2,87.67 730.8,87.4 731.4,87.14 732,86.87 732.6,86.6 733.2,86.32 733.8,86.04 734.4,85.76 735,85.46 735.6,85.17 736.2,84.87 736.8,84.57 737.4,84.26 738,83.95 738.6,83.64 739.2,83.33 739.8,83.01 740.4,82.7 741,82.39 741.6,82.08 742.2,81.76 742.8,81.46 743.4,81.15 744,80.85 744.6,80.55 745.2,80.25 745.8,79.97 746.4,79.68 747,79.41 747.6,79.14 748.2,78.88 748.8,78.63 749.4,78.38 750,78.15 750.6,77.93 751.2,77.72 751.8,77.52 752.4,77.33 753,77.16 753.6,77 754.2,76.85 754.8,76.72 755.4,76.6 756,76.5 756.6,76.41 757.2,76.34 757.8,76.28 758.4,76.24 759,76.21 759.6,76.2 760.2,76.21 760.8,76.23 761.4,76.26 762,76.32 762.6,76.39 763.2,76.47 763.8,76.57 764.4,76.68 765,76.81 765.6,76.95 766.2,77.11 766.8,77.28 767.4,77.46 768,77.66 768.6,77.86 769.2,78.08 769.8,78.31 770.4,78.55 771,78.8 771.6,79.06 772.2,79.32 772.8,79.6 773.4,79.88 774,80.16 774.6,80.46 775.2,80.75 775.8,81.06 776.4,81.36 777,81.67 777.6,81.98 778.2,82.29 778.8,82.61 779.4,82.92 780,83.23 780.6,83.54 781.2,83.86 781.8,84.17 782.4,84.47 783,84.78 783.6,85.08 784.2,85.37 784.8,85.67 785.4,85.95 786,86.24 786.6,86.52 787.2,86.79 787.8,87.06 788.4,87.32 789,87.57 789.6,87.82 790.2,88.06 790.8,88.29 791.4,88.52 792,88.74 792.6,88.96 793.2,89.16 793.8,89.36 794.4,89.55 795,89.74 795.6,89.92 796.2,90.09 796.8,90.25 797.4,90.41 798,90.56 798.6,90.7 799.2,90.84 799.8,90.97 800.4,91.1 801,91.22 801.6,91.33 802.2,91.44 802.8,91.54 803.4,91.63 804,91.72 804.6,91.81 805.2,91.88 805.8,91.96 806.4,92.02 807,92.08 807.6,92.13 808.2,92.18 808.8,92.22 809.4,92.24 810,92.26 810.6,92.27 811.2,92.27 811.8,92.25 812.4,92.21 813,92.16 813.6,92.08 814.2,91.98 814.8,91.86 815.4,91.71 816,91.53 816.6,91.32 817.2,91.07 817.8,90.79 818.4,90.48 819,90.13 819.6,89.74 820.2,89.33 820.8,88.88 821.4,88.41 822,87.92 822.6,87.41 823.2,86.9 823.8,86.39 824.4,85.89 825,85.41 825.6,84.96 826.2,84.54 826.8,84.18 827.4,83.86 828,83.61 828.6,83.42 829.2,83.31 829.8,83.27 830.4,83.31 831,83.41 831.6,83.59 832.2,83.84 832.8,84.14 833.4,84.5 834,84.9 834.6,85.34 835.2,85.81 835.8,86.29 836.4,86.78 837,87.28 837.6,87.76 838.2,88.23 838.8,88.67 839.4,89.09 840,89.48 840.6,89.83 841.2,90.15 841.8,90.43 842.4,90.68 843,90.88 843.6,91.06 844.2,91.2 844.8,91.31 845.4,91.4 846,91.5 846.6,91.66 847.2,92 847.8,92.7 848.4,93.95 849,95.83 849.6,98.1 850.2,99.99 850.8,99.93 851.4,95.29 852,83.12 852.6,63.6 853.2,44.14 853.8,36.69 854.4,46.91 855,68.05 855.6,88.18 856.2,100.48 856.8,104.93 857.4,104.26 858,101.03 858.6,97.1 859.2,93.62 859.8,91.12 860.4,89.57 861,88.68 861.6,88.17 862.2,87.83 862.8,87.55 863.4,87.29 864,87.03 864.6,86.76 865.2,86.49 865.8,86.21 866.4,85.92 867,85.64 867.6,85.34 868.2,85.05 868.8,84.74 869.4,84.44 870,84.13 870.6,83.82 871.2,83.51 871.8,83.2 872.4,82.89 873,82.57 873.6,82.26 874.2,81.95 874.8,81.64 875.4,81.33 876,81.02 876.6,80.72 877.2,80.43 877.8,80.13 878.4,79.85 879,79.57 879.6,79.3 880.2,79.03 880.8,78.77 881.4,78.53 882,78.29 882.6,78.06 883.2,77.84 883.8,77.64 884.4,77.44 885,77.26 885.6,77.09 886.2,76.94 886.8,76.8 887.4,76.67 888,76.56 888.6,76.46 889.2,76.38 889.8,76.31 890.4,76.26 891,76.22 891.6,76.2 892.2,76.2 892.8,76.21 893.4,76.24 894,76.28 894.6,76.34 895.2,76.42 895.8,76.51 896.4,76.61 897,76.73 897.6,76.87 898.2,77.02 898.8,77.18 899.4,77.35 900,77.54 900.6,77.74 901.2,77.95 901.8,78.18 902.4,78.41 903,78.65 903.6,78.91 904.2,79.17 904.8,79.44 905.4,79.71 906,80 906.6,80.28 907.2,80.58 907.8,80.88 908.4,81.18 909,81.49 909.6,81.8 910.2,82.11 910.8,82.42 911.4,82.73 912,83.05 912.6,83.36 913.2,83.67 913.8,83.98 914.4,84.29 915,84.6 915.6,84.9 916.2,85.2 916.8,85.5 917.4,85.79 918,86.07 918.6,86.35 919.2,86.63 919.8,86.9 920.4,87.16 921,87.42 921.6,87.67 922.2,87.92 922.8,88.16 923.4,88.39 924,88.61 924.6,88.83 925.2,89.04 925.8,89.24 926.4,89.44 927,89.63 927.6,89.81 928.2,89.99 928.8,90.16 929.4,90.32 930,90.47 930.6,90.62 931.2,90.76 931.8,90.9 932.4,91.03 933,91.15 933.6,91.26 934.2,91.37 934.8,91.48 935.4,91.58 936,91.67 936.6,91.76 937.2,91.84 937.8,91.91 938.4,91.98 939,92.05 939.6,92.1 940.2,92.15 940.8,92.2 941.4,92.23 942,92.25 942.6,92.27 943.2,92.27 943.8,92.26 944.4,92.23 945,92.19 945.6,92.13 946.2,92.04 946.8,91.94 947.4,91.8 948,91.64 948.6,91.45 949.2,91.22 949.8,90.96 950.4,90.67 951,90.34 951.6,89.97 952.2,89.58 952.8,89.15 953.4,88.69 954,88.21 954.6,87.71 955.2,87.2 955.8,86.69 956.4,86.18 957,85.69 957.6,85.22 958.2,84.78 958.8,84.39 959.4,84.04 960,83.75 960.6,83.53 961.2,83.37 961.8,83.29 962.4,83.28 963,83.34 963.6,83.48 964.2,83.69 964.8,83.96 965.4,84.28 966,84.66 966.6,85.08 967.2,85.53 967.8,86.01 968.4,86.49 969,86.99 969.6,87.48 970.2,87.95 970.8,88.41 971.4,88.85 972,89.25" fill="none" stroke="#1f2933" stroke-width="2.2" stroke-linecap="round" stroke-linejoin="round"/></svg>