<svg xmlns="http://www.w3.org/2000/svg" viewBox="0 0 990 186" role="img" aria-label="ECG rhythm strip" data-kind="rhythm_strip" data-rhythm="pvc" data-duration-sec="6" data-px-per-sec="150" data-px-per-mv="60"><line x1="0" y1="0" x2="0" y2="186" stroke="#e9a0ad" stroke-width="1"/><line x1="6" y1="0" x2="6" y2="186" stroke="#f7cbd3" stroke-width="0.5"/><line x1="12" y1="0" x2="12" y2="186" stroke="#f7cbd3" stroke-width="0.5"/><line x1="18" y1="0" x2="18" y2="186" stroke="#f7cbd3" stroke-width="0.5"/><line x1="24" y1="0" x2="24" y2="186" stroke="#f7cbd3" stroke-width="0.5"/><line x1="30" y1="0" x2="30" y2="186" stroke="#e9a0ad" stroke-width="1"/><line x1="36" y1="0" x2="36" y2="186" stroke="#f7cbd3" stroke-width="0.5"/><line x1="42" y1="0" x2="42" y2="186" stroke="#f7cbd3" stroke-width="0.5"/><line x1="48" y1="0" x2="48" y2="186" stroke="#f7cbd3" stroke-width="0.5"/><line x1="54" y1="0" x2="54" y2="186" stroke="#f7cbd3" stroke-width="0.5"/><line x1="60" y1="0" x2="60" y2="186" stroke="#e9a0ad" stroke-width="1"/><line x1="66" y1="0" x2="66" y2="186" stroke="#f7cbd3" stroke-width="0.5"/><line x1="72" y1="0" x2="72" y2="186" stroke="#f7cbd3" stroke-width="0.5"/><line x1="78" y1="0" x2="78" y2="186" stroke="#f7cbd3" stroke-width="0.5"/><line x1="84" y1="0" x2="84" y2="186" stroke="#f7cbd3" stroke-width="0.5"/><line x1="90" y1="0" x2="90" y2="186" stroke="#e9a0ad" stroke-width="1"/><line x1="96" y1="0" x2="96" y2="186" stroke="#f7cbd3" stroke-width="0.5"/><line x1="102" y1="0" x2="102" y2="186" stroke="#f7cbd3" stroke-width="0.5"/><line x1="108" y1="0" x2="108" y2="186" stroke="#f7cbd3" stroke-width="0.5"/><line x1="114" y1="0" x2="114" y2="186" stroke="#f7cbd3" stroke-width="0.5"/><line x1="120" y1="0" x2="120" y2="186" stroke="#e9a0ad" stroke-width="1"/><line x1="126" y1="0" x2="126" y2="186" stroke="#f7cbd3" stroke-width="0.5"/><line x1="132" y1="0" x2="132" y2="186" stroke="#f7cbd3" stroke-width="0.5"/><line x1="138" y1="0" x2="138" y2="186" stroke="#f7cbd3" stroke-width="0.5"/><line x1="144" y1="0" x2="144" y2="186" stroke="#f7cbd3" stroke-width="0.5"/><line x1="150" y1="0" x2="150" y2="186" stroke="#e9a0ad" stroke-width="1"/><line x1="156" y1="0" x2="156" y2="186" stroke="#f7cbd3" stroke-width="0.5"/><line x1="162" y1="0" x2="162" y2="186" stroke="#f7cbd3" stroke-width="0.5"/><line x1="168" y1="0" x2="168" y2="186" stroke="#f7cbd3" stroke-width="0.5"/><line x1="174" y1="0" x2="174" y2="186" stroke="#f7cbd3" stroke-width="0.5"/><line x1="180" y1="0" x2="180" y2="186" stroke="#e9a0ad" stroke-width="1"/><line x1="186" y1="0" x2="186" y2="186" stroke="#f7cbd3" stroke-width="0.5"/><line x1="192" y1="0" x2="192" y2="186" stroke="#f7cbd3" stroke-width="0.5"/><line x1="198" y1="0" x2="198" y2="186" stroke="#f7cbd3" stroke-width="0.5"/><line x1="204" y1="0" x2="204" y2="186" stroke="#f7cbd3" stroke-width="0.5"/><line x1="210" y1="0" x2="210" y2="186" stroke="#e9a0ad" stroke-width="1"/><line x1="216" y1="0" x2="216" y2="186" stroke="#f7cbd3" stroke-width="0.5"/><line x1="222" y1="0" x2="222" y2="186" stroke="#f7cbd3" stroke-width="0.5"/><line x1="228" y1="0" x2="228" y2="186" stroke="#f7cbd3" stroke-width="0.5"/><line x1="234" y1="0" x2="234" y2="186" stroke="#f7cbd3" stroke-width="0.5"/><line x1="240" y1="0" x2="240" y2="186" stroke="#e9a0ad" stroke-width="1"/><line x1="246" y1="0" x2="246" y2="186" stroke="#f7cbd3" stroke-width="0.5"/><line x1="252" y1="0" x2="252" y2="186" stroke="#f7cbd3" stroke-width="0.5"/><line x1="258" y1="0" x2="258" y2="186" stroke="#f7cbd3" stroke-width="0.5"/><line x1="264" y1="0" x2="264" y2="186" stroke="#f7cbd3" stroke-width="0.5"/><line x1="270" y1="0" x2="270" y2="186" stroke="#e9a0ad" stroke-width="1"/><line x1="276" y1="0" x2="276" y2="186" stroke="#f7cbd3" stroke-width="0.5"/><line x1="282" y1="0" x2="282" y2="186" stroke="#f7cbd3" stroke-width="0.5"/><line x1="288" y1="0" x2="288" y2="186" stroke="#f7cbd3" stroke-width="0.5"/><line x1="294" y1="0" x2="294" y2="186" stroke="#f7cbd3" stroke-width="0.5"/><line x1="300" y1="0" x2="300" y2="186" stroke="#e9a0ad" stroke-width="1"/><line x1="306" y1="0" x2="306" y2="186" stroke="#f7cbd3" stroke-width="0.5"/><line x1="312" y1="0" x2="312" y2="186" stroke="#f7cbd3" stroke-width="0.5"/><line x1="318" y1="0" x2="318" y2="186" stroke="#f7cbd3" stroke-width="0.5"/><line x1="324" y1="0" x2="324" y2="186" stroke="#f7cbd3" stroke-width="0.5"/><line x1="330" y1="0" x2="330" y2="186" stroke="#e9a0ad" stroke-width="1"/><line x1="336" y1="0" x2="336" y2="186" stroke="#f7cbd3" stroke-width="0.5"/><line x1="342" y1="0" x2="342" y2="186" stroke="#f7cbd3" stroke-width="0.5"/><line x1="348" y1="0" x2="348" y2="186" stroke="#f7cbd3" stroke-width="0.5"/><line x1="354" y1="0" x2="354" y2="186" stroke="#f7cbd3" stroke-width="0.5"/><line x1="360" y1="0" x2="360" y2="186" stroke="#e9a0ad" stroke-width="1"/><line x1="366" y1="0" x2="366" y2="186" stroke="#f7cbd3" stroke-width="0.5"/><line x1="372" y1="0" x2="372" y2="186" stroke="#f7cbd3" stroke-width="0.5"/><line x1="378" y1="0" x2="378" y2="186" stroke="#f7cbd3" stroke-width="0.5"/><line x1="384" y1="0" x2="384" y2="186" stroke="#f7cbd3" stroke-width="0.5"/><line x1="390" y1="0" x2="390" y2="186" stroke="#e9a0ad" stroke-width="1"/><line x1="396" y1="0" x2="396" y2="186" stroke="#f7cbd3" stroke-width="0.5"/><line x1="402" y1="0" x2="402" y2="186" stroke="#f7cbd3" stroke-width="0.5"/><line x1="408" y1="0" x2="408" y2="186" stroke="#f7cbd3" stroke-width="0.5"/><line x1="414" y1="0" x2="414" y2="186" stroke="#f7cbd3" stroke-width="0.5"/><line x1="420" y1="0" x2="420" y2="186" stroke="#e9a0ad" stroke-width="1"/><line x1="426" y1="0" x2="426" y2="186" stroke="#f7cbd3" stroke-width="0.5"/><line x1="432" y1="0" x2="432" y2="186" stroke="#f7cbd3" stroke-width="0.5"/><line x1="438" y1="0" x2="438" y2="186" stroke="#f7cbd3" stroke-width="0.5"/><line x1="444" y1="0" x2="444" y2="186" stroke="#f7cbd3" stroke-width="0.5"/><line x1="450" y1="0" x2="450" y2="186" stroke="#e9a0ad" stroke-width="1"/><line x1="456" y1="0" x2="456" y2="186" stroke="#f7cbd3" stroke-width="0.5"/><line x1="462" y1="0" x2="462" y2="186" stroke="#f7cbd3" stroke-width="0.5"/><line x1="468" y1="0" x2="468" y2="186" stroke="#f7cbd3" stroke-width="0.5"/><line x1="474" y1="0" x2="474" y2="186" stroke="#f7cbd3" stroke-width="0.5"/><line x1="480" y1="0" x2="480" y2="186" stroke="#e9a0ad" stroke-width="1"/><line x1="486" y1="0" x2="486" y2="186" stroke="#f7cbd3" stroke-width="0.5"/><line x1="492" y1="0" x2="492" y2="186" stroke="#f7cbd3" stroke-width="0.5"/><line x1="498" y1="0" x2="498" y2="186" stroke="#f7cbd3" stroke-width="0.5"/><line x1="504" y1="0" x2="504" y2="186" stroke="#f7cbd3" stroke-width="0.5"/><line x1="510" y1="0" x2="510" y2="186" stroke="#e9a0ad" stroke-width="1"/><line x1="516" y1="0" x2="516" y2="186" stroke="#f7cbd3" stroke-width="0.5"/><line x1="522" y1="0" x2="522" y2="186" stroke="#f7cbd3" stroke-width="0.5"/><line x1="528" y1="0" x2="528" y2="186" stroke="#f7cbd3" stroke-width="0.5"/><line x1="534" y1="0" x2="534" y2="186" stroke="#f7cbd3" stroke-width="0.5"/><line x1="540" y1="0" x2="540" y2="186" stroke="#e9a0ad" stroke-width="1"/><line x1="546" y1="0" x2="546" y2="186" stroke="#f7cbd3" stroke-width="0.5"/><line x1="552" y1="0" x2="552" y2="186" stroke="#f7cbd3" stroke-width="0.5"/><line x1="558" y1="0" x2="558" y2="186" stroke="#f7cbd3" stroke-width="0.5"/><line x1="564" y1="0" x2="564" y2="186" stroke="#f7cbd3" stroke-width="0.5"/><line x1="570" y1="0" x2="570" y2="186" stroke="#e9a0ad" stroke-width="1"/><line x1="576" y1="0" x2="576" y2="186" stroke="#f7cbd3" stroke-width="0.5"/><line x1="582" y1="0" x2="582" y2="186" stroke="#f7cbd3" stroke-width="0.5"/><line x1="588" y1="0" x2="588" y2="186" stroke="#f7cbd3" stroke-width="0.5"/><line x1="594" y1="0" x2="594" y2="186" stroke="#f7cbd3" stroke-width="0.5"/><line x1="600" y1="0" x2="600" y2="186" stroke="#e9a0ad" stroke-width="1"/><line x1="606" y1="0" x2="606" y2="186" stroke="#f7cbd3" stroke-width="0.5"/><line x1="612" y1="0" x2="612" y2="186" stroke="#f7cbd3" stroke-width="0.5"/><line x1="618" y1="0" x2="618" y2="186" stroke="#f7cbd3" stroke-width="0.5"/><line x1="624" y1="0" x2="624" y2="186" stroke="#f7cbd3" stroke-width="0.5"/><line x1="630" y1="0" x2="630" y2="186" stroke="#e9a0ad" stroke-width="1"/><line x1="636" y1="0" x2="636" y2="186" stroke="#f7cbd3" stroke-width="0.5"/><line x1="642" y1="0" x2="642" y2="186" stroke="#f7cbd3" stroke-width="0.5"/><line x1="648" y1="0" x2="648" y2="186" stroke="#f7cbd3" stroke-width="0.5"/><line x1="654" y1="0" x2="654" y2="186" stroke="#f7cbd3" stroke-width="0.5"/><line x1="660" y1="0" x2="660" y2="186" stroke="#e9a0ad" stroke-width="1"/><line x1="666" y1="0" x2="666" y2="186" stroke="#f7cbd3" stroke-width="0.5"/><line x1="672" y1="0" x2="672" y2="186" stroke="#f7cbd3" stroke-width="0.5"/><line x1="678" y1="0" x2="678" y2="186" stroke="#f7cbd3" stroke-width="0.5"/><line x1="684" y1="0" x2="684" y2="186" stroke="#f7cbd3" stroke-width="0.5"/><line x1="690" y1="0" x2="690" y2="186" stroke="#e9a0ad" stroke-width="1"/><line x1="696" y1="0" x2="696" y2="186" stroke="#f7cbd3" stroke-width="0.5"/><line x1="702" y1="0" x2="702" y2="186" stroke="#f7cbd3" stroke-width="0.5"/><line x1="708" y1="0" x2="708" y2="186" stroke="#f7cbd3" stroke-width="0.5"/><line x1="714" y1="0" x2="714" y2="186" stroke="#f7cbd3" stroke-width="0.5"/><line x1="720" y1="0" x2="720" y2="186" stroke="#e9a0ad" stroke-width="1"/><line x1="726" y1="0" x2="726" y2="186" stroke="#f7cbd3" stroke-width="0.5"/><line x1="732" y1="0" x2="732" y2="186" stroke="#f7cbd3" stroke-width="0.5"/><line x1="738" y1="0" x2="738" y2="186" stroke="#f7cbd3" stroke-width="0.5"/><line x1="744" y1="0" x2="744" y2="186" stroke="#f7cbd3" stroke-width="0.5"/><line x1="750" y1="0" x2="750" y2="186" stroke="#e9a0ad" stroke-width="1"/><line x1="756" y1="0" x2="756" y2="186" stroke="#f7cbd3" stroke-width="0.5"/><line x1="762" y1="0" x2="762" y2="186" stroke="#f7cbd3" stroke-width="0.5"/><line x1="768" y1="0" x2="768" y2="186" stroke="#f7cbd3" stroke-width="0.5"/><line x1="774" y1="0" x2="774" y2="186" stroke="#f7cbd3" stroke-width="0.5"/><line x1="780" y1="0" x2="780" y2="186" stroke="#e9a0ad" stroke-width="1"/><line x1="786" y1="0" x2="786" y2="186" stroke="#f7cbd3" stroke-width="0.5"/><line x1="792" y1="0" x2="792" y2="186" stroke="#f7cbd3" stroke-width="0.5"/><line x1="798" y1="0" x2="798" y2="186" stroke="#f7cbd3" stroke-width="0.5"/><line x1="804" y1="0" x2="804" y2="186" stroke="#f7cbd3" stroke-width="0.5"/><line x1="810" y1="0" x2="810" y2="186" stroke="#e9a0ad" stroke-width="1"/><line x1="816" y1="0" x2="816" y2="186" stroke="#f7cbd3" stroke-width="0.5"/><line x1="822" y1="0" x2="822" y2="186" stroke="#f7cbd3" stroke-width="0.5"/><line x1="828" y1="0" x2="828" y2="186" stroke="#f7cbd3" stroke-width="0.5"/><line x1="834" y1="0" x2="834" y2="186" stroke="#f7cbd3" stroke-width="0.5"/><line x1="840" y1="0" x2="840" y2="186" stroke="#e9a0ad" stroke-width="1"/><line x1="846" y1="0" x2="846" y2="186" stroke="#f7cbd3" stroke-width="0.5"/><line x1="852" y1="0" x2="852" y2="186" stroke="#f7cbd3" stroke-width="0.5"/><line x1="858" y1="0" x2="858" y2="186" stroke="#f7cbd3" stroke-width="0.5"/><line x1="864" y1="0" x2="864" y2="186" stroke="#f7cbd3" stroke-width="0.5"/><line x1="870" y1="0" x2="870" y2="186" stroke="#e9a0ad" stroke-width="1"/><line x1="876" y1="0" x2="876" y2="186" stroke="#f7cbd3" stroke-width="0.5"/><line x1="882" y1="0" x2="882" y2="186" stroke="#f7cbd3" stroke-width="0.5"/><line x1="888" y1="0" x2="888" y2="186" stroke="#f7cbd3" stroke-width="0.5"/><line x1="894" y1="0" x2="894" y2="186" stroke="#f7cbd3" stroke-width="0.5"/><line x1="900" y1="0" x2="900" y2="186" stroke="#e9a0ad" stroke-width="1"/><line x1="906" y1="0" x2="906" y2="186" stroke="#f7cbd3" stroke-width="0.5"/><line x1="912" y1="0" x2="912" y2="186" stroke="#f7cbd3" stroke-width="0.5"/><line x1="918" y1="0" x2="918" y2="186" stroke="#f7cbd3" stroke-width="0.5"/><line x1="924" y1="0" x2="924" y2="186" stroke="#f7cbd3" stroke-width="0.5"/><line x1="930" y1="0" x2="930" y2="186" stroke="#e9a0ad" stroke-width="1"/><line x1="936" y1="0" x2="936" y2="186" stroke="#f7cbd3" stroke-width="0.5"/><line x1="942" y1="0" x2="942" y2="186" stroke="#f7cbd3" stroke-width="0.5"/><line x1="948" y1="0" x2="948" y2="186" stroke="#f7cbd3" stroke-width="0.5"/><line x1="954" y1="0" x2="954" y2="186" stroke="#f7cbd3" stroke-width="0.5"/><line x1="960" y1="0" x2="960" y2="186" stroke="#e9a0ad" stroke-width="1"/><line x1="966" y1="0" x2="966" y2="186" stroke="#f7cbd3" stroke-width="0.5"/><line x1="972" y1="0" x2="972" y2="186" stroke="#f7cbd3" stroke-width="0.5"/><line x1="978" y1="0" x2="978" y2="186" stroke="#f7cbd3" stroke-width="0.5"/><line x1="984" y1="0" x2="984" y2="186" stroke="#f7cbd3" stroke-width="0.5"/><line x1="990" y1="0" x2="990" y2="186" stroke="#e9a0ad" stroke-width="1"/><line x1="0" y1="0" x2="990" y2="0" stroke="#e9a0ad" stroke-width="1"/><line x1="0" y1="6" x2="990" y2="6" stroke="#f7cbd3" stroke-width="0.5"/><line x1="0" y1="12" x2="990" y2="12" stroke="#f7cbd3" stroke-width="0.5"/><line x1="0" y1="18" x2="990" y2="18" stroke="#f7cbd3" stroke-width="0.5"/><line x1="0" y1="24" x2="990" y2="24" stroke="#f7cbd3" stroke-width="0.5"/><line x1="0" y1="30" x2="990" y2="30" stroke="#e9a0ad" stroke-width="1"/><line x1="0" y1="36" x2="990" y2="36" stroke="#f7cbd3" stroke-width="0.5"/><line x1="0" y1="42" x2="990" y2="42" stroke="#f7cbd3" stroke-width="0.5"/><line x1="0" y1="48" x2="990" y2="48" stroke="#f7cbd3" stroke-width="0.5"/><line x1="0" y1="54" x2="990" y2="54" stroke="#f7cbd3" stroke-width="0.5"/><line x1="0" y1="60" x2="990" y2="60" stroke="#e9a0ad" stroke-width="1"/><line x1="0" y1="66" x2="990" y2="66" stroke="#f7cbd3" stroke-width="0.5"/><line x1="0" y1="72" x2="990" y2="72" stroke="#f7cbd3" stroke-width="0.5"/><line x1="0" y1="78" x2="990" y2="78" stroke="#f7cbd3" stroke-width="0.5"/><line x1="0" y1="84" x2="990" y2="84" stroke="#f7cbd3" stroke-width="0.5"/><line x1="0" y1="90" x2="990" y2="90" stroke="#e9a0ad" stroke-width="1"/><line x1="0" y1="96" x2="990" y2="96" stroke="#f7cbd3" stroke-width="0.5"/><line x1="0" y1="102" x2="990" y2="102" stroke="#f7cbd3" stroke-width="0.5"/><line x1="0" y1="108" x2="990" y2="108" stroke="#f7cbd3" stroke-width="0.5"/><line x1="0" y1="114" x2="990" y2="114" stroke="#f7cbd3" stroke-width="0.5"/><line x1="0" y1="120" x2="990" y2="120" stroke="#e9a0ad" stroke-width="1"/><line x1="0" y1="126" x2="990" y2="126" stroke="#f7cbd3" stroke-width="0.5"/><line x1="0" y1="132" x2="990" y2="132" stroke="#f7cbd3" stroke-width="0.5"/><line x1="0" y1="138" x2="990" y2="138" stroke="#f7cbd3" stroke-width="0.5"/><line x1="0" y1="144" x2="990" y2="144" stroke="#f7cbd3" stroke-width="0.5"/><line x1="0" y1="150" x2="990" y2="150" stroke="#e9a0ad" stroke-width="1"/><line x1="0" y1="156" x2="990" y2="156" stroke="#f7cbd3" stroke-width="0.5"/><line x1="0" y1="162" x2="990" y2="162" stroke="#f7cbd3" stroke-width="0.5"/><line x1="0" y1="168" x2="990" y2="168" stroke="#f7cbd3" stroke-width="0.5"/><line x1="0" y1="174" x2="990" y2="174" stroke="#f7cbd3" stroke-width="0.5"/><line x1="0" y1="180" x2="990" y2="180" stroke="#e9a0ad" stroke-width="1"/><line x1="0" y1="186" x2="990" y2="186" stroke="#f7cbd3" stroke-width="0.5"/><path d="M 18 93 h 6 v -60 h 30 v 60 h 6" fill="none" stroke="#263238" stroke-width="2" stroke-linecap="round" stroke-linejoin="round" data-calibration-mv="1" data-calibration-sec="0.2" data-calibration-top-y="33"/><polyline points="72,93 72.6,93 73.2,93 73.8,93 74.4,93 75,93 75.6,93 76.2,93 76.8,93 77.4,93 78,93 78.6,93 79.2,93 79.8,93 80.4,93 81,93 81.6,93 82.2,93 82.8,93 83.4,93 84,93 84.6,93 85.2,93 85.8,93 86.4,93 87,93 87.6,93 88.2,93 88.8,93 89.4,93 90,93 90.6,93 91.2,93 91.8,93 92.4,93 93,93 93.6,93 94.2,93 94.8,93 95.4,93 96,93 96.6,93 97.2,93 97.8,93 98.4,93 99,93 99.6,93 100.2,93 100.8,93 101.4,93 102,93 102.6,93 103.2,93 103.8,93 104.4,93 105,93 105.6,93 106.2,93 106.8,93 107.4,93 108,93 108.6,93 109.2,93 109.8,93 110.4,93 111,93 111.6,93 112.2,93 112.8,93 113.4,93 114,93 114.6,93 115.2,93 115.8,93 116.4,93 117,93 117.6,93 118.2,93 118.8,93 119.4,93 120,93 120.6,93 121.2,93 121.8,93 122.4,93 123,93 123.6,93 124.2,93 124.8,93 125.4,93 126,93 126.6,93 127.2,93 127.8,93 128.4,93 129,93 129.6,93 130.2,93 130.8,93 131.4,93 132,93 132.6,93 133.2,93 133.8,93 134.4,92.99 135,92.99 135.6,92.99 136.2,92.98 136.8,92.98 137.4,92.97 138,92.96 138.6,92.95 139.2,92.93 139.8,92.91 140.4,92.88 141,92.85 141.6,92.81 142.2,92.76 142.8,92.69 143.4,92.61 144,92.51 144.6,92.4 145.2,92.26 145.8,92.1 146.4,91.91 147,91.7 147.6,91.45 148.2,91.17 148.8,90.86 149.4,90.51 150,90.13 150.6,89.72 151.2,89.27 151.8,88.81 152.4,88.31 153,87.81 153.6,87.29 154.2,86.77 154.8,86.26 155.4,85.76 156,85.29 156.6,84.85 157.2,84.45 157.8,84.1 158.4,83.81 159,83.59 159.6,83.44 160.2,83.36 160.8,83.35 161.4,83.42 162,83.56 162.6,83.77 163.2,84.05 163.8,84.38 164.4,84.77 165,85.19 165.6,85.65 166.2,86.13 166.8,86.63 167.4,87.13 168,87.63 168.6,88.11 169.2,88.58 169.8,89.03 170.4,89.45 171,89.83 171.6,90.19 172.2,90.5 172.8,90.78 173.4,91.03 174,91.24 174.6,91.41 175.2,91.56 175.8,91.68 176.4,91.79 177,91.93 177.6,92.18 178.2,92.67 178.8,93.62 179.4,95.18 180,97.32 180.6,99.59 181.2,100.9 181.8,99.23 182.4,91.6 183,75.83 183.6,55 184.2,39.49 184.8,39.92 185.4,56.42 186,78.49 186.6,95.58 187.2,104.19 187.8,106.06 188.4,104.02 189,100.34 189.6,96.54 190.2,93.51 190.8,91.49 191.4,90.32 192,89.67 192.6,89.29 193.2,89.03 193.8,88.8 194.4,88.58 195,88.35 195.6,88.12 196.2,87.88 196.8,87.63 197.4,87.38 198,87.12 198.6,86.86 199.2,86.59 199.8,86.31 200.4,86.03 201,85.74 201.6,85.45 202.2,85.15 202.8,84.85 203.4,84.55 204,84.24 204.6,83.93 205.2,83.62 205.8,83.31 206.4,83 207,82.68 207.6,82.37 208.2,82.06 208.8,81.75 209.4,81.44 210,81.13 210.6,80.83 211.2,80.53 211.8,80.24 212.4,79.95 213,79.67 213.6,79.39 214.2,79.12 214.8,78.86 215.4,78.61 216,78.37 216.6,78.14 217.2,77.92 217.8,77.71 218.4,77.51 219,77.32 219.6,77.15 220.2,76.99 220.8,76.85 221.4,76.71 222,76.6 222.6,76.49 223.2,76.41 223.8,76.33 224.4,76.28 225,76.24 225.6,76.21 226.2,76.2 226.8,76.21 227.4,76.23 228,76.27 228.6,76.32 229.2,76.39 229.8,76.47 230.4,76.57 231,76.69 231.6,76.82 232.2,76.96 232.8,77.12 233.4,77.29 234,77.47 234.6,77.67 235.2,77.88 235.8,78.09 236.4,78.32 237,78.56 237.6,78.81 238.2,79.07 238.8,79.34 239.4,79.61 240,79.89 240.6,80.18 241.2,80.47 241.8,80.77 242.4,81.07 243,81.38 243.6,81.69 244.2,82 244.8,82.31 245.4,82.62 246,82.94 246.6,83.25 247.2,83.56 247.8,83.87 248.4,84.18 249,84.49 249.6,84.79 250.2,85.09 250.8,85.39 251.4,85.68 252,85.97 252.6,86.25 253.2,86.53 253.8,86.8 254.4,87.07 255,87.33 255.6,87.58 256.2,87.83 256.8,88.07 257.4,88.31 258,88.53 258.6,88.75 259.2,88.97 259.8,89.17 260.4,89.37 261,89.56 261.6,89.75 262.2,89.93 262.8,90.1 263.4,90.26 264,90.42 264.6,90.57 265.2,90.71 265.8,90.85 266.4,90.98 267,91.11 267.6,91.22 268.2,91.34 268.8,91.44 269.4,91.55 270,91.64 270.6,91.73 271.2,91.82 271.8,91.9 272.4,91.98 273,92.05 273.6,92.12 274.2,92.18 274.8,92.24 275.4,92.29 276,92.34 276.6,92.39 277.2,92.43 277.8,92.46 278.4,92.5 279,92.52 279.6,92.54 280.2,92.55 280.8,92.56 281.4,92.56 282,92.54 282.6,92.52 283.2,92.48 283.8,92.43 284.4,92.35 285,92.26 285.6,92.15 286.2,92.01 286.8,91.85 287.4,91.66 288,91.43 288.6,91.18 289.2,90.89 289.8,90.56 290.4,90.2 291,89.81 291.6,89.38 292.2,88.93 292.8,88.45 293.4,87.95 294,87.44 294.6,86.93 295.2,86.42 295.8,85.92 296.4,85.44 297,84.98 297.6,84.57 298.2,84.21 298.8,83.9 299.4,83.65 300,83.47 300.6,83.37 301.2,83.33 301.8,83.37 302.4,83.49 303,83.68 303.6,83.93 304.2,84.24 304.8,84.61 305.4,85.02 306,85.47 306.6,85.95 307.2,86.44 307.8,86.94 308.4,87.44 309,87.93 309.6,88.41 310.2,88.86 310.8,89.29 311.4,89.69 312,90.06 312.6,90.39 313.2,90.68 313.8,90.94 314.4,91.16 315,91.35 315.6,91.51 316.2,91.64 316.8,91.75 317.4,91.87 318,92.06 318.6,92.45 319.2,93.2 319.8,94.52 320.4,96.47 321,98.77 321.6,100.62 322.2,100.38 322.8,95.36 323.4,82.67 324,62.87 324.6,43.87 325.2,37.58 325.8,48.89 326.4,70.36 327,90.14 327.6,101.9 328.2,105.96 328.8,105.08 329.4,101.8 330,97.91 330.6,94.53 331.2,92.14 331.8,90.68 332.4,89.87 333,89.42 333.6,89.12 334.2,88.89 334.8,88.66 335.4,88.44 336,88.21 336.6,87.97 337.2,87.73 337.8,87.48 338.4,87.22 339,86.96 339.6,86.69 340.2,86.41 340.8,86.13 341.4,85.85 342,85.56 342.6,85.26 343.2,84.97 343.8,84.66 344.4,84.36 345,84.05 345.6,83.74 346.2,83.43 346.8,83.12 347.4,82.8 348,82.49 348.6,82.18 349.2,81.86 349.8,81.55 350.4,81.25 351,80.94 351.6,80.64 352.2,80.35 352.8,80.06 353.4,79.77 354,79.49 354.6,79.22 355.2,78.96 355.8,78.71 356.4,78.46 357,78.23 357.6,78 358.2,77.79 358.8,77.58 359.4,77.39 360,77.22 360.6,77.05 361.2,76.9 361.8,76.76 362.4,76.64 363,76.53 363.6,76.44 364.2,76.36 364.8,76.3 365.4,76.25 366,76.22 366.6,76.2 367.2,76.2 367.8,76.22 368.4,76.25 369,76.3 369.6,76.36 370.2,76.44 370.8,76.54 371.4,76.64 372,76.77 372.6,76.91 373.2,77.06 373.8,77.22 374.4,77.4 375,77.59 375.6,77.8 376.2,78.01 376.8,78.24 377.4,78.47 378,78.72 378.6,78.97 379.2,79.24 379.8,79.51 380.4,79.79 381,80.07 381.6,80.36 382.2,80.66 382.8,80.96 383.4,81.26 384,81.57 384.6,81.88 385.2,82.19 385.8,82.5 386.4,82.82 387,83.13 387.6,83.44 388.2,83.76 388.8,84.07 389.4,84.37 390,84.68 390.6,84.98 391.2,85.28 391.8,85.57 392.4,85.86 393,86.15 393.6,86.43 394.2,86.7 394.8,86.97 395.4,87.23 396,87.49 396.6,87.74 397.2,87.98 397.8,88.22 398.4,88.45 399,88.67 399.6,88.89 400.2,89.1 400.8,89.3 401.4,89.49 402,89.68 402.6,89.86 403.2,90.03 403.8,90.2 404.4,90.36 405,90.51 405.6,90.66 406.2,90.8 406.8,90.93 407.4,91.06 408,91.18 408.6,91.3 409.2,91.4 409.8,91.51 410.4,91.61 411,91.7 411.6,91.79 412.2,91.87 412.8,91.95 413.4,92.02 414,92.09 414.6,92.16 415.2,92.22 415.8,92.28 416.4,92.33 417,92.38 417.6,92.43 418.2,92.47 418.8,92.51 419.4,92.55 420,92.59 420.6,92.62 421.2,92.65 421.8,92.68 422.4,92.71 423,92.73 423.6,92.76 424.2,92.78 424.8,92.8 425.4,92.81 426,92.83 426.6,92.85 427.2,92.86 427.8,92.87 428.4,92.88 429,92.89 429.6,92.9 430.2,92.91 430.8,92.92 431.4,92.93 432,92.94 432.6,92.94 433.2,92.95 433.8,92.95 434.4,92.96 435,92.96 435.6,92.97 436.2,92.97 436.8,92.97 437.4,92.98 438,92.98 438.6,92.98 439.2,92.98 439.8,92.98 440.4,92.99 441,92.99 441.6,92.99 442.2,92.99 442.8,92.99 443.4,92.99 444,92.99 444.6,92.99 445.2,92.99 445.8,93 446.4,93 447,93 447.6,93 448.2,93 448.8,93 449.4,93 450,93 450.6,93 451.2,93 451.8,93 452.4,93 453,93 453.6,93 454.2,93 454.8,93 455.4,93 456,93 456.6,93 457.2,93 457.8,93 458.4,93 459,93 459.6,93 460.2,93 460.8,93 461.4,93 462,93 462.6,93 463.2,93 463.8,93 464.4,93 465,93 465.6,93 466.2,93 466.8,93 467.4,93 468,93 468.6,93 469.2,93 469.8,93 470.4,93 471,93 471.6,93 472.2,93 472.8,93 473.4,93 474,93 474.6,93 475.2,93 475.8,93 476.4,93 477,93 477.6,93 478.2,93 478.8,93 479.4,93 480,93 480.6,93 481.2,93 481.8,93 482.4,93 483,93 483.6,93 484.2,93 484.8,93 485.4,93 486,93 486.6,93 487.2,93 487.8,93 488.4,93 489,93 489.6,93 490.2,93 490.8,93 491.4,93 492,93 492.6,93 493.2,93 493.8,93 494.4,93 495,93 495.6,93 496.2,93 496.8,93 497.4,93 498,93 498.6,93 499.2,93 499.8,93 500.4,93 501,93 501.6,93 502.2,93 502.8,93 503.4,93 504,93 504.6,93 505.2,93 505.8,93 506.4,93 507,93 507.6,93 508.2,93.01 508.8,93.01 509.4,93.01 510,93.03 510.6,93.05 511.2,93.11 511.8,93.23 512.4,93.45 513,93.84 513.6,94.49 514.2,95.51 514.8,96.99 515.4,98.98 516,101.38 516.6,103.92 517.2,105.96 517.8,106.49 518.4,104.15 519,97.65 519.6,86.53 520.2,71.95 520.8,57.13 521.4,46.56 522,44.2 522.6,51.52 523.2,66.66 523.8,85.26 524.4,102.55 525,115.12 525.6,121.76 526.2,123.07 526.8,120.62 527.4,116.13 528,110.99 528.6,106.14 529.2,102.07 529.8,98.97 530.4,96.79 531,95.37 531.6,94.52 532.2,94.04 532.8,93.81 533.4,93.72 534,93.71 534.6,93.74 535.2,93.79 535.8,93.85 536.4,93.92 537,94 537.6,94.08 538.2,94.17 538.8,94.26 539.4,94.36 540,94.46 540.6,94.57 541.2,94.69 541.8,94.81 542.4,94.93 543,95.07 543.6,95.21 544.2,95.35 544.8,95.51 545.4,95.67 546,95.83 546.6,96 547.2,96.18 547.8,96.36 548.4,96.55 549,96.75 549.6,96.95 550.2,97.16 550.8,97.37 551.4,97.58 552,97.8 552.6,98.03 553.2,98.26 553.8,98.49 554.4,98.72 555,98.95 555.6,99.19 556.2,99.43 556.8,99.66 557.4,99.9 558,100.13 558.6,100.36 559.2,100.59 559.8,100.81 560.4,101.02 561,101.23 561.6,101.42 562.2,101.61 562.8,101.78 563.4,101.93 564,102.07 564.6,102.19 565.2,102.28 565.8,102.35 566.4,102.38 567,102.39 567.6,102.36 568.2,102.29 568.8,102.18 569.4,102.03 570,101.83 570.6,101.58 571.2,101.29 571.8,100.95 572.4,100.56 573,100.13 573.6,99.66 574.2,99.15 574.8,98.61 575.4,98.04 576,97.46 576.6,96.87 577.2,96.28 577.8,95.7 578.4,95.14 579,94.61 579.6,94.11 580.2,93.67 580.8,93.27 581.4,92.94 582,92.67 582.6,92.46 583.2,92.33 583.8,92.26 584.4,92.25 585,92.3 585.6,92.41 586.2,92.56 586.8,92.75 587.4,92.97 588,93.22 588.6,93.47 589.2,93.74 589.8,94 590.4,94.25 591,94.48 591.6,94.7 592.2,94.88 592.8,95.04 593.4,95.17 594,95.27 594.6,95.33 595.2,95.37 595.8,95.37 596.4,95.34 597,95.29 597.6,95.22 598.2,95.14 598.8,95.09 599.4,95.14 600,95.42 600.6,96.14 601.2,97.46 601.8,99.39 602.4,101.53 603,102.91 603.6,101.64 604.2,94.79 604.8,79.91 605.4,59.15 606,42.17 606.6,40.22 607.2,55.05 607.8,77.01 608.4,94.98 609,104.54 609.6,107.01 610.2,105.25 610.8,101.61 611.4,97.71 612,94.5 612.6,92.3 613.2,90.98 613.8,90.24 614.4,89.8 615,89.48 615.6,89.22 616.2,88.96 616.8,88.7 617.4,88.44 618,88.17 618.6,87.9 619.2,87.63 619.8,87.35 620.4,87.06 621,86.78 621.6,86.49 622.2,86.19 622.8,85.89 623.4,85.59 624,85.28 624.6,84.97 625.2,84.66 625.8,84.35 626.4,84.03 627,83.71 627.6,83.4 628.2,83.08 628.8,82.76 629.4,82.44 630,82.13 630.6,81.81 631.2,81.5 631.8,81.19 632.4,80.88 633,80.58 633.6,80.29 634.2,80 634.8,79.71 635.4,79.43 636,79.16 636.6,78.9 637.2,78.65 637.8,78.41 638.4,78.17 639,77.95 639.6,77.74 640.2,77.54 640.8,77.35 641.4,77.17 642,77.01 642.6,76.86 643.2,76.73 643.8,76.61 644.4,76.51 645,76.42 645.6,76.34 646.2,76.28 646.8,76.24 647.4,76.21 648,76.2 648.6,76.21 649.2,76.23 649.8,76.26 650.4,76.31 651,76.38 651.6,76.46 652.2,76.56 652.8,76.67 653.4,76.8 654,76.94 654.6,77.1 655.2,77.27 655.8,77.45 656.4,77.64 657,77.85 657.6,78.07 658.2,78.3 658.8,78.53 659.4,78.78 660,79.04 660.6,79.3 661.2,79.58 661.8,79.86 662.4,80.14 663,80.44 663.6,80.73 664.2,81.03 664.8,81.34 665.4,81.65 666,81.96 666.6,82.27 667.2,82.58 667.8,82.9 668.4,83.21 669,83.52 669.6,83.83 670.2,84.14 670.8,84.45 671.4,84.75 672,85.06 672.6,85.35 673.2,85.65 673.8,85.93 674.4,86.22 675,86.5 675.6,86.77 676.2,87.04 676.8,87.3 677.4,87.55 678,87.8 678.6,88.04 679.2,88.28 679.8,88.51 680.4,88.73 681,88.94 681.6,89.15 682.2,89.35 682.8,89.54 683.4,89.73 684,89.9 684.6,90.08 685.2,90.24 685.8,90.4 686.4,90.55 687,90.69 687.6,90.83 688.2,90.96 688.8,91.09 689.4,91.21 690,91.32 690.6,91.43 691.2,91.53 691.8,91.63 692.4,91.72 693,91.81 693.6,91.89 694.2,91.97 694.8,92.04 695.4,92.11 696,92.17 696.6,92.23 697.2,92.28 697.8,92.33 698.4,92.38 699,92.42 699.6,92.46 700.2,92.49 700.8,92.52 701.4,92.54 702,92.55 702.6,92.56 703.2,92.56 703.8,92.55 704.4,92.52 705,92.48 705.6,92.43 706.2,92.36 706.8,92.28 707.4,92.17 708,92.03 708.6,91.87 709.2,91.68 709.8,91.46 710.4,91.21 711,90.92 711.6,90.6 712.2,90.25 712.8,89.86 713.4,89.44 714,88.99 714.6,88.51 715.2,88.02 715.8,87.51 716.4,86.99 717,86.48 717.6,85.98 718.2,85.49 718.8,85.04 719.4,84.62 720,84.25 720.6,83.93 721.2,83.68 721.8,83.49 722.4,83.37 723,83.33 723.6,83.37 724.2,83.47 724.8,83.65 725.4,83.9 726,84.2 726.6,84.56 727.2,84.97 727.8,85.41 728.4,85.89 729,86.38 729.6,86.88 730.2,87.38 730.8,87.87 731.4,88.35 732,88.81 732.6,89.24 733.2,89.64 733.8,90.01 734.4,90.35 735,90.65 735.6,90.91 736.2,91.14 736.8,91.33 737.4,91.49 738,91.62 738.6,91.74 739.2,91.86 739.8,92.03 740.4,92.38 741,93.08 741.6,94.32 742.2,96.2 742.8,98.49 743.4,100.46 744,100.61 744.6,96.36 745.2,84.72 745.8,65.54 746.4,45.78 747,37.38 747.6,46.67 748.2,67.55 748.8,88.05 749.4,100.9 750,105.78 750.6,105.37 751.2,102.27 751.8,98.38 752.4,94.91 753,92.38 753.6,90.82 754.2,89.95 754.8,89.46 755.4,89.16 756,88.91 756.6,88.69 757.2,88.47 757.8,88.24 758.4,88 759,87.76 759.6,87.51 760.2,87.25 760.8,86.99 761.4,86.72 762,86.45 762.6,86.17 763.2,85.88 763.8,85.59 764.4,85.3 765,85 765.6,84.7 766.2,84.4 766.8,84.09 767.4,83.78 768,83.47 768.6,83.16 769.2,82.84 769.8,82.53 770.4,82.22 771,81.9 771.6,81.59 772.2,81.29 772.8,80.98 773.4,80.68 774,80.38 774.6,80.09 775.2,79.81 775.8,79.53 776.4,79.26 777,78.99 777.6,78.74 778.2,78.49 778.8,78.25 779.4,78.03 780,77.81 780.6,77.61 781.2,77.42 781.8,77.24 782.4,77.07 783,76.92 783.6,76.78 784.2,76.65 784.8,76.54 785.4,76.45 786,76.37 786.6,76.3 787.2,76.25 787.8,76.22 788.4,76.2 789,76.2 789.6,76.22 790.2,76.25 790.8,76.29 791.4,76.35 792,76.43 792.6,76.52 793.2,76.63 793.8,76.75 794.4,76.89 795,77.04 795.6,77.2 796.2,77.38 796.8,77.57 797.4,77.77 798,77.98 798.6,78.21 799.2,78.44 799.8,78.69 800.4,78.94 801,79.2 801.6,79.47 802.2,79.75 802.8,80.04 803.4,80.33 804,80.62 804.6,80.92 805.2,81.22 805.8,81.53 806.4,81.84 807,82.15 807.6,82.47 808.2,82.78 808.8,83.09 809.4,83.41 810,83.72 810.6,84.03 811.2,84.34 811.8,84.64 812.4,84.94 813,85.24 813.6,85.54 814.2,85.83 814.8,86.11 815.4,86.39 816,86.67 816.6,86.94 817.2,87.2 817.8,87.46 818.4,87.71 819,87.95 819.6,88.19 820.2,88.42 820.8,88.64 821.4,88.86 822,89.07 822.6,89.27 823.2,89.47 823.8,89.66 824.4,89.84 825,90.01 825.6,90.18 826.2,90.34 826.8,90.49 827.4,90.64 828,90.78 828.6,90.92 829.2,91.04 829.8,91.17 830.4,91.28 831,91.39 831.6,91.5 832.2,91.59 832.8,91.69 833.4,91.78 834,91.86 834.6,91.94 835.2,92.01 835.8,92.08 836.4,92.15 837,92.21 837.6,92.26 838.2,92.32 838.8,92.36 839.4,92.41 840,92.45 840.6,92.48 841.2,92.51 841.8,92.53 842.4,92.55 843,92.56 843.6,92.56 844.2,92.55 844.8,92.53 845.4,92.5 846,92.45 846.6,92.39 847.2,92.31 847.8,92.21 848.4,92.09 849,91.94 849.6,91.76 850.2,91.55 850.8,91.31 851.4,91.04 852,90.73 852.6,90.38 853.2,90.01 853.8,89.6 854.4,89.16 855,88.69 855.6,88.2 856.2,87.7 856.8,87.19 857.4,86.67 858,86.16 858.6,85.67 859.2,85.21 859.8,84.77 860.4,84.38 861,84.05 861.6,83.77 862.2,83.55 862.8,83.41 863.4,83.34 864,83.34 864.6,83.42 865.2,83.58 865.8,83.8 866.4,84.08 867,84.42 867.6,84.81 868.2,85.24 868.8,85.71 869.4,86.19 870,86.69 870.6,87.19 871.2,87.69 871.8,88.17 872.4,88.64 873,89.08 873.6,89.5 874.2,89.88 874.8,90.23 875.4,90.54 876,90.81 876.6,91.06 877.2,91.26 877.8,91.43 878.4,91.58 879,91.7 879.6,91.81 880.2,91.95 880.8,92.22 881.4,92.76 882,93.78 882.6,95.42 883.2,97.61 883.8,99.83 884.4,100.91 885,98.67 885.6,90.08 886.2,73.36 886.8,52.51 887.4,38.54 888,41.25 888.6,59.14 889.2,81.04 889.8,97.11 890.4,104.73 891,105.96 891.6,103.61 892.2,99.84 892.8,96.11 893.4,93.21 894,91.31 894.6,90.21 895.2,89.61 895.8,89.26 896.4,89 897,88.77 897.6,88.55 898.2,88.32 898.8,88.09 899.4,87.85 900,87.6 900.6,87.35 901.2,87.09 901.8,86.82 902.4,86.55 903,86.27 903.6,85.99 904.2,85.7 904.8,85.41 905.4,85.12 906,84.82 906.6,84.51 907.2,84.2 907.8,83.9 908.4,83.58 909,83.27 909.6,82.96 910.2,82.65 910.8,82.33 911.4,82.02 912,81.71 912.6,81.4 913.2,81.1 913.8,80.79 914.4,80.5 915,80.2 915.6,79.91 916.2,79.63 916.8,79.36 917.4,79.09 918,78.83 918.6,78.58 919.2,78.34 919.8,78.11 920.4,77.89 921,77.68 921.6,77.49 922.2,77.3 922.8,77.13 923.4,76.97 924,76.83 924.6,76.7 925.2,76.58 925.8,76.48 926.4,76.4 927,76.33 927.6,76.27 928.2,76.23 928.8,76.21 929.4,76.2 930,76.21 930.6,76.23 931.2,76.27 931.8,76.33 932.4,76.4 933,76.49 933.6,76.59 934.2,76.7 934.8,76.84 935.4,76.98 936,77.14 936.6,77.31 937.2,77.5 937.8,77.69 938.4,77.9 939,78.12 939.6,78.35 940.2,78.59 940.8,78.85 941.4,79.1 942,79.37 942.6,79.65 943.2,79.93 943.8,80.22 944.4,80.51 945,80.81 945.6,81.11 946.2,81.42 946.8,81.73 947.4,82.04 948,82.35 948.6,82.66 949.2,82.97 949.8,83.29 950.4,83.6 951,83.91 951.6,84.22 952.2,84.53 952.8,84.83 953.4,85.13 954,85.43 954.6,85.72 955.2,86.01 955.8,86.29 956.4,86.57 957,86.84 957.6,87.1 958.2,87.36 958.8,87.61 959.4,87.86 960,88.1 960.6,88.33 961.2,88.56 961.8,88.78 962.4,88.99 963,89.2 963.6,89.4 964.2,89.59 964.8,89.77 965.4,89.95 966,90.12 966.6,90.28 967.2,90.44 967.8,90.59 968.4,90.73 969,90.87 969.6,91 970.2,91.12 970.8,91.24 971.4,91.35 972,91.46" fill="none" stroke="#1f2933" stroke-width="2.2" stroke-linecap="round" stroke-linejoin="round"/></svg>