<svg viewBox="0 0 522 440.29" width="522" height="440.29" role="img" aria-label="multi_column_comparison; arm B; M1_ONE_FISHBONE_PER_COLUMN; narrow_mobile 249px" xmlns="http://www.w3.org/2000/svg"><rect width="100%" height="100%" fill="#f5f8fa"/><text x="124.5" y="17" text-anchor="middle" font-family="system-ui,-apple-system,sans-serif" font-size="12" font-weight="800" fill="#17324d">CURRENT FLAT (scaled only if wider)</text><text x="397.5" y="17" text-anchor="middle" font-family="system-ui,-apple-system,sans-serif" font-size="12" font-weight="800" fill="#17324d">PROOF CANDIDATE</text><text x="261" y="34" text-anchor="middle" font-family="system-ui,-apple-system,sans-serif" font-size="10" fill="#526b7e">multi_column_comparison; arm B; M1_ONE_FISHBONE_PER_COLUMN; narrow_mobile 249px</text><svg x="0" y="46" width="249" height="212.48" viewBox="0 0 600 512" role="img" aria-label="structured clinical measurements" xmlns="http://www.w3.org/2000/svg"><g transform="translate(0 0)"><g class="doc-table">
<rect x="0" y="0" fill="#ffffff" stroke="#94a3b8" stroke-width="1" rx="2"/>
<rect x="0" y="0" width="600" height="32" fill="#e2e8f0" rx="2"/>
<text x="300" y="20.8" font-family="sans-serif" font-size="13" font-weight="600" fill="#1e293b" text-anchor="middle">Laboratory results / 实验室结果</text>
<line x1="0" y1="32" x2="600" y2="32" stroke="#94a3b8" stroke-width="1"/>
<rect x="0" y="32" width="600" height="32" fill="#e2e8f0"/>
<text x="8" y="52.8" font-family="sans-serif" font-size="11" font-weight="600" fill="#334155" text-anchor="start">Measurement / 测量项目</text>
<text x="331.34" y="52.8" font-family="sans-serif" font-size="11" font-weight="600" fill="#334155" text-anchor="middle">PACU (6 h prior) / 麻醉恢复室（6小时前）</text>
<text x="510.45" y="52.8" font-family="sans-serif" font-size="11" font-weight="600" fill="#334155" text-anchor="middle">Current / 当前</text>
<line x1="0" y1="64" x2="600" y2="64" stroke="#94a3b8" stroke-width="1"/>
<rect x="0" y="64" width="600" height="28" fill="#ffffff"/>
<line x1="0" y1="92" x2="600" y2="92" stroke="#e2e8f0" stroke-width="1"/>
<text x="8" y="82.2" font-family="sans-serif" font-size="12" font-weight="600" fill="#1e293b" text-anchor="start">Glucose / 血糖</text>
<text x="331.34" y="82.2" font-family="sans-serif" font-size="12" font-weight="400" fill="#1e293b" text-anchor="middle">156 mg/dL</text>
<text x="510.45" y="82.2" font-family="sans-serif" font-size="12" font-weight="400" fill="#1e293b" text-anchor="middle">142 mg/dL</text>
<rect x="0" y="92" width="600" height="28" fill="#f8fafc"/>
<line x1="0" y1="120" x2="600" y2="120" stroke="#e2e8f0" stroke-width="1"/>
<text x="8" y="110.2" font-family="sans-serif" font-size="12" font-weight="600" fill="#1e293b" text-anchor="start">Sodium / 血钠</text>
<text x="331.34" y="110.2" font-family="sans-serif" font-size="12" font-weight="400" fill="#1e293b" text-anchor="middle">138 mEq/L</text>
<rect x="0" y="120" width="600" height="28" fill="#ffffff"/>
<line x1="0" y1="148" x2="600" y2="148" stroke="#e2e8f0" stroke-width="1"/>
<text x="8" y="138.2" font-family="sans-serif" font-size="12" font-weight="600" fill="#1e293b" text-anchor="start">Potassium / 血钾</text>
<text x="331.34" y="138.2" font-family="sans-serif" font-size="12" font-weight="400" fill="#1e293b" text-anchor="middle">3.5 mEq/L</text>
<rect x="0" y="148" width="600" height="28" fill="#f8fafc"/>
<line x1="0" y1="176" x2="600" y2="176" stroke="#e2e8f0" stroke-width="1"/>
<text x="8" y="166.2" font-family="sans-serif" font-size="12" font-weight="600" fill="#1e293b" text-anchor="start">Chloride / 血氯</text>
<text x="331.34" y="166.2" font-family="sans-serif" font-size="12" font-weight="400" fill="#1e293b" text-anchor="middle">102 mEq/L</text>
<rect x="0" y="176" width="600" height="28" fill="#ffffff"/>
<line x1="0" y1="204" x2="600" y2="204" stroke="#e2e8f0" stroke-width="1"/>
<text x="8" y="194.2" font-family="sans-serif" font-size="12" font-weight="600" fill="#1e293b" text-anchor="start">Bicarbonate / 碳酸氢盐</text>
<text x="331.34" y="194.2" font-family="sans-serif" font-size="12" font-weight="400" fill="#1e293b" text-anchor="middle">24 mEq/L</text>
<rect x="0" y="204" width="600" height="28" fill="#f8fafc"/>
<line x1="0" y1="232" x2="600" y2="232" stroke="#e2e8f0" stroke-width="1"/>
<text x="8" y="222.2" font-family="sans-serif" font-size="12" font-weight="600" fill="#1e293b" text-anchor="start">BUN / 尿素氮</text>
<text x="331.34" y="222.2" font-family="sans-serif" font-size="12" font-weight="400" fill="#1e293b" text-anchor="middle">18 mg/dL</text>
<rect x="0" y="232" width="600" height="28" fill="#ffffff"/>
<line x1="0" y1="260" x2="600" y2="260" stroke="#e2e8f0" stroke-width="1"/>
<text x="8" y="250.2" font-family="sans-serif" font-size="12" font-weight="600" fill="#1e293b" text-anchor="start">Creatinine / 肌酐</text>
<text x="331.34" y="250.2" font-family="sans-serif" font-size="12" font-weight="400" fill="#1e293b" text-anchor="middle">0.8 mg/dL</text>
<rect x="0" y="260" width="600" height="28" fill="#f8fafc"/>
<line x1="0" y1="288" x2="600" y2="288" stroke="#e2e8f0" stroke-width="1"/>
<text x="8" y="278.2" font-family="sans-serif" font-size="12" font-weight="600" fill="#1e293b" text-anchor="start">Calcium / 总钙</text>
<text x="331.34" y="278.2" font-family="sans-serif" font-size="12" font-weight="400" fill="#1e293b" text-anchor="middle">8.4 mg/dL (2.1 mmol/L)</text>
<rect x="0" y="288" width="600" height="28" fill="#ffffff"/>
<line x1="0" y1="316" x2="600" y2="316" stroke="#e2e8f0" stroke-width="1"/>
<text x="8" y="306.2" font-family="sans-serif" font-size="12" font-weight="600" fill="#1e293b" text-anchor="start">Phosphate / 血磷</text>
<text x="331.34" y="306.2" font-family="sans-serif" font-size="12" font-weight="400" fill="#1e293b" text-anchor="middle">2.8 mg/dL</text>
<rect x="0" y="316" width="600" height="28" fill="#f8fafc"/>
<line x1="0" y1="344" x2="600" y2="344" stroke="#e2e8f0" stroke-width="1"/>
<text x="8" y="334.2" font-family="sans-serif" font-size="12" font-weight="600" fill="#1e293b" text-anchor="start">Magnesium / 血镁</text>
<text x="331.34" y="334.2" font-family="sans-serif" font-size="12" font-weight="400" fill="#1e293b" text-anchor="middle">1.8 mg/dL (0.74 mmol/L)</text>
<rect x="0" y="344" width="600" height="28" fill="#ffffff"/>
<line x1="0" y1="372" x2="600" y2="372" stroke="#e2e8f0" stroke-width="1"/>
<text x="8" y="362.2" font-family="sans-serif" font-size="12" font-weight="600" fill="#1e293b" text-anchor="start">WBC / 白细胞</text>
<text x="331.34" y="362.2" font-family="sans-serif" font-size="12" font-weight="400" fill="#1e293b" text-anchor="middle">9.2 ×10³/µL</text>
<rect x="0" y="372" width="600" height="28" fill="#f8fafc"/>
<line x1="0" y1="400" x2="600" y2="400" stroke="#e2e8f0" stroke-width="1"/>
<text x="8" y="390.2" font-family="sans-serif" font-size="12" font-weight="600" fill="#1e293b" text-anchor="start">Hemoglobin / 血红蛋白</text>
<text x="331.34" y="390.2" font-family="sans-serif" font-size="12" font-weight="400" fill="#1e293b" text-anchor="middle">11.0 g/dL</text>
<rect x="0" y="400" width="600" height="28" fill="#ffffff"/>
<line x1="0" y1="428" x2="600" y2="428" stroke="#e2e8f0" stroke-width="1"/>
<text x="8" y="418.2" font-family="sans-serif" font-size="12" font-weight="600" fill="#1e293b" text-anchor="start">Platelets / 血小板</text>
<text x="331.34" y="418.2" font-family="sans-serif" font-size="12" font-weight="400" fill="#1e293b" text-anchor="middle">210 ×10³/µL</text>
<rect x="0" y="428" width="600" height="28" fill="#f8fafc"/>
<line x1="0" y1="456" x2="600" y2="456" stroke="#e2e8f0" stroke-width="1"/>
<text x="8" y="446.2" font-family="sans-serif" font-size="12" font-weight="600" fill="#1e293b" text-anchor="start">AST / 谷草转氨酶</text>
<text x="331.34" y="446.2" font-family="sans-serif" font-size="12" font-weight="400" fill="#1e293b" text-anchor="middle">28 U/L</text>
<rect x="0" y="456" width="600" height="28" fill="#ffffff"/>
<line x1="0" y1="484" x2="600" y2="484" stroke="#e2e8f0" stroke-width="1"/>
<text x="8" y="474.2" font-family="sans-serif" font-size="12" font-weight="600" fill="#1e293b" text-anchor="start">ALT / 谷丙转氨酶</text>
<text x="331.34" y="474.2" font-family="sans-serif" font-size="12" font-weight="400" fill="#1e293b" text-anchor="middle">22 U/L</text>
<rect x="0" y="484" width="600" height="28" fill="#f8fafc"/>
<line x1="0" y1="512" x2="600" y2="512" stroke="#e2e8f0" stroke-width="1"/>
<text x="8" y="502.2" font-family="sans-serif" font-size="12" font-weight="600" fill="#1e293b" text-anchor="start">Total bilirubin / 总胆红素</text>
<text x="331.34" y="502.2" font-family="sans-serif" font-size="12" font-weight="400" fill="#1e293b" text-anchor="middle">0.6 mg/dL</text>
<line x1="241.79" y1="32" x2="241.79" y2="512" stroke="#e2e8f0" stroke-width="1"/>
<line x1="420.9" y1="32" x2="420.9" y2="512" stroke="#e2e8f0" stroke-width="1"/>
</g></g></svg><svg x="273" y="46" width="249" height="382.29333333333335" viewBox="0 0 600 512" role="img" aria-label="structured clinical measurements" xmlns="http://www.w3.org/2000/svg"><g transform="translate(0 0)"><g class="doc-table">
<rect x="0" y="0" fill="#ffffff" stroke="#94a3b8" stroke-width="1" rx="2"/>
<rect x="0" y="0" width="600" height="32" fill="#e2e8f0" rx="2"/>
<text x="300" y="20.8" font-family="sans-serif" font-size="13" font-weight="600" fill="#1e293b" text-anchor="middle">Laboratory results / 实验室结果</text>
<line x1="0" y1="32" x2="600" y2="32" stroke="#94a3b8" stroke-width="1"/>
<rect x="0" y="32" width="600" height="32" fill="#e2e8f0"/>
<text x="8" y="52.8" font-family="sans-serif" font-size="11" font-weight="600" fill="#334155" text-anchor="start">Measurement / 测量项目</text>
<text x="331.34" y="52.8" font-family="sans-serif" font-size="11" font-weight="600" fill="#334155" text-anchor="middle">PACU (6 h prior) / 麻醉恢复室（6小时前）</text>
<text x="510.45" y="52.8" font-family="sans-serif" font-size="11" font-weight="600" fill="#334155" text-anchor="middle">Current / 当前</text>
<line x1="0" y1="64" x2="600" y2="64" stroke="#94a3b8" stroke-width="1"/>
<rect x="0" y="64" width="600" height="28" fill="#ffffff"/>
<line x1="0" y1="92" x2="600" y2="92" stroke="#e2e8f0" stroke-width="1"/>
<text x="8" y="82.2" font-family="sans-serif" font-size="12" font-weight="600" fill="#1e293b" text-anchor="start">Glucose / 血糖</text>
<text x="331.34" y="82.2" font-family="sans-serif" font-size="12" font-weight="400" fill="#1e293b" text-anchor="middle">156 mg/dL</text>
<text x="510.45" y="82.2" font-family="sans-serif" font-size="12" font-weight="400" fill="#1e293b" text-anchor="middle">142 mg/dL</text>
<rect x="0" y="92" width="600" height="28" fill="#f8fafc"/>
<line x1="0" y1="120" x2="600" y2="120" stroke="#e2e8f0" stroke-width="1"/>
<text x="8" y="110.2" font-family="sans-serif" font-size="12" font-weight="600" fill="#1e293b" text-anchor="start">Sodium / 血钠</text>
<text x="331.34" y="110.2" font-family="sans-serif" font-size="12" font-weight="400" fill="#1e293b" text-anchor="middle">138 mEq/L</text>
<rect x="0" y="120" width="600" height="28" fill="#ffffff"/>
<line x1="0" y1="148" x2="600" y2="148" stroke="#e2e8f0" stroke-width="1"/>
<text x="8" y="138.2" font-family="sans-serif" font-size="12" font-weight="600" fill="#1e293b" text-anchor="start">Potassium / 血钾</text>
<text x="331.34" y="138.2" font-family="sans-serif" font-size="12" font-weight="400" fill="#1e293b" text-anchor="middle">3.5 mEq/L</text>
<rect x="0" y="148" width="600" height="28" fill="#f8fafc"/>
<line x1="0" y1="176" x2="600" y2="176" stroke="#e2e8f0" stroke-width="1"/>
<text x="8" y="166.2" font-family="sans-serif" font-size="12" font-weight="600" fill="#1e293b" text-anchor="start">Chloride / 血氯</text>
<text x="331.34" y="166.2" font-family="sans-serif" font-size="12" font-weight="400" fill="#1e293b" text-anchor="middle">102 mEq/L</text>
<rect x="0" y="176" width="600" height="28" fill="#ffffff"/>
<line x1="0" y1="204" x2="600" y2="204" stroke="#e2e8f0" stroke-width="1"/>
<text x="8" y="194.2" font-family="sans-serif" font-size="12" font-weight="600" fill="#1e293b" text-anchor="start">Bicarbonate / 碳酸氢盐</text>
<text x="331.34" y="194.2" font-family="sans-serif" font-size="12" font-weight="400" fill="#1e293b" text-anchor="middle">24 mEq/L</text>
<rect x="0" y="204" width="600" height="28" fill="#f8fafc"/>
<line x1="0" y1="232" x2="600" y2="232" stroke="#e2e8f0" stroke-width="1"/>
<text x="8" y="222.2" font-family="sans-serif" font-size="12" font-weight="600" fill="#1e293b" text-anchor="start">BUN / 尿素氮</text>
<text x="331.34" y="222.2" font-family="sans-serif" font-size="12" font-weight="400" fill="#1e293b" text-anchor="middle">18 mg/dL</text>
<rect x="0" y="232" width="600" height="28" fill="#ffffff"/>
<line x1="0" y1="260" x2="600" y2="260" stroke="#e2e8f0" stroke-width="1"/>
<text x="8" y="250.2" font-family="sans-serif" font-size="12" font-weight="600" fill="#1e293b" text-anchor="start">Creatinine / 肌酐</text>
<text x="331.34" y="250.2" font-family="sans-serif" font-size="12" font-weight="400" fill="#1e293b" text-anchor="middle">0.8 mg/dL</text>
<rect x="0" y="260" width="600" height="28" fill="#f8fafc"/>
<line x1="0" y1="288" x2="600" y2="288" stroke="#e2e8f0" stroke-width="1"/>
<text x="8" y="278.2" font-family="sans-serif" font-size="12" font-weight="600" fill="#1e293b" text-anchor="start">Calcium / 总钙</text>
<text x="331.34" y="278.2" font-family="sans-serif" font-size="12" font-weight="400" fill="#1e293b" text-anchor="middle">8.4 mg/dL (2.1 mmol/L)</text>
<rect x="0" y="288" width="600" height="28" fill="#ffffff"/>
<line x1="0" y1="316" x2="600" y2="316" stroke="#e2e8f0" stroke-width="1"/>
<text x="8" y="306.2" font-family="sans-serif" font-size="12" font-weight="600" fill="#1e293b" text-anchor="start">Phosphate / 血磷</text>
<text x="331.34" y="306.2" font-family="sans-serif" font-size="12" font-weight="400" fill="#1e293b" text-anchor="middle">2.8 mg/dL</text>
<rect x="0" y="316" width="600" height="28" fill="#f8fafc"/>
<line x1="0" y1="344" x2="600" y2="344" stroke="#e2e8f0" stroke-width="1"/>
<text x="8" y="334.2" font-family="sans-serif" font-size="12" font-weight="600" fill="#1e293b" text-anchor="start">Magnesium / 血镁</text>
<text x="331.34" y="334.2" font-family="sans-serif" font-size="12" font-weight="400" fill="#1e293b" text-anchor="middle">1.8 mg/dL (0.74 mmol/L)</text>
<rect x="0" y="344" width="600" height="28" fill="#ffffff"/>
<line x1="0" y1="372" x2="600" y2="372" stroke="#e2e8f0" stroke-width="1"/>
<text x="8" y="362.2" font-family="sans-serif" font-size="12" font-weight="600" fill="#1e293b" text-anchor="start">WBC / 白细胞</text>
<text x="331.34" y="362.2" font-family="sans-serif" font-size="12" font-weight="400" fill="#1e293b" text-anchor="middle">9.2 ×10³/µL</text>
<rect x="0" y="372" width="600" height="28" fill="#f8fafc"/>
<line x1="0" y1="400" x2="600" y2="400" stroke="#e2e8f0" stroke-width="1"/>
<text x="8" y="390.2" font-family="sans-serif" font-size="12" font-weight="600" fill="#1e293b" text-anchor="start">Hemoglobin / 血红蛋白</text>
<text x="331.34" y="390.2" font-family="sans-serif" font-size="12" font-weight="400" fill="#1e293b" text-anchor="middle">11.0 g/dL</text>
<rect x="0" y="400" width="600" height="28" fill="#ffffff"/>
<line x1="0" y1="428" x2="600" y2="428" stroke="#e2e8f0" stroke-width="1"/>
<text x="8" y="418.2" font-family="sans-serif" font-size="12" font-weight="600" fill="#1e293b" text-anchor="start">Platelets / 血小板</text>
<text x="331.34" y="418.2" font-family="sans-serif" font-size="12" font-weight="400" fill="#1e293b" text-anchor="middle">210 ×10³/µL</text>
<rect x="0" y="428" width="600" height="28" fill="#f8fafc"/>
<line x1="0" y1="456" x2="600" y2="456" stroke="#e2e8f0" stroke-width="1"/>
<text x="8" y="446.2" font-family="sans-serif" font-size="12" font-weight="600" fill="#1e293b" text-anchor="start">AST / 谷草转氨酶</text>
<text x="331.34" y="446.2" font-family="sans-serif" font-size="12" font-weight="400" fill="#1e293b" text-anchor="middle">28 U/L</text>
<rect x="0" y="456" width="600" height="28" fill="#ffffff"/>
<line x1="0" y1="484" x2="600" y2="484" stroke="#e2e8f0" stroke-width="1"/>
<text x="8" y="474.2" font-family="sans-serif" font-size="12" font-weight="600" fill="#1e293b" text-anchor="start">ALT / 谷丙转氨酶</text>
<text x="331.34" y="474.2" font-family="sans-serif" font-size="12" font-weight="400" fill="#1e293b" text-anchor="middle">22 U/L</text>
<rect x="0" y="484" width="600" height="28" fill="#f8fafc"/>
<line x1="0" y1="512" x2="600" y2="512" stroke="#e2e8f0" stroke-width="1"/>
<text x="8" y="502.2" font-family="sans-serif" font-size="12" font-weight="600" fill="#1e293b" text-anchor="start">Total bilirubin / 总胆红素</text>
<text x="331.34" y="502.2" font-family="sans-serif" font-size="12" font-weight="400" fill="#1e293b" text-anchor="middle">0.6 mg/dL</text>
<line x1="241.79" y1="32" x2="241.79" y2="512" stroke="#e2e8f0" stroke-width="1"/>
<line x1="420.9" y1="32" x2="420.9" y2="512" stroke="#e2e8f0" stroke-width="1"/>
</g></g></svg></svg>