<svg xmlns="http://www.w3.org/2000/svg" viewBox="0 0 990 186" role="img" aria-label="ECG rhythm strip" data-kind="rhythm_strip" data-rhythm="sinus" data-duration-sec="6" data-px-per-sec="150" data-px-per-mv="60"><line x1="0" y1="0" x2="0" y2="186" stroke="#e9a0ad" stroke-width="1"/><line x1="6" y1="0" x2="6" y2="186" stroke="#f7cbd3" stroke-width="0.5"/><line x1="12" y1="0" x2="12" y2="186" stroke="#f7cbd3" stroke-width="0.5"/><line x1="18" y1="0" x2="18" y2="186" stroke="#f7cbd3" stroke-width="0.5"/><line x1="24" y1="0" x2="24" y2="186" stroke="#f7cbd3" stroke-width="0.5"/><line x1="30" y1="0" x2="30" y2="186" stroke="#e9a0ad" stroke-width="1"/><line x1="36" y1="0" x2="36" y2="186" stroke="#f7cbd3" stroke-width="0.5"/><line x1="42" y1="0" x2="42" y2="186" stroke="#f7cbd3" stroke-width="0.5"/><line x1="48" y1="0" x2="48" y2="186" stroke="#f7cbd3" stroke-width="0.5"/><line x1="54" y1="0" x2="54" y2="186" stroke="#f7cbd3" stroke-width="0.5"/><line x1="60" y1="0" x2="60" y2="186" stroke="#e9a0ad" stroke-width="1"/><line x1="66" y1="0" x2="66" y2="186" stroke="#f7cbd3" stroke-width="0.5"/><line x1="72" y1="0" x2="72" y2="186" stroke="#f7cbd3" stroke-width="0.5"/><line x1="78" y1="0" x2="78" y2="186" stroke="#f7cbd3" stroke-width="0.5"/><line x1="84" y1="0" x2="84" y2="186" stroke="#f7cbd3" stroke-width="0.5"/><line x1="90" y1="0" x2="90" y2="186" stroke="#e9a0ad" stroke-width="1"/><line x1="96" y1="0" x2="96" y2="186" stroke="#f7cbd3" stroke-width="0.5"/><line x1="102" y1="0" x2="102" y2="186" stroke="#f7cbd3" stroke-width="0.5"/><line x1="108" y1="0" x2="108" y2="186" stroke="#f7cbd3" stroke-width="0.5"/><line x1="114" y1="0" x2="114" y2="186" stroke="#f7cbd3" stroke-width="0.5"/><line x1="120" y1="0" x2="120" y2="186" stroke="#e9a0ad" stroke-width="1"/><line x1="126" y1="0" x2="126" y2="186" stroke="#f7cbd3" stroke-width="0.5"/><line x1="132" y1="0" x2="132" y2="186" stroke="#f7cbd3" stroke-width="0.5"/><line x1="138" y1="0" x2="138" y2="186" stroke="#f7cbd3" stroke-width="0.5"/><line x1="144" y1="0" x2="144" y2="186" stroke="#f7cbd3" stroke-width="0.5"/><line x1="150" y1="0" x2="150" y2="186" stroke="#e9a0ad" stroke-width="1"/><line x1="156" y1="0" x2="156" y2="186" stroke="#f7cbd3" stroke-width="0.5"/><line x1="162" y1="0" x2="162" y2="186" stroke="#f7cbd3" stroke-width="0.5"/><line x1="168" y1="0" x2="168" y2="186" stroke="#f7cbd3" stroke-width="0.5"/><line x1="174" y1="0" x2="174" y2="186" stroke="#f7cbd3" stroke-width="0.5"/><line x1="180" y1="0" x2="180" y2="186" stroke="#e9a0ad" stroke-width="1"/><line x1="186" y1="0" x2="186" y2="186" stroke="#f7cbd3" stroke-width="0.5"/><line x1="192" y1="0" x2="192" y2="186" stroke="#f7cbd3" stroke-width="0.5"/><line x1="198" y1="0" x2="198" y2="186" stroke="#f7cbd3" stroke-width="0.5"/><line x1="204" y1="0" x2="204" y2="186" stroke="#f7cbd3" stroke-width="0.5"/><line x1="210" y1="0" x2="210" y2="186" stroke="#e9a0ad" stroke-width="1"/><line x1="216" y1="0" x2="216" y2="186" stroke="#f7cbd3" stroke-width="0.5"/><line x1="222" y1="0" x2="222" y2="186" stroke="#f7cbd3" stroke-width="0.5"/><line x1="228" y1="0" x2="228" y2="186" stroke="#f7cbd3" stroke-width="0.5"/><line x1="234" y1="0" x2="234" y2="186" stroke="#f7cbd3" stroke-width="0.5"/><line x1="240" y1="0" x2="240" y2="186" stroke="#e9a0ad" stroke-width="1"/><line x1="246" y1="0" x2="246" y2="186" stroke="#f7cbd3" stroke-width="0.5"/><line x1="252" y1="0" x2="252" y2="186" stroke="#f7cbd3" stroke-width="0.5"/><line x1="258" y1="0" x2="258" y2="186" stroke="#f7cbd3" stroke-width="0.5"/><line x1="264" y1="0" x2="264" y2="186" stroke="#f7cbd3" stroke-width="0.5"/><line x1="270" y1="0" x2="270" y2="186" stroke="#e9a0ad" stroke-width="1"/><line x1="276" y1="0" x2="276" y2="186" stroke="#f7cbd3" stroke-width="0.5"/><line x1="282" y1="0" x2="282" y2="186" stroke="#f7cbd3" stroke-width="0.5"/><line x1="288" y1="0" x2="288" y2="186" stroke="#f7cbd3" stroke-width="0.5"/><line x1="294" y1="0" x2="294" y2="186" stroke="#f7cbd3" stroke-width="0.5"/><line x1="300" y1="0" x2="300" y2="186" stroke="#e9a0ad" stroke-width="1"/><line x1="306" y1="0" x2="306" y2="186" stroke="#f7cbd3" stroke-width="0.5"/><line x1="312" y1="0" x2="312" y2="186" stroke="#f7cbd3" stroke-width="0.5"/><line x1="318" y1="0" x2="318" y2="186" stroke="#f7cbd3" stroke-width="0.5"/><line x1="324" y1="0" x2="324" y2="186" stroke="#f7cbd3" stroke-width="0.5"/><line x1="330" y1="0" x2="330" y2="186" stroke="#e9a0ad" stroke-width="1"/><line x1="336" y1="0" x2="336" y2="186" stroke="#f7cbd3" stroke-width="0.5"/><line x1="342" y1="0" x2="342" y2="186" stroke="#f7cbd3" stroke-width="0.5"/><line x1="348" y1="0" x2="348" y2="186" stroke="#f7cbd3" stroke-width="0.5"/><line x1="354" y1="0" x2="354" y2="186" stroke="#f7cbd3" stroke-width="0.5"/><line x1="360" y1="0" x2="360" y2="186" stroke="#e9a0ad" stroke-width="1"/><line x1="366" y1="0" x2="366" y2="186" stroke="#f7cbd3" stroke-width="0.5"/><line x1="372" y1="0" x2="372" y2="186" stroke="#f7cbd3" stroke-width="0.5"/><line x1="378" y1="0" x2="378" y2="186" stroke="#f7cbd3" stroke-width="0.5"/><line x1="384" y1="0" x2="384" y2="186" stroke="#f7cbd3" stroke-width="0.5"/><line x1="390" y1="0" x2="390" y2="186" stroke="#e9a0ad" stroke-width="1"/><line x1="396" y1="0" x2="396" y2="186" stroke="#f7cbd3" stroke-width="0.5"/><line x1="402" y1="0" x2="402" y2="186" stroke="#f7cbd3" stroke-width="0.5"/><line x1="408" y1="0" x2="408" y2="186" stroke="#f7cbd3" stroke-width="0.5"/><line x1="414" y1="0" x2="414" y2="186" stroke="#f7cbd3" stroke-width="0.5"/><line x1="420" y1="0" x2="420" y2="186" stroke="#e9a0ad" stroke-width="1"/><line x1="426" y1="0" x2="426" y2="186" stroke="#f7cbd3" stroke-width="0.5"/><line x1="432" y1="0" x2="432" y2="186" stroke="#f7cbd3" stroke-width="0.5"/><line x1="438" y1="0" x2="438" y2="186" stroke="#f7cbd3" stroke-width="0.5"/><line x1="444" y1="0" x2="444" y2="186" stroke="#f7cbd3" stroke-width="0.5"/><line x1="450" y1="0" x2="450" y2="186" stroke="#e9a0ad" stroke-width="1"/><line x1="456" y1="0" x2="456" y2="186" stroke="#f7cbd3" stroke-width="0.5"/><line x1="462" y1="0" x2="462" y2="186" stroke="#f7cbd3" stroke-width="0.5"/><line x1="468" y1="0" x2="468" y2="186" stroke="#f7cbd3" stroke-width="0.5"/><line x1="474" y1="0" x2="474" y2="186" stroke="#f7cbd3" stroke-width="0.5"/><line x1="480" y1="0" x2="480" y2="186" stroke="#e9a0ad" stroke-width="1"/><line x1="486" y1="0" x2="486" y2="186" stroke="#f7cbd3" stroke-width="0.5"/><line x1="492" y1="0" x2="492" y2="186" stroke="#f7cbd3" stroke-width="0.5"/><line x1="498" y1="0" x2="498" y2="186" stroke="#f7cbd3" stroke-width="0.5"/><line x1="504" y1="0" x2="504" y2="186" stroke="#f7cbd3" stroke-width="0.5"/><line x1="510" y1="0" x2="510" y2="186" stroke="#e9a0ad" stroke-width="1"/><line x1="516" y1="0" x2="516" y2="186" stroke="#f7cbd3" stroke-width="0.5"/><line x1="522" y1="0" x2="522" y2="186" stroke="#f7cbd3" stroke-width="0.5"/><line x1="528" y1="0" x2="528" y2="186" stroke="#f7cbd3" stroke-width="0.5"/><line x1="534" y1="0" x2="534" y2="186" stroke="#f7cbd3" stroke-width="0.5"/><line x1="540" y1="0" x2="540" y2="186" stroke="#e9a0ad" stroke-width="1"/><line x1="546" y1="0" x2="546" y2="186" stroke="#f7cbd3" stroke-width="0.5"/><line x1="552" y1="0" x2="552" y2="186" stroke="#f7cbd3" stroke-width="0.5"/><line x1="558" y1="0" x2="558" y2="186" stroke="#f7cbd3" stroke-width="0.5"/><line x1="564" y1="0" x2="564" y2="186" stroke="#f7cbd3" stroke-width="0.5"/><line x1="570" y1="0" x2="570" y2="186" stroke="#e9a0ad" stroke-width="1"/><line x1="576" y1="0" x2="576" y2="186" stroke="#f7cbd3" stroke-width="0.5"/><line x1="582" y1="0" x2="582" y2="186" stroke="#f7cbd3" stroke-width="0.5"/><line x1="588" y1="0" x2="588" y2="186" stroke="#f7cbd3" stroke-width="0.5"/><line x1="594" y1="0" x2="594" y2="186" stroke="#f7cbd3" stroke-width="0.5"/><line x1="600" y1="0" x2="600" y2="186" stroke="#e9a0ad" stroke-width="1"/><line x1="606" y1="0" x2="606" y2="186" stroke="#f7cbd3" stroke-width="0.5"/><line x1="612" y1="0" x2="612" y2="186" stroke="#f7cbd3" stroke-width="0.5"/><line x1="618" y1="0" x2="618" y2="186" stroke="#f7cbd3" stroke-width="0.5"/><line x1="624" y1="0" x2="624" y2="186" stroke="#f7cbd3" stroke-width="0.5"/><line x1="630" y1="0" x2="630" y2="186" stroke="#e9a0ad" stroke-width="1"/><line x1="636" y1="0" x2="636" y2="186" stroke="#f7cbd3" stroke-width="0.5"/><line x1="642" y1="0" x2="642" y2="186" stroke="#f7cbd3" stroke-width="0.5"/><line x1="648" y1="0" x2="648" y2="186" stroke="#f7cbd3" stroke-width="0.5"/><line x1="654" y1="0" x2="654" y2="186" stroke="#f7cbd3" stroke-width="0.5"/><line x1="660" y1="0" x2="660" y2="186" stroke="#e9a0ad" stroke-width="1"/><line x1="666" y1="0" x2="666" y2="186" stroke="#f7cbd3" stroke-width="0.5"/><line x1="672" y1="0" x2="672" y2="186" stroke="#f7cbd3" stroke-width="0.5"/><line x1="678" y1="0" x2="678" y2="186" stroke="#f7cbd3" stroke-width="0.5"/><line x1="684" y1="0" x2="684" y2="186" stroke="#f7cbd3" stroke-width="0.5"/><line x1="690" y1="0" x2="690" y2="186" stroke="#e9a0ad" stroke-width="1"/><line x1="696" y1="0" x2="696" y2="186" stroke="#f7cbd3" stroke-width="0.5"/><line x1="702" y1="0" x2="702" y2="186" stroke="#f7cbd3" stroke-width="0.5"/><line x1="708" y1="0" x2="708" y2="186" stroke="#f7cbd3" stroke-width="0.5"/><line x1="714" y1="0" x2="714" y2="186" stroke="#f7cbd3" stroke-width="0.5"/><line x1="720" y1="0" x2="720" y2="186" stroke="#e9a0ad" stroke-width="1"/><line x1="726" y1="0" x2="726" y2="186" stroke="#f7cbd3" stroke-width="0.5"/><line x1="732" y1="0" x2="732" y2="186" stroke="#f7cbd3" stroke-width="0.5"/><line x1="738" y1="0" x2="738" y2="186" stroke="#f7cbd3" stroke-width="0.5"/><line x1="744" y1="0" x2="744" y2="186" stroke="#f7cbd3" stroke-width="0.5"/><line x1="750" y1="0" x2="750" y2="186" stroke="#e9a0ad" stroke-width="1"/><line x1="756" y1="0" x2="756" y2="186" stroke="#f7cbd3" stroke-width="0.5"/><line x1="762" y1="0" x2="762" y2="186" stroke="#f7cbd3" stroke-width="0.5"/><line x1="768" y1="0" x2="768" y2="186" stroke="#f7cbd3" stroke-width="0.5"/><line x1="774" y1="0" x2="774" y2="186" stroke="#f7cbd3" stroke-width="0.5"/><line x1="780" y1="0" x2="780" y2="186" stroke="#e9a0ad" stroke-width="1"/><line x1="786" y1="0" x2="786" y2="186" stroke="#f7cbd3" stroke-width="0.5"/><line x1="792" y1="0" x2="792" y2="186" stroke="#f7cbd3" stroke-width="0.5"/><line x1="798" y1="0" x2="798" y2="186" stroke="#f7cbd3" stroke-width="0.5"/><line x1="804" y1="0" x2="804" y2="186" stroke="#f7cbd3" stroke-width="0.5"/><line x1="810" y1="0" x2="810" y2="186" stroke="#e9a0ad" stroke-width="1"/><line x1="816" y1="0" x2="816" y2="186" stroke="#f7cbd3" stroke-width="0.5"/><line x1="822" y1="0" x2="822" y2="186" stroke="#f7cbd3" stroke-width="0.5"/><line x1="828" y1="0" x2="828" y2="186" stroke="#f7cbd3" stroke-width="0.5"/><line x1="834" y1="0" x2="834" y2="186" stroke="#f7cbd3" stroke-width="0.5"/><line x1="840" y1="0" x2="840" y2="186" stroke="#e9a0ad" stroke-width="1"/><line x1="846" y1="0" x2="846" y2="186" stroke="#f7cbd3" stroke-width="0.5"/><line x1="852" y1="0" x2="852" y2="186" stroke="#f7cbd3" stroke-width="0.5"/><line x1="858" y1="0" x2="858" y2="186" stroke="#f7cbd3" stroke-width="0.5"/><line x1="864" y1="0" x2="864" y2="186" stroke="#f7cbd3" stroke-width="0.5"/><line x1="870" y1="0" x2="870" y2="186" stroke="#e9a0ad" stroke-width="1"/><line x1="876" y1="0" x2="876" y2="186" stroke="#f7cbd3" stroke-width="0.5"/><line x1="882" y1="0" x2="882" y2="186" stroke="#f7cbd3" stroke-width="0.5"/><line x1="888" y1="0" x2="888" y2="186" stroke="#f7cbd3" stroke-width="0.5"/><line x1="894" y1="0" x2="894" y2="186" stroke="#f7cbd3" stroke-width="0.5"/><line x1="900" y1="0" x2="900" y2="186" stroke="#e9a0ad" stroke-width="1"/><line x1="906" y1="0" x2="906" y2="186" stroke="#f7cbd3" stroke-width="0.5"/><line x1="912" y1="0" x2="912" y2="186" stroke="#f7cbd3" stroke-width="0.5"/><line x1="918" y1="0" x2="918" y2="186" stroke="#f7cbd3" stroke-width="0.5"/><line x1="924" y1="0" x2="924" y2="186" stroke="#f7cbd3" stroke-width="0.5"/><line x1="930" y1="0" x2="930" y2="186" stroke="#e9a0ad" stroke-width="1"/><line x1="936" y1="0" x2="936" y2="186" stroke="#f7cbd3" stroke-width="0.5"/><line x1="942" y1="0" x2="942" y2="186" stroke="#f7cbd3" stroke-width="0.5"/><line x1="948" y1="0" x2="948" y2="186" stroke="#f7cbd3" stroke-width="0.5"/><line x1="954" y1="0" x2="954" y2="186" stroke="#f7cbd3" stroke-width="0.5"/><line x1="960" y1="0" x2="960" y2="186" stroke="#e9a0ad" stroke-width="1"/><line x1="966" y1="0" x2="966" y2="186" stroke="#f7cbd3" stroke-width="0.5"/><line x1="972" y1="0" x2="972" y2="186" stroke="#f7cbd3" stroke-width="0.5"/><line x1="978" y1="0" x2="978" y2="186" stroke="#f7cbd3" stroke-width="0.5"/><line x1="984" y1="0" x2="984" y2="186" stroke="#f7cbd3" stroke-width="0.5"/><line x1="990" y1="0" x2="990" y2="186" stroke="#e9a0ad" stroke-width="1"/><line x1="0" y1="0" x2="990" y2="0" stroke="#e9a0ad" stroke-width="1"/><line x1="0" y1="6" x2="990" y2="6" stroke="#f7cbd3" stroke-width="0.5"/><line x1="0" y1="12" x2="990" y2="12" stroke="#f7cbd3" stroke-width="0.5"/><line x1="0" y1="18" x2="990" y2="18" stroke="#f7cbd3" stroke-width="0.5"/><line x1="0" y1="24" x2="990" y2="24" stroke="#f7cbd3" stroke-width="0.5"/><line x1="0" y1="30" x2="990" y2="30" stroke="#e9a0ad" stroke-width="1"/><line x1="0" y1="36" x2="990" y2="36" stroke="#f7cbd3" stroke-width="0.5"/><line x1="0" y1="42" x2="990" y2="42" stroke="#f7cbd3" stroke-width="0.5"/><line x1="0" y1="48" x2="990" y2="48" stroke="#f7cbd3" stroke-width="0.5"/><line x1="0" y1="54" x2="990" y2="54" stroke="#f7cbd3" stroke-width="0.5"/><line x1="0" y1="60" x2="990" y2="60" stroke="#e9a0ad" stroke-width="1"/><line x1="0" y1="66" x2="990" y2="66" stroke="#f7cbd3" stroke-width="0.5"/><line x1="0" y1="72" x2="990" y2="72" stroke="#f7cbd3" stroke-width="0.5"/><line x1="0" y1="78" x2="990" y2="78" stroke="#f7cbd3" stroke-width="0.5"/><line x1="0" y1="84" x2="990" y2="84" stroke="#f7cbd3" stroke-width="0.5"/><line x1="0" y1="90" x2="990" y2="90" stroke="#e9a0ad" stroke-width="1"/><line x1="0" y1="96" x2="990" y2="96" stroke="#f7cbd3" stroke-width="0.5"/><line x1="0" y1="102" x2="990" y2="102" stroke="#f7cbd3" stroke-width="0.5"/><line x1="0" y1="108" x2="990" y2="108" stroke="#f7cbd3" stroke-width="0.5"/><line x1="0" y1="114" x2="990" y2="114" stroke="#f7cbd3" stroke-width="0.5"/><line x1="0" y1="120" x2="990" y2="120" stroke="#e9a0ad" stroke-width="1"/><line x1="0" y1="126" x2="990" y2="126" stroke="#f7cbd3" stroke-width="0.5"/><line x1="0" y1="132" x2="990" y2="132" stroke="#f7cbd3" stroke-width="0.5"/><line x1="0" y1="138" x2="990" y2="138" stroke="#f7cbd3" stroke-width="0.5"/><line x1="0" y1="144" x2="990" y2="144" stroke="#f7cbd3" stroke-width="0.5"/><line x1="0" y1="150" x2="990" y2="150" stroke="#e9a0ad" stroke-width="1"/><line x1="0" y1="156" x2="990" y2="156" stroke="#f7cbd3" stroke-width="0.5"/><line x1="0" y1="162" x2="990" y2="162" stroke="#f7cbd3" stroke-width="0.5"/><line x1="0" y1="168" x2="990" y2="168" stroke="#f7cbd3" stroke-width="0.5"/><line x1="0" y1="174" x2="990" y2="174" stroke="#f7cbd3" stroke-width="0.5"/><line x1="0" y1="180" x2="990" y2="180" stroke="#e9a0ad" stroke-width="1"/><line x1="0" y1="186" x2="990" y2="186" stroke="#f7cbd3" stroke-width="0.5"/><path d="M 18 93 h 6 v -60 h 30 v 60 h 6" fill="none" stroke="#263238" stroke-width="2" stroke-linecap="round" stroke-linejoin="round" data-calibration-mv="1" data-calibration-sec="0.2" data-calibration-top-y="33"/><polyline points="72,93 72.6,93 73.2,93 73.8,93 74.4,93 75,93 75.6,93 76.2,93 76.8,93 77.4,93 78,93 78.6,93 79.2,93 79.8,93 80.4,93 81,93 81.6,93 82.2,93 82.8,93 83.4,93 84,93 84.6,93 85.2,93 85.8,93 86.4,93 87,93 87.6,93 88.2,93 88.8,93 89.4,93 90,93 90.6,93 91.2,93 91.8,93 92.4,93 93,93 93.6,93 94.2,93 94.8,93 95.4,93 96,93 96.6,93 97.2,93 97.8,93 98.4,93 99,93 99.6,93 100.2,93 100.8,93 101.4,93 102,93 102.6,93 103.2,93 103.8,93 104.4,93 105,93 105.6,93 106.2,93 106.8,93 107.4,93 108,93 108.6,93 109.2,93 109.8,93 110.4,93 111,93 111.6,93 112.2,93 112.8,93 113.4,93 114,93 114.6,93 115.2,93 115.8,93 116.4,93 117,93 117.6,93 118.2,93 118.8,93 119.4,93 120,93 120.6,93 121.2,93 121.8,93 122.4,93 123,93 123.6,93 124.2,93 124.8,93 125.4,93 126,93 126.6,93 127.2,93 127.8,93 128.4,93 129,93 129.6,93 130.2,93 130.8,93 131.4,93 132,93 132.6,93 133.2,93 133.8,93 134.4,93 135,93 135.6,93 136.2,93 136.8,93 137.4,93 138,93 138.6,93 139.2,93 139.8,93 140.4,93 141,92.99 141.6,92.99 142.2,92.99 142.8,92.99 143.4,92.98 144,92.98 144.6,92.97 145.2,92.96 145.8,92.95 146.4,92.94 147,92.92 147.6,92.89 148.2,92.86 148.8,92.82 149.4,92.77 150,92.71 150.6,92.64 151.2,92.55 151.8,92.44 152.4,92.31 153,92.16 153.6,91.99 154.2,91.78 154.8,91.55 155.4,91.28 156,90.98 156.6,90.65 157.2,90.28 157.8,89.88 158.4,89.44 159,88.98 159.6,88.49 160.2,87.99 160.8,87.47 161.4,86.94 162,86.41 162.6,85.9 163.2,85.4 163.8,84.93 164.4,84.5 165,84.11 165.6,83.78 166.2,83.51 166.8,83.3 167.4,83.16 168,83.1 168.6,83.11 169.2,83.19 169.8,83.35 170.4,83.57 171,83.84 171.6,84.17 172.2,84.55 172.8,84.96 173.4,85.39 174,85.85 174.6,86.31 175.2,86.77 175.8,87.21 176.4,87.65 177,88.05 177.6,88.43 178.2,88.78 178.8,89.09 179.4,89.36 180,89.6 180.6,89.79 181.2,89.95 181.8,90.07 182.4,90.16 183,90.21 183.6,90.24 184.2,90.27 184.8,90.36 185.4,90.62 186,91.23 186.6,92.37 187.2,94.15 187.8,96.33 188.4,98.2 189,98.24 189.6,93.89 190.2,82.14 190.8,62.84 191.4,42.97 192,34.45 192.6,43.63 193.2,64.39 193.8,84.77 194.4,97.5 195,102.26 195.6,101.73 196.2,98.51 196.8,94.51 197.4,90.91 198,88.28 198.6,86.6 199.2,85.62 199.8,85.03 200.4,84.62 201,84.29 201.6,83.97 202.2,83.66 202.8,83.34 203.4,83.03 204,82.72 204.6,82.4 205.2,82.09 205.8,81.78 206.4,81.47 207,81.16 207.6,80.86 208.2,80.56 208.8,80.27 209.4,79.98 210,79.7 210.6,79.42 211.2,79.15 211.8,78.89 212.4,78.64 213,78.4 213.6,78.16 214.2,77.94 214.8,77.73 215.4,77.53 216,77.34 216.6,77.17 217.2,77.01 217.8,76.86 218.4,76.72 219,76.56 219.6,76.28 220.2,75.55 220.8,73.48 221.4,68.2 222,56.75 222.6,36.17 223.2,6.11 223.8,-9 224.4,-9 225,-9 225.6,-9 226.2,-9 226.8,6.37 227.4,36.53 228,57.19 228.6,68.72 229.2,74.09 229.8,76.24 230.4,77.05 231,77.41 231.6,77.64 232.2,77.85 232.8,78.07 233.4,78.3 234,78.54 234.6,78.79 235.2,79.05 235.8,79.31 236.4,79.58 237,79.86 237.6,80.15 238.2,80.44 238.8,80.74 239.4,81.04 240,81.35 240.6,81.66 241.2,81.97 241.8,82.28 242.4,82.59 243,82.9 243.6,83.22 244.2,83.53 244.8,83.84 245.4,84.15 246,84.46 246.6,84.76 247.2,85.06 247.8,85.36 248.4,85.65 249,85.94 249.6,86.22 250.2,86.5 250.8,86.78 251.4,87.04 252,87.3 252.6,87.56 253.2,87.81 253.8,88.05 254.4,88.28 255,88.51 255.6,88.73 256.2,88.94 256.8,89.15 257.4,89.35 258,89.54 258.6,89.73 259.2,89.91 259.8,90.08 260.4,90.24 261,90.4 261.6,90.55 262.2,90.69 262.8,90.82 263.4,90.95 264,91.07 264.6,91.18 265.2,91.29 265.8,91.38 266.4,91.47 267,91.55 267.6,91.62 268.2,91.67 268.8,91.71 269.4,91.74 270,91.75 270.6,91.75 271.2,91.72 271.8,91.68 272.4,91.61 273,91.51 273.6,91.38 274.2,91.22 274.8,91.03 275.4,90.81 276,90.54 276.6,90.24 277.2,89.91 277.8,89.54 278.4,89.13 279,88.7 279.6,88.23 280.2,87.75 280.8,87.25 281.4,86.74 282,86.23 282.6,85.73 283.2,85.25 283.8,84.79 284.4,84.37 285,84 285.6,83.68 286.2,83.41 286.8,83.21 287.4,83.09 288,83.03 288.6,83.05 289.2,83.14 289.8,83.3 290.4,83.52 291,83.8 291.6,84.14 292.2,84.52 292.8,84.93 293.4,85.37 294,85.82 294.6,86.29 295.2,86.75 295.8,87.2 296.4,87.63 297,88.04 297.6,88.42 298.2,88.77 298.8,89.08 299.4,89.36 300,89.59 300.6,89.79 301.2,89.95 301.8,90.07 302.4,90.15 303,90.21 303.6,90.24 304.2,90.27 304.8,90.36 305.4,90.62 306,91.22 306.6,92.37 307.2,94.14 307.8,96.33 308.4,98.2 309,98.24 309.6,93.89 310.2,82.14 310.8,62.84 311.4,42.97 312,34.45 312.6,43.63 313.2,64.38 313.8,84.77 314.4,97.5 315,102.26 315.6,101.73 316.2,98.51 316.8,94.51 317.4,90.91 318,88.28 318.6,86.6 319.2,85.62 319.8,85.03 320.4,84.62 321,84.29 321.6,83.97 322.2,83.66 322.8,83.34 323.4,83.03 324,82.72 324.6,82.4 325.2,82.09 325.8,81.78 326.4,81.47 327,81.16 327.6,80.86 328.2,80.56 328.8,80.27 329.4,79.98 330,79.7 330.6,79.42 331.2,79.15 331.8,78.89 332.4,78.64 333,78.4 333.6,78.16 334.2,77.94 334.8,77.73 335.4,77.53 336,77.34 336.6,77.17 337.2,77.01 337.8,76.86 338.4,76.73 339,76.61 339.6,76.5 340.2,76.41 340.8,76.34 341.4,76.28 342,76.24 342.6,76.21 343.2,76.2 343.8,76.21 344.4,76.23 345,76.26 345.6,76.31 346.2,76.38 346.8,76.47 347.4,76.56 348,76.68 348.6,76.8 349.2,76.95 349.8,77.1 350.4,77.27 351,77.45 351.6,77.65 352.2,77.85 352.8,78.07 353.4,78.3 354,78.54 354.6,78.79 355.2,79.05 355.8,79.31 356.4,79.58 357,79.86 357.6,80.15 358.2,80.44 358.8,80.74 359.4,81.04 360,81.35 360.6,81.66 361.2,81.97 361.8,82.28 362.4,82.59 363,82.9 363.6,83.22 364.2,83.53 364.8,83.84 365.4,84.15 366,84.46 366.6,84.76 367.2,85.06 367.8,85.36 368.4,85.65 369,85.94 369.6,86.22 370.2,86.5 370.8,86.78 371.4,87.04 372,87.3 372.6,87.56 373.2,87.81 373.8,88.05 374.4,88.28 375,88.51 375.6,88.73 376.2,88.94 376.8,89.15 377.4,89.35 378,89.54 378.6,89.73 379.2,89.91 379.8,90.08 380.4,90.24 381,90.4 381.6,90.55 382.2,90.69 382.8,90.82 383.4,90.95 384,91.07 384.6,91.18 385.2,91.29 385.8,91.38 386.4,91.47 387,91.55 387.6,91.62 388.2,91.67 388.8,91.71 389.4,91.74 390,91.75 390.6,91.75 391.2,91.72 391.8,91.68 392.4,91.61 393,91.51 393.6,91.38 394.2,91.22 394.8,91.03 395.4,90.81 396,90.54 396.6,90.24 397.2,89.91 397.8,89.54 398.4,89.13 399,88.7 399.6,88.23 400.2,87.75 400.8,87.25 401.4,86.74 402,86.23 402.6,85.73 403.2,85.25 403.8,84.79 404.4,84.37 405,84 405.6,83.68 406.2,83.41 406.8,83.21 407.4,83.09 408,83.03 408.6,83.05 409.2,83.14 409.8,83.3 410.4,83.52 411,83.8 411.6,84.14 412.2,84.52 412.8,84.93 413.4,85.37 414,85.82 414.6,86.29 415.2,86.75 415.8,87.2 416.4,87.63 417,88.04 417.6,88.42 418.2,88.77 418.8,89.08 419.4,89.36 420,89.59 420.6,89.79 421.2,89.95 421.8,90.07 422.4,90.15 423,90.21 423.6,90.24 424.2,90.27 424.8,90.36 425.4,90.62 426,91.22 426.6,92.37 427.2,94.14 427.8,96.33 428.4,98.2 429,98.24 429.6,93.89 430.2,82.14 430.8,62.84 431.4,42.97 432,34.45 432.6,43.63 433.2,64.38 433.8,84.77 434.4,97.5 435,102.26 435.6,101.73 436.2,98.51 436.8,94.51 437.4,90.91 438,88.28 438.6,86.6 439.2,85.62 439.8,85.03 440.4,84.62 441,84.29 441.6,83.97 442.2,83.66 442.8,83.34 443.4,83.03 444,82.72 444.6,82.4 445.2,82.09 445.8,81.78 446.4,81.47 447,81.16 447.6,80.86 448.2,80.56 448.8,80.27 449.4,79.98 450,79.7 450.6,79.42 451.2,79.15 451.8,78.89 452.4,78.64 453,78.4 453.6,78.16 454.2,77.94 454.8,77.73 455.4,77.53 456,77.34 456.6,77.17 457.2,77.01 457.8,76.86 458.4,76.73 459,76.61 459.6,76.5 460.2,76.41 460.8,76.34 461.4,76.28 462,76.24 462.6,76.21 463.2,76.2 463.8,76.21 464.4,76.23 465,76.26 465.6,76.31 466.2,76.38 466.8,76.47 467.4,76.56 468,76.68 468.6,76.8 469.2,76.95 469.8,77.1 470.4,77.27 471,77.45 471.6,77.65 472.2,77.85 472.8,78.07 473.4,78.3 474,78.54 474.6,78.79 475.2,79.05 475.8,79.31 476.4,79.58 477,79.86 477.6,80.15 478.2,80.44 478.8,80.74 479.4,81.04 480,81.35 480.6,81.66 481.2,81.97 481.8,82.28 482.4,82.59 483,82.91 483.6,83.22 484.2,83.53 484.8,83.84 485.4,84.14 486,84.41 486.6,84.54 487.2,84.2 487.8,82.51 488.4,77.57 489,66.46 489.6,46.19 490.2,16.42 490.8,-9 491.4,-9 492,-9 492.6,-9 493.2,-9 493.8,18.18 494.4,48.69 495,69.86 495.6,82.14 496.2,88.6 496.8,92.29 497.4,95.12 498,97.91 498.6,100.72 499.2,103.1 499.8,104.13 500.4,102.62 501,97.4 501.6,88.05 502.2,75.65 502.8,63.02 503.4,54.13 504,52.47 504.6,59.33 505.2,73.01 505.8,89.66 506.4,105.01 507,116.02 507.6,121.6 508.2,122.31 508.8,119.57 509.4,114.96 510,109.77 510.6,104.89 511.2,100.8 511.8,97.65 512.4,95.4 513,93.88 513.6,92.9 514.2,92.27 514.8,91.84 515.4,91.53 516,91.25 516.6,90.98 517.2,90.7 517.8,90.39 518.4,90.05 519,89.7 519.6,89.31 520.2,88.92 520.8,88.51 521.4,88.1 522,87.69 522.6,87.3 523.2,86.94 523.8,86.6 524.4,86.31 525,86.07 525.6,85.88 526.2,85.77 526.8,85.72 527.4,85.75 528,85.86 528.6,86.05 529.2,86.32 529.8,86.66 530.4,87.07 531,87.55 531.6,88.09 532.2,88.67 532.8,89.3 533.4,89.95 534,90.63 534.6,91.32 535.2,92 535.8,92.68 536.4,93.35 537,94 537.6,94.61 538.2,95.2 538.8,95.75 539.4,96.26 540,96.74 540.6,97.17 541.2,97.56 541.8,97.91 542.4,98.22 543,98.5 543.6,98.75 544.2,98.99 544.8,99.28 545.4,99.74 546,100.53 546.6,101.86 547.2,103.8 547.8,106.15 548.4,108.17 549,108.35 549.6,104.12 550.2,92.49 550.8,73.3 551.4,53.51 552,45.07 552.6,54.31 553.2,75.12 553.8,95.54 554.4,108.29 555,113.06 555.6,112.52 556.2,109.28 556.8,105.24 557.4,101.6 558,98.9 558.6,97.15 559.2,96.08 559.8,95.38 560.4,94.86 561,94.39 561.6,93.94 562.2,93.47 562.8,93 563.4,92.52 564,92.02 564.6,91.52 565.2,91.01 565.8,90.5 566.4,89.98 567,89.45 567.6,88.93 568.2,88.4 568.8,87.88 569.4,87.36 570,86.84 570.6,86.33 571.2,85.82 571.8,85.32 572.4,84.83 573,84.35 573.6,83.88 574.2,83.43 574.8,82.99 575.4,82.56 576,82.15 576.6,81.75 577.2,81.38 577.8,81.02 578.4,80.68 579,80.36 579.6,80.06 580.2,79.78 580.8,79.52 581.4,79.28 582,79.07 582.6,78.88 583.2,78.71 583.8,78.56 584.4,78.43 585,78.33 585.6,78.25 586.2,78.19 586.8,78.15 587.4,78.13 588,78.14 588.6,78.16 589.2,78.21 589.8,78.27 590.4,78.35 591,78.45 591.6,78.57 592.2,78.71 592.8,78.86 593.4,79.02 594,79.2 594.6,79.39 595.2,79.6 595.8,79.82 596.4,80.05 597,80.29 597.6,80.54 598.2,80.79 598.8,81.06 599.4,81.33 600,81.61 600.6,81.89 601.2,82.18 601.8,82.47 602.4,82.77 603,83.06 603.6,83.36 604.2,83.66 604.8,83.96 605.4,84.25 606,84.55 606.6,84.84 607.2,85.14 607.8,85.42 608.4,85.71 609,85.99 609.6,86.27 610.2,86.54 610.8,86.81 611.4,87.07 612,87.33 612.6,87.58 613.2,87.83 613.8,88.07 614.4,88.3 615,88.52 615.6,88.74 616.2,88.96 616.8,89.16 617.4,89.36 618,89.55 618.6,89.73 619.2,89.91 619.8,90.08 620.4,90.24 621,90.4 621.6,90.55 622.2,90.69 622.8,90.83 623.4,90.95 624,91.07 624.6,91.19 625.2,91.29 625.8,91.39 626.4,91.47 627,91.55 627.6,91.62 628.2,91.67 628.8,91.71 629.4,91.74 630,91.75 630.6,91.75 631.2,91.72 631.8,91.68 632.4,91.61 633,91.51 633.6,91.38 634.2,91.22 634.8,91.03 635.4,90.81 636,90.54 636.6,90.24 637.2,89.91 637.8,89.54 638.4,89.13 639,88.7 639.6,88.23 640.2,87.75 640.8,87.25 641.4,86.74 642,86.23 642.6,85.73 643.2,85.25 643.8,84.79 644.4,84.37 645,84 645.6,83.68 646.2,83.41 646.8,83.21 647.4,83.09 648,83.03 648.6,83.05 649.2,83.14 649.8,83.3 650.4,83.52 651,83.8 651.6,84.14 652.2,84.52 652.8,84.93 653.4,85.37 654,85.82 654.6,86.29 655.2,86.75 655.8,87.2 656.4,87.63 657,88.04 657.6,88.42 658.2,88.77 658.8,89.08 659.4,89.36 660,89.59 660.6,89.79 661.2,89.95 661.8,90.07 662.4,90.15 663,90.21 663.6,90.24 664.2,90.27 664.8,90.36 665.4,90.62 666,91.22 666.6,92.37 667.2,94.14 667.8,96.33 668.4,98.2 669,98.24 669.6,93.89 670.2,82.14 670.8,62.84 671.4,42.97 672,34.45 672.6,43.63 673.2,64.38 673.8,84.77 674.4,97.5 675,102.26 675.6,101.73 676.2,98.51 676.8,94.51 677.4,90.91 678,88.28 678.6,86.6 679.2,85.62 679.8,85.03 680.4,84.62 681,84.29 681.6,83.97 682.2,83.66 682.8,83.34 683.4,83.03 684,82.72 684.6,82.4 685.2,82.09 685.8,81.78 686.4,81.47 687,81.16 687.6,80.86 688.2,80.56 688.8,80.27 689.4,79.98 690,79.7 690.6,79.42 691.2,79.15 691.8,78.89 692.4,78.64 693,78.4 693.6,78.16 694.2,77.94 694.8,77.73 695.4,77.53 696,77.34 696.6,77.17 697.2,77.01 697.8,76.86 698.4,76.73 699,76.61 699.6,76.5 700.2,76.41 700.8,76.34 701.4,76.28 702,76.24 702.6,76.21 703.2,76.2 703.8,76.21 704.4,76.23 705,76.26 705.6,76.31 706.2,76.38 706.8,76.47 707.4,76.56 708,76.68 708.6,76.8 709.2,76.95 709.8,77.1 710.4,77.27 711,77.45 711.6,77.65 712.2,77.85 712.8,78.07 713.4,78.3 714,78.54 714.6,78.79 715.2,79.05 715.8,79.31 716.4,79.58 717,79.86 717.6,80.15 718.2,80.44 718.8,80.74 719.4,81.04 720,81.35 720.6,81.66 721.2,81.97 721.8,82.28 722.4,82.59 723,82.9 723.6,83.22 724.2,83.53 724.8,83.84 725.4,84.15 726,84.46 726.6,84.76 727.2,85.06 727.8,85.36 728.4,85.65 729,85.94 729.6,86.22 730.2,86.5 730.8,86.78 731.4,87.04 732,87.3 732.6,87.56 733.2,87.81 733.8,88.05 734.4,88.28 735,88.51 735.6,88.73 736.2,88.94 736.8,89.15 737.4,89.35 738,89.54 738.6,89.73 739.2,89.91 739.8,90.08 740.4,90.24 741,90.4 741.6,90.55 742.2,90.69 742.8,90.82 743.4,90.95 744,91.07 744.6,91.18 745.2,91.29 745.8,91.38 746.4,91.47 747,91.55 747.6,91.62 748.2,91.67 748.8,91.71 749.4,91.74 750,91.75 750.6,91.75 751.2,91.72 751.8,91.68 752.4,91.61 753,91.51 753.6,91.38 754.2,91.22 754.8,91.03 755.4,90.8 756,90.5 756.6,90.02 757.2,89.05 757.8,86.68 758.4,81.05 759,69.21 759.6,48.2 760.2,17.66 760.8,-9 761.4,-9 762,-9 762.6,-9 763.2,-9 763.8,14.93 764.4,44.78 765,65.35 765.6,77.09 766.2,83.07 766.8,86.35 767.4,88.85 768,91.39 768.6,94.04 769.2,96.33 769.8,97.35 770.4,95.9 771,90.8 771.6,81.65 772.2,69.47 772.8,57.12 773.4,48.55 774,47.22 774.6,54.43 775.2,68.47 775.8,85.47 776.4,101.17 777,112.51 777.6,118.41 778.2,119.41 778.8,116.94 779.4,112.57 780,107.61 780.6,102.93 781.2,99.02 781.8,96.04 782.4,93.95 783,92.58 783.6,91.75 784.2,91.32 784.8,91.18 785.4,91.34 786,91.93 786.6,93.11 787.2,94.94 787.8,97.19 788.4,99.13 789,99.24 789.6,94.97 790.2,83.3 790.8,64.1 791.4,44.32 792,35.91 792.6,45.2 793.2,66.07 793.8,86.57 794.4,99.43 795,104.33 795.6,103.93 796.2,100.87 796.8,97.01 797.4,93.58 798,91.11 798.6,89.61 799.2,88.8 799.8,88.4 800.4,88.18 801,88.03 801.6,87.92 802.2,87.81 802.8,87.71 803.4,87.61 804,87.52 804.6,87.43 805.2,87.35 805.8,87.27 806.4,87.19 807,87.12 807.6,87.05 808.2,86.99 808.8,86.94 809.4,86.89 810,86.84 810.6,86.8 811.2,86.76 811.8,86.73 812.4,86.71 813,86.69 813.6,86.67 814.2,86.66 814.8,86.65 815.4,86.65 816,86.65 816.6,86.66 817.2,86.67 817.8,86.68 818.4,86.7 819,86.72 819.6,86.74 820.2,86.77 820.8,86.8 821.4,86.83 822,86.86 822.6,86.9 823.2,86.94 823.8,86.98 824.4,87.02 825,87.06 825.6,87.11 826.2,87.15 826.8,87.2 827.4,87.25 828,87.3 828.6,87.35 829.2,87.4 829.8,87.45 830.4,87.51 831,87.56 831.6,87.62 832.2,87.67 832.8,87.73 833.4,87.79 834,87.85 834.6,87.91 835.2,87.97 835.8,88.03 836.4,88.09 837,88.16 837.6,88.22 838.2,88.29 838.8,88.35 839.4,88.42 840,88.49 840.6,88.56 841.2,88.64 841.8,88.71 842.4,88.78 843,88.86 843.6,88.94 844.2,89.02 844.8,89.1 845.4,89.18 846,89.26 846.6,89.35 847.2,89.43 847.8,89.52 848.4,89.6 849,89.69 849.6,89.78 850.2,89.87 850.8,89.96 851.4,90.05 852,90.13 852.6,90.22 853.2,90.31 853.8,90.4 854.4,90.49 855,90.58 855.6,90.67 856.2,90.75 856.8,90.84 857.4,90.92 858,91 858.6,91.09 859.2,91.17 859.8,91.25 860.4,91.32 861,91.4 861.6,91.47 862.2,91.54 862.8,91.61 863.4,91.67 864,91.73 864.6,91.79 865.2,91.84 865.8,91.89 866.4,91.94 867,91.97 867.6,92 868.2,92.02 868.8,92.03 869.4,92.03 870,92.02 870.6,91.99 871.2,91.94 871.8,91.87 872.4,91.78 873,91.66 873.6,91.52 874.2,91.35 874.8,91.14 875.4,90.91 876,90.63 876.6,90.32 877.2,89.98 877.8,89.6 878.4,89.19 879,88.75 879.6,88.28 880.2,87.79 880.8,87.28 881.4,86.77 882,86.26 882.6,85.76 883.2,85.27 883.8,84.81 884.4,84.39 885,84.01 885.6,83.69 886.2,83.42 886.8,83.22 887.4,83.1 888,83.04 888.6,83.05 889.2,83.14 889.8,83.3 890.4,83.52 891,83.81 891.6,84.14 892.2,84.52 892.8,84.93 893.4,85.37 894,85.83 894.6,86.29 895.2,86.75 895.8,87.2 896.4,87.63 897,88.04 897.6,88.42 898.2,88.77 898.8,89.08 899.4,89.36 900,89.59 900.6,89.79 901.2,89.95 901.8,90.07 902.4,90.15 903,90.21 903.6,90.24 904.2,90.27 904.8,90.36 905.4,90.62 906,91.22 906.6,92.37 907.2,94.14 907.8,96.33 908.4,98.2 909,98.24 909.6,93.89 910.2,82.14 910.8,62.84 911.4,42.97 912,34.45 912.6,43.63 913.2,64.38 913.8,84.77 914.4,97.5 915,102.26 915.6,101.73 916.2,98.51 916.8,94.51 917.4,90.91 918,88.28 918.6,86.6 919.2,85.62 919.8,85.03 920.4,84.62 921,84.29 921.6,83.97 922.2,83.66 922.8,83.34 923.4,83.03 924,82.72 924.6,82.4 925.2,82.09 925.8,81.78 926.4,81.47 927,81.16 927.6,80.86 928.2,80.56 928.8,80.27 929.4,79.98 930,79.7 930.6,79.42 931.2,79.15 931.8,78.89 932.4,78.64 933,78.4 933.6,78.16 934.2,77.94 934.8,77.73 935.4,77.53 936,77.34 936.6,77.17 937.2,77.01 937.8,76.86 938.4,76.73 939,76.61 939.6,76.5 940.2,76.41 940.8,76.34 941.4,76.28 942,76.24 942.6,76.21 943.2,76.2 943.8,76.21 944.4,76.23 945,76.26 945.6,76.31 946.2,76.38 946.8,76.47 947.4,76.56 948,76.68 948.6,76.8 949.2,76.95 949.8,77.1 950.4,77.27 951,77.45 951.6,77.65 952.2,77.85 952.8,78.07 953.4,78.3 954,78.54 954.6,78.79 955.2,79.05 955.8,79.31 956.4,79.58 957,79.86 957.6,80.15 958.2,80.44 958.8,80.74 959.4,81.04 960,81.35 960.6,81.66 961.2,81.97 961.8,82.28 962.4,82.59 963,82.9 963.6,83.22 964.2,83.53 964.8,83.84 965.4,84.15 966,84.46 966.6,84.76 967.2,85.06 967.8,85.36 968.4,85.65 969,85.94 969.6,86.22 970.2,86.5 970.8,86.78 971.4,87.04 972,87.3" fill="none" stroke="#1f2933" stroke-width="2.2" stroke-linecap="round" stroke-linejoin="round"/></svg>