<svg xmlns="http://www.w3.org/2000/svg" viewBox="0 0 990 186" role="img" aria-label="ECG rhythm strip" data-kind="rhythm_strip" data-rhythm="asystole" data-duration-sec="6" data-px-per-sec="150" data-px-per-mv="60"><line x1="0" y1="0" x2="0" y2="186" stroke="#e9a0ad" stroke-width="1"/><line x1="6" y1="0" x2="6" y2="186" stroke="#f7cbd3" stroke-width="0.5"/><line x1="12" y1="0" x2="12" y2="186" stroke="#f7cbd3" stroke-width="0.5"/><line x1="18" y1="0" x2="18" y2="186" stroke="#f7cbd3" stroke-width="0.5"/><line x1="24" y1="0" x2="24" y2="186" stroke="#f7cbd3" stroke-width="0.5"/><line x1="30" y1="0" x2="30" y2="186" stroke="#e9a0ad" stroke-width="1"/><line x1="36" y1="0" x2="36" y2="186" stroke="#f7cbd3" stroke-width="0.5"/><line x1="42" y1="0" x2="42" y2="186" stroke="#f7cbd3" stroke-width="0.5"/><line x1="48" y1="0" x2="48" y2="186" stroke="#f7cbd3" stroke-width="0.5"/><line x1="54" y1="0" x2="54" y2="186" stroke="#f7cbd3" stroke-width="0.5"/><line x1="60" y1="0" x2="60" y2="186" stroke="#e9a0ad" stroke-width="1"/><line x1="66" y1="0" x2="66" y2="186" stroke="#f7cbd3" stroke-width="0.5"/><line x1="72" y1="0" x2="72" y2="186" stroke="#f7cbd3" stroke-width="0.5"/><line x1="78" y1="0" x2="78" y2="186" stroke="#f7cbd3" stroke-width="0.5"/><line x1="84" y1="0" x2="84" y2="186" stroke="#f7cbd3" stroke-width="0.5"/><line x1="90" y1="0" x2="90" y2="186" stroke="#e9a0ad" stroke-width="1"/><line x1="96" y1="0" x2="96" y2="186" stroke="#f7cbd3" stroke-width="0.5"/><line x1="102" y1="0" x2="102" y2="186" stroke="#f7cbd3" stroke-width="0.5"/><line x1="108" y1="0" x2="108" y2="186" stroke="#f7cbd3" stroke-width="0.5"/><line x1="114" y1="0" x2="114" y2="186" stroke="#f7cbd3" stroke-width="0.5"/><line x1="120" y1="0" x2="120" y2="186" stroke="#e9a0ad" stroke-width="1"/><line x1="126" y1="0" x2="126" y2="186" stroke="#f7cbd3" stroke-width="0.5"/><line x1="132" y1="0" x2="132" y2="186" stroke="#f7cbd3" stroke-width="0.5"/><line x1="138" y1="0" x2="138" y2="186" stroke="#f7cbd3" stroke-width="0.5"/><line x1="144" y1="0" x2="144" y2="186" stroke="#f7cbd3" stroke-width="0.5"/><line x1="150" y1="0" x2="150" y2="186" stroke="#e9a0ad" stroke-width="1"/><line x1="156" y1="0" x2="156" y2="186" stroke="#f7cbd3" stroke-width="0.5"/><line x1="162" y1="0" x2="162" y2="186" stroke="#f7cbd3" stroke-width="0.5"/><line x1="168" y1="0" x2="168" y2="186" stroke="#f7cbd3" stroke-width="0.5"/><line x1="174" y1="0" x2="174" y2="186" stroke="#f7cbd3" stroke-width="0.5"/><line x1="180" y1="0" x2="180" y2="186" stroke="#e9a0ad" stroke-width="1"/><line x1="186" y1="0" x2="186" y2="186" stroke="#f7cbd3" stroke-width="0.5"/><line x1="192" y1="0" x2="192" y2="186" stroke="#f7cbd3" stroke-width="0.5"/><line x1="198" y1="0" x2="198" y2="186" stroke="#f7cbd3" stroke-width="0.5"/><line x1="204" y1="0" x2="204" y2="186" stroke="#f7cbd3" stroke-width="0.5"/><line x1="210" y1="0" x2="210" y2="186" stroke="#e9a0ad" stroke-width="1"/><line x1="216" y1="0" x2="216" y2="186" stroke="#f7cbd3" stroke-width="0.5"/><line x1="222" y1="0" x2="222" y2="186" stroke="#f7cbd3" stroke-width="0.5"/><line x1="228" y1="0" x2="228" y2="186" stroke="#f7cbd3" stroke-width="0.5"/><line x1="234" y1="0" x2="234" y2="186" stroke="#f7cbd3" stroke-width="0.5"/><line x1="240" y1="0" x2="240" y2="186" stroke="#e9a0ad" stroke-width="1"/><line x1="246" y1="0" x2="246" y2="186" stroke="#f7cbd3" stroke-width="0.5"/><line x1="252" y1="0" x2="252" y2="186" stroke="#f7cbd3" stroke-width="0.5"/><line x1="258" y1="0" x2="258" y2="186" stroke="#f7cbd3" stroke-width="0.5"/><line x1="264" y1="0" x2="264" y2="186" stroke="#f7cbd3" stroke-width="0.5"/><line x1="270" y1="0" x2="270" y2="186" stroke="#e9a0ad" stroke-width="1"/><line x1="276" y1="0" x2="276" y2="186" stroke="#f7cbd3" stroke-width="0.5"/><line x1="282" y1="0" x2="282" y2="186" stroke="#f7cbd3" stroke-width="0.5"/><line x1="288" y1="0" x2="288" y2="186" stroke="#f7cbd3" stroke-width="0.5"/><line x1="294" y1="0" x2="294" y2="186" stroke="#f7cbd3" stroke-width="0.5"/><line x1="300" y1="0" x2="300" y2="186" stroke="#e9a0ad" stroke-width="1"/><line x1="306" y1="0" x2="306" y2="186" stroke="#f7cbd3" stroke-width="0.5"/><line x1="312" y1="0" x2="312" y2="186" stroke="#f7cbd3" stroke-width="0.5"/><line x1="318" y1="0" x2="318" y2="186" stroke="#f7cbd3" stroke-width="0.5"/><line x1="324" y1="0" x2="324" y2="186" stroke="#f7cbd3" stroke-width="0.5"/><line x1="330" y1="0" x2="330" y2="186" stroke="#e9a0ad" stroke-width="1"/><line x1="336" y1="0" x2="336" y2="186" stroke="#f7cbd3" stroke-width="0.5"/><line x1="342" y1="0" x2="342" y2="186" stroke="#f7cbd3" stroke-width="0.5"/><line x1="348" y1="0" x2="348" y2="186" stroke="#f7cbd3" stroke-width="0.5"/><line x1="354" y1="0" x2="354" y2="186" stroke="#f7cbd3" stroke-width="0.5"/><line x1="360" y1="0" x2="360" y2="186" stroke="#e9a0ad" stroke-width="1"/><line x1="366" y1="0" x2="366" y2="186" stroke="#f7cbd3" stroke-width="0.5"/><line x1="372" y1="0" x2="372" y2="186" stroke="#f7cbd3" stroke-width="0.5"/><line x1="378" y1="0" x2="378" y2="186" stroke="#f7cbd3" stroke-width="0.5"/><line x1="384" y1="0" x2="384" y2="186" stroke="#f7cbd3" stroke-width="0.5"/><line x1="390" y1="0" x2="390" y2="186" stroke="#e9a0ad" stroke-width="1"/><line x1="396" y1="0" x2="396" y2="186" stroke="#f7cbd3" stroke-width="0.5"/><line x1="402" y1="0" x2="402" y2="186" stroke="#f7cbd3" stroke-width="0.5"/><line x1="408" y1="0" x2="408" y2="186" stroke="#f7cbd3" stroke-width="0.5"/><line x1="414" y1="0" x2="414" y2="186" stroke="#f7cbd3" stroke-width="0.5"/><line x1="420" y1="0" x2="420" y2="186" stroke="#e9a0ad" stroke-width="1"/><line x1="426" y1="0" x2="426" y2="186" stroke="#f7cbd3" stroke-width="0.5"/><line x1="432" y1="0" x2="432" y2="186" stroke="#f7cbd3" stroke-width="0.5"/><line x1="438" y1="0" x2="438" y2="186" stroke="#f7cbd3" stroke-width="0.5"/><line x1="444" y1="0" x2="444" y2="186" stroke="#f7cbd3" stroke-width="0.5"/><line x1="450" y1="0" x2="450" y2="186" stroke="#e9a0ad" stroke-width="1"/><line x1="456" y1="0" x2="456" y2="186" stroke="#f7cbd3" stroke-width="0.5"/><line x1="462" y1="0" x2="462" y2="186" stroke="#f7cbd3" stroke-width="0.5"/><line x1="468" y1="0" x2="468" y2="186" stroke="#f7cbd3" stroke-width="0.5"/><line x1="474" y1="0" x2="474" y2="186" stroke="#f7cbd3" stroke-width="0.5"/><line x1="480" y1="0" x2="480" y2="186" stroke="#e9a0ad" stroke-width="1"/><line x1="486" y1="0" x2="486" y2="186" stroke="#f7cbd3" stroke-width="0.5"/><line x1="492" y1="0" x2="492" y2="186" stroke="#f7cbd3" stroke-width="0.5"/><line x1="498" y1="0" x2="498" y2="186" stroke="#f7cbd3" stroke-width="0.5"/><line x1="504" y1="0" x2="504" y2="186" stroke="#f7cbd3" stroke-width="0.5"/><line x1="510" y1="0" x2="510" y2="186" stroke="#e9a0ad" stroke-width="1"/><line x1="516" y1="0" x2="516" y2="186" stroke="#f7cbd3" stroke-width="0.5"/><line x1="522" y1="0" x2="522" y2="186" stroke="#f7cbd3" stroke-width="0.5"/><line x1="528" y1="0" x2="528" y2="186" stroke="#f7cbd3" stroke-width="0.5"/><line x1="534" y1="0" x2="534" y2="186" stroke="#f7cbd3" stroke-width="0.5"/><line x1="540" y1="0" x2="540" y2="186" stroke="#e9a0ad" stroke-width="1"/><line x1="546" y1="0" x2="546" y2="186" stroke="#f7cbd3" stroke-width="0.5"/><line x1="552" y1="0" x2="552" y2="186" stroke="#f7cbd3" stroke-width="0.5"/><line x1="558" y1="0" x2="558" y2="186" stroke="#f7cbd3" stroke-width="0.5"/><line x1="564" y1="0" x2="564" y2="186" stroke="#f7cbd3" stroke-width="0.5"/><line x1="570" y1="0" x2="570" y2="186" stroke="#e9a0ad" stroke-width="1"/><line x1="576" y1="0" x2="576" y2="186" stroke="#f7cbd3" stroke-width="0.5"/><line x1="582" y1="0" x2="582" y2="186" stroke="#f7cbd3" stroke-width="0.5"/><line x1="588" y1="0" x2="588" y2="186" stroke="#f7cbd3" stroke-width="0.5"/><line x1="594" y1="0" x2="594" y2="186" stroke="#f7cbd3" stroke-width="0.5"/><line x1="600" y1="0" x2="600" y2="186" stroke="#e9a0ad" stroke-width="1"/><line x1="606" y1="0" x2="606" y2="186" stroke="#f7cbd3" stroke-width="0.5"/><line x1="612" y1="0" x2="612" y2="186" stroke="#f7cbd3" stroke-width="0.5"/><line x1="618" y1="0" x2="618" y2="186" stroke="#f7cbd3" stroke-width="0.5"/><line x1="624" y1="0" x2="624" y2="186" stroke="#f7cbd3" stroke-width="0.5"/><line x1="630" y1="0" x2="630" y2="186" stroke="#e9a0ad" stroke-width="1"/><line x1="636" y1="0" x2="636" y2="186" stroke="#f7cbd3" stroke-width="0.5"/><line x1="642" y1="0" x2="642" y2="186" stroke="#f7cbd3" stroke-width="0.5"/><line x1="648" y1="0" x2="648" y2="186" stroke="#f7cbd3" stroke-width="0.5"/><line x1="654" y1="0" x2="654" y2="186" stroke="#f7cbd3" stroke-width="0.5"/><line x1="660" y1="0" x2="660" y2="186" stroke="#e9a0ad" stroke-width="1"/><line x1="666" y1="0" x2="666" y2="186" stroke="#f7cbd3" stroke-width="0.5"/><line x1="672" y1="0" x2="672" y2="186" stroke="#f7cbd3" stroke-width="0.5"/><line x1="678" y1="0" x2="678" y2="186" stroke="#f7cbd3" stroke-width="0.5"/><line x1="684" y1="0" x2="684" y2="186" stroke="#f7cbd3" stroke-width="0.5"/><line x1="690" y1="0" x2="690" y2="186" stroke="#e9a0ad" stroke-width="1"/><line x1="696" y1="0" x2="696" y2="186" stroke="#f7cbd3" stroke-width="0.5"/><line x1="702" y1="0" x2="702" y2="186" stroke="#f7cbd3" stroke-width="0.5"/><line x1="708" y1="0" x2="708" y2="186" stroke="#f7cbd3" stroke-width="0.5"/><line x1="714" y1="0" x2="714" y2="186" stroke="#f7cbd3" stroke-width="0.5"/><line x1="720" y1="0" x2="720" y2="186" stroke="#e9a0ad" stroke-width="1"/><line x1="726" y1="0" x2="726" y2="186" stroke="#f7cbd3" stroke-width="0.5"/><line x1="732" y1="0" x2="732" y2="186" stroke="#f7cbd3" stroke-width="0.5"/><line x1="738" y1="0" x2="738" y2="186" stroke="#f7cbd3" stroke-width="0.5"/><line x1="744" y1="0" x2="744" y2="186" stroke="#f7cbd3" stroke-width="0.5"/><line x1="750" y1="0" x2="750" y2="186" stroke="#e9a0ad" stroke-width="1"/><line x1="756" y1="0" x2="756" y2="186" stroke="#f7cbd3" stroke-width="0.5"/><line x1="762" y1="0" x2="762" y2="186" stroke="#f7cbd3" stroke-width="0.5"/><line x1="768" y1="0" x2="768" y2="186" stroke="#f7cbd3" stroke-width="0.5"/><line x1="774" y1="0" x2="774" y2="186" stroke="#f7cbd3" stroke-width="0.5"/><line x1="780" y1="0" x2="780" y2="186" stroke="#e9a0ad" stroke-width="1"/><line x1="786" y1="0" x2="786" y2="186" stroke="#f7cbd3" stroke-width="0.5"/><line x1="792" y1="0" x2="792" y2="186" stroke="#f7cbd3" stroke-width="0.5"/><line x1="798" y1="0" x2="798" y2="186" stroke="#f7cbd3" stroke-width="0.5"/><line x1="804" y1="0" x2="804" y2="186" stroke="#f7cbd3" stroke-width="0.5"/><line x1="810" y1="0" x2="810" y2="186" stroke="#e9a0ad" stroke-width="1"/><line x1="816" y1="0" x2="816" y2="186" stroke="#f7cbd3" stroke-width="0.5"/><line x1="822" y1="0" x2="822" y2="186" stroke="#f7cbd3" stroke-width="0.5"/><line x1="828" y1="0" x2="828" y2="186" stroke="#f7cbd3" stroke-width="0.5"/><line x1="834" y1="0" x2="834" y2="186" stroke="#f7cbd3" stroke-width="0.5"/><line x1="840" y1="0" x2="840" y2="186" stroke="#e9a0ad" stroke-width="1"/><line x1="846" y1="0" x2="846" y2="186" stroke="#f7cbd3" stroke-width="0.5"/><line x1="852" y1="0" x2="852" y2="186" stroke="#f7cbd3" stroke-width="0.5"/><line x1="858" y1="0" x2="858" y2="186" stroke="#f7cbd3" stroke-width="0.5"/><line x1="864" y1="0" x2="864" y2="186" stroke="#f7cbd3" stroke-width="0.5"/><line x1="870" y1="0" x2="870" y2="186" stroke="#e9a0ad" stroke-width="1"/><line x1="876" y1="0" x2="876" y2="186" stroke="#f7cbd3" stroke-width="0.5"/><line x1="882" y1="0" x2="882" y2="186" stroke="#f7cbd3" stroke-width="0.5"/><line x1="888" y1="0" x2="888" y2="186" stroke="#f7cbd3" stroke-width="0.5"/><line x1="894" y1="0" x2="894" y2="186" stroke="#f7cbd3" stroke-width="0.5"/><line x1="900" y1="0" x2="900" y2="186" stroke="#e9a0ad" stroke-width="1"/><line x1="906" y1="0" x2="906" y2="186" stroke="#f7cbd3" stroke-width="0.5"/><line x1="912" y1="0" x2="912" y2="186" stroke="#f7cbd3" stroke-width="0.5"/><line x1="918" y1="0" x2="918" y2="186" stroke="#f7cbd3" stroke-width="0.5"/><line x1="924" y1="0" x2="924" y2="186" stroke="#f7cbd3" stroke-width="0.5"/><line x1="930" y1="0" x2="930" y2="186" stroke="#e9a0ad" stroke-width="1"/><line x1="936" y1="0" x2="936" y2="186" stroke="#f7cbd3" stroke-width="0.5"/><line x1="942" y1="0" x2="942" y2="186" stroke="#f7cbd3" stroke-width="0.5"/><line x1="948" y1="0" x2="948" y2="186" stroke="#f7cbd3" stroke-width="0.5"/><line x1="954" y1="0" x2="954" y2="186" stroke="#f7cbd3" stroke-width="0.5"/><line x1="960" y1="0" x2="960" y2="186" stroke="#e9a0ad" stroke-width="1"/><line x1="966" y1="0" x2="966" y2="186" stroke="#f7cbd3" stroke-width="0.5"/><line x1="972" y1="0" x2="972" y2="186" stroke="#f7cbd3" stroke-width="0.5"/><line x1="978" y1="0" x2="978" y2="186" stroke="#f7cbd3" stroke-width="0.5"/><line x1="984" y1="0" x2="984" y2="186" stroke="#f7cbd3" stroke-width="0.5"/><line x1="990" y1="0" x2="990" y2="186" stroke="#e9a0ad" stroke-width="1"/><line x1="0" y1="0" x2="990" y2="0" stroke="#e9a0ad" stroke-width="1"/><line x1="0" y1="6" x2="990" y2="6" stroke="#f7cbd3" stroke-width="0.5"/><line x1="0" y1="12" x2="990" y2="12" stroke="#f7cbd3" stroke-width="0.5"/><line x1="0" y1="18" x2="990" y2="18" stroke="#f7cbd3" stroke-width="0.5"/><line x1="0" y1="24" x2="990" y2="24" stroke="#f7cbd3" stroke-width="0.5"/><line x1="0" y1="30" x2="990" y2="30" stroke="#e9a0ad" stroke-width="1"/><line x1="0" y1="36" x2="990" y2="36" stroke="#f7cbd3" stroke-width="0.5"/><line x1="0" y1="42" x2="990" y2="42" stroke="#f7cbd3" stroke-width="0.5"/><line x1="0" y1="48" x2="990" y2="48" stroke="#f7cbd3" stroke-width="0.5"/><line x1="0" y1="54" x2="990" y2="54" stroke="#f7cbd3" stroke-width="0.5"/><line x1="0" y1="60" x2="990" y2="60" stroke="#e9a0ad" stroke-width="1"/><line x1="0" y1="66" x2="990" y2="66" stroke="#f7cbd3" stroke-width="0.5"/><line x1="0" y1="72" x2="990" y2="72" stroke="#f7cbd3" stroke-width="0.5"/><line x1="0" y1="78" x2="990" y2="78" stroke="#f7cbd3" stroke-width="0.5"/><line x1="0" y1="84" x2="990" y2="84" stroke="#f7cbd3" stroke-width="0.5"/><line x1="0" y1="90" x2="990" y2="90" stroke="#e9a0ad" stroke-width="1"/><line x1="0" y1="96" x2="990" y2="96" stroke="#f7cbd3" stroke-width="0.5"/><line x1="0" y1="102" x2="990" y2="102" stroke="#f7cbd3" stroke-width="0.5"/><line x1="0" y1="108" x2="990" y2="108" stroke="#f7cbd3" stroke-width="0.5"/><line x1="0" y1="114" x2="990" y2="114" stroke="#f7cbd3" stroke-width="0.5"/><line x1="0" y1="120" x2="990" y2="120" stroke="#e9a0ad" stroke-width="1"/><line x1="0" y1="126" x2="990" y2="126" stroke="#f7cbd3" stroke-width="0.5"/><line x1="0" y1="132" x2="990" y2="132" stroke="#f7cbd3" stroke-width="0.5"/><line x1="0" y1="138" x2="990" y2="138" stroke="#f7cbd3" stroke-width="0.5"/><line x1="0" y1="144" x2="990" y2="144" stroke="#f7cbd3" stroke-width="0.5"/><line x1="0" y1="150" x2="990" y2="150" stroke="#e9a0ad" stroke-width="1"/><line x1="0" y1="156" x2="990" y2="156" stroke="#f7cbd3" stroke-width="0.5"/><line x1="0" y1="162" x2="990" y2="162" stroke="#f7cbd3" stroke-width="0.5"/><line x1="0" y1="168" x2="990" y2="168" stroke="#f7cbd3" stroke-width="0.5"/><line x1="0" y1="174" x2="990" y2="174" stroke="#f7cbd3" stroke-width="0.5"/><line x1="0" y1="180" x2="990" y2="180" stroke="#e9a0ad" stroke-width="1"/><line x1="0" y1="186" x2="990" y2="186" stroke="#f7cbd3" stroke-width="0.5"/><path d="M 18 93 h 6 v -60 h 30 v 60 h 6" fill="none" stroke="#263238" stroke-width="2" stroke-linecap="round" stroke-linejoin="round" data-calibration-mv="1" data-calibration-sec="0.2" data-calibration-top-y="33"/><polyline points="72,93 72.6,92.99 73.2,92.97 73.8,92.96 74.4,92.95 75,92.94 75.6,92.92 76.2,92.91 76.8,92.9 77.4,92.89 78,92.87 78.6,92.86 79.2,92.85 79.8,92.84 80.4,92.82 81,92.81 81.6,92.8 82.2,92.79 82.8,92.78 83.4,92.76 84,92.75 84.6,92.74 85.2,92.73 85.8,92.72 86.4,92.7 87,92.69 87.6,92.68 88.2,92.67 88.8,92.66 89.4,92.65 90,92.64 90.6,92.63 91.2,92.62 91.8,92.61 92.4,92.59 93,92.58 93.6,92.57 94.2,92.56 94.8,92.55 95.4,92.54 96,92.53 96.6,92.52 97.2,92.52 97.8,92.51 98.4,92.5 99,92.49 99.6,92.48 100.2,92.47 100.8,92.46 101.4,92.45 102,92.45 102.6,92.44 103.2,92.43 103.8,92.42 104.4,92.41 105,92.41 105.6,92.4 106.2,92.39 106.8,92.39 107.4,92.38 108,92.37 108.6,92.37 109.2,92.36 109.8,92.36 110.4,92.35 111,92.34 111.6,92.34 112.2,92.33 112.8,92.33 113.4,92.33 114,92.32 114.6,92.32 115.2,92.31 115.8,92.31 116.4,92.31 117,92.3 117.6,92.3 118.2,92.3 118.8,92.29 119.4,92.29 120,92.29 120.6,92.29 121.2,92.29 121.8,92.28 122.4,92.28 123,92.28 123.6,92.28 124.2,92.28 124.8,92.28 125.4,92.28 126,92.28 126.6,92.28 127.2,92.28 127.8,92.28 128.4,92.28 129,92.28 129.6,92.29 130.2,92.29 130.8,92.29 131.4,92.29 132,92.29 132.6,92.3 133.2,92.3 133.8,92.3 134.4,92.3 135,92.31 135.6,92.31 136.2,92.31 136.8,92.32 137.4,92.32 138,92.33 138.6,92.33 139.2,92.34 139.8,92.34 140.4,92.35 141,92.35 141.6,92.36 142.2,92.36 142.8,92.37 143.4,92.38 144,92.38 144.6,92.39 145.2,92.4 145.8,92.4 146.4,92.41 147,92.42 147.6,92.43 148.2,92.43 148.8,92.44 149.4,92.45 150,92.46 150.6,92.47 151.2,92.47 151.8,92.48 152.4,92.49 153,92.5 153.6,92.51 154.2,92.52 154.8,92.53 155.4,92.54 156,92.55 156.6,92.56 157.2,92.57 157.8,92.58 158.4,92.59 159,92.6 159.6,92.61 160.2,92.62 160.8,92.63 161.4,92.64 162,92.65 162.6,92.66 163.2,92.68 163.8,92.69 164.4,92.7 165,92.71 165.6,92.72 166.2,92.73 166.8,92.75 167.4,92.76 168,92.77 168.6,92.78 169.2,92.79 169.8,92.81 170.4,92.82 171,92.83 171.6,92.84 172.2,92.85 172.8,92.87 173.4,92.88 174,92.89 174.6,92.9 175.2,92.92 175.8,92.93 176.4,92.94 177,92.95 177.6,92.97 178.2,92.98 178.8,92.99 179.4,93.01 180,93.02 180.6,93.03 181.2,93.04 181.8,93.06 182.4,93.07 183,93.08 183.6,93.09 184.2,93.11 184.8,93.12 185.4,93.13 186,93.14 186.6,93.16 187.2,93.17 187.8,93.18 188.4,93.19 189,93.21 189.6,93.22 190.2,93.23 190.8,93.24 191.4,93.25 192,93.27 192.6,93.28 193.2,93.29 193.8,93.3 194.4,93.31 195,93.32 195.6,93.33 196.2,93.35 196.8,93.36 197.4,93.37 198,93.38 198.6,93.39 199.2,93.4 199.8,93.41 200.4,93.42 201,93.43 201.6,93.44 202.2,93.45 202.8,93.46 203.4,93.47 204,93.48 204.6,93.49 205.2,93.5 205.8,93.51 206.4,93.52 207,93.53 207.6,93.53 208.2,93.54 208.8,93.55 209.4,93.56 210,93.57 210.6,93.57 211.2,93.58 211.8,93.59 212.4,93.6 213,93.6 213.6,93.61 214.2,93.62 214.8,93.62 215.4,93.62 216,93.59 216.6,93.42 217.2,92.79 217.8,90.8 218.4,85.58 219,74.18 219.6,53.63 220.2,23.59 220.8,-9 221.4,-9 222,-9 222.6,-9 223.2,-9 223.8,23.83 224.4,54.11 225,75.05 225.6,87.12 226.2,93.36 226.8,96.85 227.4,99.48 228,102.08 228.6,104.71 229.2,106.91 229.8,107.77 230.4,106.09 231,100.72 231.6,91.23 232.2,78.68 232.8,65.91 233.4,56.9 234,55.12 234.6,61.86 235.2,75.44 235.8,91.99 236.4,107.25 237,118.19 237.6,123.7 238.2,124.35 238.8,121.57 239.4,116.92 240,111.72 240.6,106.85 241.2,102.77 241.8,99.67 242.4,97.48 243,96.06 243.6,95.2 244.2,94.72 244.8,94.49 245.4,94.39 246,94.38 246.6,94.4 247.2,94.45 247.8,94.5 248.4,94.57 249,94.64 249.6,94.71 250.2,94.8 250.8,94.88 251.4,94.97 252,95.07 252.6,95.17 253.2,95.28 253.8,95.39 254.4,95.51 255,95.64 255.6,95.77 256.2,95.91 256.8,96.05 257.4,96.21 258,96.36 258.6,96.53 259.2,96.69 259.8,96.87 260.4,97.05 261,97.24 261.6,97.43 262.2,97.62 262.8,97.83 263.4,98.03 264,98.24 264.6,98.46 265.2,98.67 265.8,98.89 266.4,99.12 267,99.34 267.6,99.57 268.2,99.8 268.8,100.02 269.4,100.25 270,100.48 270.6,100.7 271.2,100.92 271.8,101.14 272.4,101.35 273,101.56 273.6,101.77 274.2,101.97 274.8,102.16 275.4,102.34 276,102.52 276.6,102.69 277.2,102.85 277.8,103 278.4,103.13 279,103.26 279.6,103.38 280.2,103.48 280.8,103.57 281.4,103.65 282,103.71 282.6,103.76 283.2,103.8 283.8,103.82 284.4,103.83 285,103.83 285.6,103.81 286.2,103.77 286.8,103.73 287.4,103.66 288,103.59 288.6,103.5 289.2,103.39 289.8,103.28 290.4,103.15 291,103.01 291.6,102.86 292.2,102.69 292.8,102.52 293.4,102.34 294,102.15 294.6,101.94 295.2,101.74 295.8,101.52 296.4,101.3 297,101.07 297.6,100.83 298.2,100.6 298.8,100.35 299.4,100.11 300,99.86 300.6,99.61 301.2,99.36 301.8,99.12 302.4,98.87 303,98.62 303.6,98.37 304.2,98.13 304.8,97.88 305.4,97.65 306,97.41 306.6,97.18 307.2,96.95 307.8,96.73 308.4,96.52 309,96.3 309.6,96.1 310.2,95.9 310.8,95.71 311.4,95.52 312,95.34 312.6,95.16 313.2,95 313.8,94.83 314.4,94.68 315,94.53 315.6,94.39 316.2,94.25 316.8,94.12 317.4,94 318,93.88 318.6,93.77 319.2,93.67 319.8,93.57 320.4,93.48 321,93.39 321.6,93.3 322.2,93.22 322.8,93.15 323.4,93.08 324,93.02 324.6,92.96 325.2,92.9 325.8,92.85 326.4,92.8 327,92.75 327.6,92.71 328.2,92.67 328.8,92.64 329.4,92.6 330,92.57 330.6,92.54 331.2,92.52 331.8,92.49 332.4,92.47 333,92.45 333.6,92.43 334.2,92.42 334.8,92.4 335.4,92.39 336,92.38 336.6,92.36 337.2,92.35 337.8,92.35 338.4,92.34 339,92.33 339.6,92.33 340.2,92.32 340.8,92.32 341.4,92.31 342,92.31 342.6,92.31 343.2,92.3 343.8,92.3 344.4,92.3 345,92.3 345.6,92.3 346.2,92.3 346.8,92.3 347.4,92.31 348,92.31 348.6,92.31 349.2,92.31 349.8,92.32 350.4,92.32 351,92.32 351.6,92.33 352.2,92.33 352.8,92.33 353.4,92.34 354,92.34 354.6,92.35 355.2,92.35 355.8,92.36 356.4,92.36 357,92.37 357.6,92.38 358.2,92.38 358.8,92.39 359.4,92.4 360,92.4 360.6,92.41 361.2,92.42 361.8,92.42 362.4,92.43 363,92.44 363.6,92.45 364.2,92.46 364.8,92.46 365.4,92.47 366,92.43 366.6,92.27 367.2,91.64 367.8,89.65 368.4,84.44 369,73.04 369.6,52.5 370.2,22.46 370.8,-9 371.4,-9 372,-9 372.6,-9 373.2,-9 373.8,22.74 374.4,53.03 375,73.98 375.6,86.05 376.2,92.31 376.8,95.8 377.4,98.44 378,101.05 378.6,103.69 379.2,105.9 379.8,106.78 380.4,105.11 381,99.74 381.6,90.26 382.2,77.73 382.8,64.97 383.4,55.97 384,54.2 384.6,60.96 385.2,74.55 385.8,91.11 386.4,106.39 387,117.34 387.6,122.87 388.2,123.53 388.8,120.76 389.4,116.13 390,110.95 390.6,106.08 391.2,102.03 391.8,98.94 392.4,96.77 393,95.36 393.6,94.52 394.2,94.06 394.8,93.84 395.4,93.77 396,93.77 396.6,93.81 397.2,93.87 397.8,93.95 398.4,94.03 399,94.12 399.6,94.21 400.2,94.31 400.8,94.41 401.4,94.52 402,94.64 402.6,94.76 403.2,94.89 403.8,95.02 404.4,95.16 405,95.31 405.6,95.46 406.2,95.62 406.8,95.78 407.4,95.95 408,96.13 408.6,96.31 409.2,96.5 409.8,96.7 410.4,96.9 411,97.1 411.6,97.32 412.2,97.53 412.8,97.76 413.4,97.98 414,98.21 414.6,98.45 415.2,98.69 415.8,98.93 416.4,99.17 417,99.42 417.6,99.66 418.2,99.91 418.8,100.16 419.4,100.4 420,100.65 420.6,100.89 421.2,101.14 421.8,101.37 422.4,101.61 423,101.84 423.6,102.06 424.2,102.28 424.8,102.49 425.4,102.7 426,102.89 426.6,103.08 427.2,103.26 427.8,103.43 428.4,103.59 429,103.73 429.6,103.87 430.2,103.99 430.8,104.1 431.4,104.19 432,104.27 432.6,104.34 433.2,104.4 433.8,104.44 434.4,104.46 435,104.48 435.6,104.47 436.2,104.46 436.8,104.42 437.4,104.38 438,104.32 438.6,104.24 439.2,104.16 439.8,104.06 440.4,103.94 441,103.82 441.6,103.68 442.2,103.53 442.8,103.37 443.4,103.2 444,103.02 444.6,102.84 445.2,102.64 445.8,102.44 446.4,102.23 447,102.01 447.6,101.79 448.2,101.56 448.8,101.33 449.4,101.1 450,100.86 450.6,100.62 451.2,100.38 451.8,100.14 452.4,99.9 453,99.67 453.6,99.43 454.2,99.19 454.8,98.96 455.4,98.73 456,98.5 456.6,98.28 457.2,98.06 457.8,97.84 458.4,97.63 459,97.43 459.6,97.23 460.2,97.03 460.8,96.84 461.4,96.66 462,96.48 462.6,96.31 463.2,96.15 463.8,95.99 464.4,95.84 465,95.69 465.6,95.55 466.2,95.42 466.8,95.29 467.4,95.17 468,95.05 468.6,94.94 469.2,94.83 469.8,94.73 470.4,94.64 471,94.55 471.6,94.46 472.2,94.38 472.8,94.31 473.4,94.23 474,94.17 474.6,94.1 475.2,94.04 475.8,93.99 476.4,93.93 477,93.88 477.6,93.83 478.2,93.79 478.8,93.75 479.4,93.71 480,93.67 480.6,93.64 481.2,93.6 481.8,93.57 482.4,93.54 483,93.51 483.6,93.48 484.2,93.46 484.8,93.43 485.4,93.41 486,93.39 486.6,93.37 487.2,93.35 487.8,93.33 488.4,93.31 489,93.29 489.6,93.27 490.2,93.26 490.8,93.24 491.4,93.22 492,93.21 492.6,93.19 493.2,93.18 493.8,93.16 494.4,93.15 495,93.13 495.6,93.12 496.2,93.1 496.8,93.09 497.4,93.08 498,93.06 498.6,93.05 499.2,93.03 499.8,93.02 500.4,93.01 501,92.99 501.6,92.98 502.2,92.97 502.8,92.96 503.4,92.94 504,92.93 504.6,92.92 505.2,92.9 505.8,92.89 506.4,92.88 507,92.87 507.6,92.85 508.2,92.84 508.8,92.83 509.4,92.82 510,92.8 510.6,92.79 511.2,92.78 511.8,92.77 512.4,92.76 513,92.74 513.6,92.73 514.2,92.72 514.8,92.71 515.4,92.7 516,92.69 516.6,92.67 517.2,92.66 517.8,92.65 518.4,92.64 519,92.63 519.6,92.62 520.2,92.61 520.8,92.6 521.4,92.59 522,92.58 522.6,92.57 523.2,92.56 523.8,92.55 524.4,92.54 525,92.53 525.6,92.52 526.2,92.51 526.8,92.5 527.4,92.49 528,92.48 528.6,92.47 529.2,92.46 529.8,92.46 530.4,92.45 531,92.44 531.6,92.43 532.2,92.42 532.8,92.42 533.4,92.41 534,92.4 534.6,92.4 535.2,92.39 535.8,92.38 536.4,92.38 537,92.37 537.6,92.36 538.2,92.36 538.8,92.35 539.4,92.35 540,92.34 540.6,92.34 541.2,92.33 541.8,92.33 542.4,92.32 543,92.32 543.6,92.31 544.2,92.31 544.8,92.31 545.4,92.3 546,92.3 546.6,92.3 547.2,92.29 547.8,92.29 548.4,92.29 549,92.29 549.6,92.29 550.2,92.28 550.8,92.28 551.4,92.28 552,92.28 552.6,92.28 553.2,92.28 553.8,92.28 554.4,92.28 555,92.28 555.6,92.28 556.2,92.28 556.8,92.28 557.4,92.28 558,92.28 558.6,92.29 559.2,92.29 559.8,92.29 560.4,92.29 561,92.29 561.6,92.3 562.2,92.3 562.8,92.3 563.4,92.31 564,92.31 564.6,92.31 565.2,92.32 565.8,92.32 566.4,92.33 567,92.33 567.6,92.34 568.2,92.34 568.8,92.35 569.4,92.35 570,92.36 570.6,92.36 571.2,92.37 571.8,92.37 572.4,92.38 573,92.39 573.6,92.39 574.2,92.4 574.8,92.41 575.4,92.42 576,92.42 576.6,92.43 577.2,92.44 577.8,92.45 578.4,92.45 579,92.46 579.6,92.47 580.2,92.48 580.8,92.49 581.4,92.5 582,92.51 582.6,92.52 583.2,92.53 583.8,92.54 584.4,92.55 585,92.56 585.6,92.57 586.2,92.58 586.8,92.59 587.4,92.6 588,92.61 588.6,92.62 589.2,92.63 589.8,92.64 590.4,92.65 591,92.66 591.6,92.67 592.2,92.68 592.8,92.7 593.4,92.71 594,92.72 594.6,92.73 595.2,92.74 595.8,92.75 596.4,92.77 597,92.78 597.6,92.79 598.2,92.8 598.8,92.81 599.4,92.83 600,92.84 600.6,92.85 601.2,92.86 601.8,92.88 602.4,92.89 603,92.9 603.6,92.91 604.2,92.93 604.8,92.94 605.4,92.95 606,92.96 606.6,92.98 607.2,92.99 607.8,93 608.4,93.01 609,93.03 609.6,93.04 610.2,93.05 610.8,93.07 611.4,93.08 612,93.09 612.6,93.1 613.2,93.12 613.8,93.13 614.4,93.14 615,93.15 615.6,93.16 616.2,93.18 616.8,93.19 617.4,93.2 618,93.21 618.6,93.23 619.2,93.24 619.8,93.25 620.4,93.26 621,93.27 621.6,93.29 622.2,93.3 622.8,93.31 623.4,93.32 624,93.33 624.6,93.34 625.2,93.35 625.8,93.36 626.4,93.38 627,93.39 627.6,93.4 628.2,93.41 628.8,93.42 629.4,93.43 630,93.44 630.6,93.45 631.2,93.46 631.8,93.47 632.4,93.48 633,93.49 633.6,93.5 634.2,93.5 634.8,93.51 635.4,93.52 636,93.53 636.6,93.54 637.2,93.55 637.8,93.56 638.4,93.56 639,93.57 639.6,93.58 640.2,93.59 640.8,93.59 641.4,93.6 642,93.61 642.6,93.61 643.2,93.62 643.8,93.63 644.4,93.63 645,93.64 645.6,93.65 646.2,93.65 646.8,93.66 647.4,93.66 648,93.67 648.6,93.67 649.2,93.68 649.8,93.68 650.4,93.68 651,93.69 651.6,93.69 652.2,93.69 652.8,93.7 653.4,93.7 654,93.7 654.6,93.71 655.2,93.71 655.8,93.71 656.4,93.71 657,93.71 657.6,93.72 658.2,93.72 658.8,93.72 659.4,93.72 660,93.72 660.6,93.72 661.2,93.72 661.8,93.72 662.4,93.72 663,93.72 663.6,93.72 664.2,93.72 664.8,93.72 665.4,93.71 666,93.71 666.6,93.71 667.2,93.71 667.8,93.71 668.4,93.7 669,93.7 669.6,93.7 670.2,93.7 670.8,93.69 671.4,93.69 672,93.68 672.6,93.68 673.2,93.68 673.8,93.67 674.4,93.67 675,93.66 675.6,93.66 676.2,93.65 676.8,93.65 677.4,93.64 678,93.64 678.6,93.63 679.2,93.62 679.8,93.62 680.4,93.61 681,93.6 681.6,93.6 682.2,93.59 682.8,93.58 683.4,93.57 684,93.57 684.6,93.56 685.2,93.55 685.8,93.54 686.4,93.53 687,93.52 687.6,93.52 688.2,93.51 688.8,93.5 689.4,93.49 690,93.48 690.6,93.47 691.2,93.46 691.8,93.45 692.4,93.44 693,93.43 693.6,93.42 694.2,93.41 694.8,93.4 695.4,93.39 696,93.38 696.6,93.37 697.2,93.36 697.8,93.35 698.4,93.33 699,93.32 699.6,93.31 700.2,93.3 700.8,93.29 701.4,93.28 702,93.27 702.6,93.25 703.2,93.24 703.8,93.23 704.4,93.22 705,93.21 705.6,93.19 706.2,93.18 706.8,93.17 707.4,93.16 708,93.14 708.6,93.13 709.2,93.12 709.8,93.11 710.4,93.09 711,93.08 711.6,93.07 712.2,93.06 712.8,93.04 713.4,93.03 714,93.02 714.6,93.01 715.2,92.99 715.8,92.98 716.4,92.97 717,92.95 717.6,92.94 718.2,92.93 718.8,92.92 719.4,92.9 720,92.89 720.6,92.88 721.2,92.87 721.8,92.85 722.4,92.84 723,92.83 723.6,92.82 724.2,92.81 724.8,92.79 725.4,92.78 726,92.77 726.6,92.76 727.2,92.75 727.8,92.73 728.4,92.72 729,92.71 729.6,92.7 730.2,92.69 730.8,92.68 731.4,92.66 732,92.65 732.6,92.64 733.2,92.63 733.8,92.62 734.4,92.61 735,92.6 735.6,92.59 736.2,92.58 736.8,92.57 737.4,92.56 738,92.55 738.6,92.54 739.2,92.53 739.8,92.52 740.4,92.51 741,92.5 741.6,92.49 742.2,92.48 742.8,92.47 743.4,92.47 744,92.46 744.6,92.45 745.2,92.44 745.8,92.43 746.4,92.43 747,92.42 747.6,92.41 748.2,92.4 748.8,92.4 749.4,92.39 750,92.38 750.6,92.38 751.2,92.37 751.8,92.36 752.4,92.36 753,92.35 753.6,92.35 754.2,92.34 754.8,92.34 755.4,92.33 756,92.33 756.6,92.32 757.2,92.32 757.8,92.31 758.4,92.31 759,92.31 759.6,92.3 760.2,92.3 760.8,92.3 761.4,92.3 762,92.29 762.6,92.29 763.2,92.29 763.8,92.29 764.4,92.29 765,92.28 765.6,92.28 766.2,92.28 766.8,92.28 767.4,92.28 768,92.28 768.6,92.28 769.2,92.28 769.8,92.28 770.4,92.28 771,92.28 771.6,92.28 772.2,92.28 772.8,92.29 773.4,92.29 774,92.29 774.6,92.29 775.2,92.29 775.8,92.3 776.4,92.3 777,92.3 777.6,92.31 778.2,92.31 778.8,92.31 779.4,92.32 780,92.32 780.6,92.33 781.2,92.33 781.8,92.33 782.4,92.34 783,92.34 783.6,92.35 784.2,92.36 784.8,92.36 785.4,92.37 786,92.37 786.6,92.38 787.2,92.39 787.8,92.39 788.4,92.4 789,92.41 789.6,92.41 790.2,92.42 790.8,92.43 791.4,92.44 792,92.45 792.6,92.45 793.2,92.46 793.8,92.47 794.4,92.48 795,92.49 795.6,92.5 796.2,92.51 796.8,92.52 797.4,92.52 798,92.53 798.6,92.54 799.2,92.55 799.8,92.56 800.4,92.57 801,92.58 801.6,92.59 802.2,92.61 802.8,92.62 803.4,92.63 804,92.64 804.6,92.65 805.2,92.66 805.8,92.67 806.4,92.68 807,92.69 807.6,92.71 808.2,92.72 808.8,92.73 809.4,92.74 810,92.75 810.6,92.76 811.2,92.78 811.8,92.79 812.4,92.8 813,92.81 813.6,92.83 814.2,92.84 814.8,92.85 815.4,92.85 816,92.83 816.6,92.67 817.2,92.04 817.8,90.06 818.4,84.84 819,73.45 819.6,52.92 820.2,22.88 820.8,-9 821.4,-9 822,-9 822.6,-9 823.2,-9 823.8,23.17 824.4,53.46 825,74.42 825.6,86.49 826.2,92.75 826.8,96.24 827.4,98.88 828,101.49 828.6,104.13 829.2,106.35 829.8,107.22 830.4,105.55 831,100.19 831.6,90.71 832.2,78.17 832.8,65.42 833.4,56.41 834,54.65 834.6,61.4 835.2,74.99 835.8,91.56 836.4,106.83 837,117.78 837.6,123.31 838.2,123.97 838.8,121.2 839.4,116.57 840,111.38 840.6,106.52 841.2,102.46 841.8,99.37 842.4,97.2 843,95.79 843.6,94.94 844.2,94.48 844.8,94.26 845.4,94.18 846,94.18 846.6,94.22 847.2,94.28 847.8,94.35 848.4,94.43 849,94.51 849.6,94.6 850.2,94.7 850.8,94.8 851.4,94.9 852,95.02 852.6,95.13 853.2,95.26 853.8,95.39 854.4,95.52 855,95.66 855.6,95.81 856.2,95.96 856.8,96.12 857.4,96.29 858,96.46 858.6,96.64 859.2,96.82 859.8,97.01 860.4,97.2 861,97.41 861.6,97.61 862.2,97.82 862.8,98.04 863.4,98.26 864,98.48 864.6,98.71 865.2,98.94 865.8,99.18 866.4,99.42 867,99.65 867.6,99.89 868.2,100.13 868.8,100.38 869.4,100.62 870,100.85 870.6,101.09 871.2,101.33 871.8,101.56 872.4,101.79 873,102.01 873.6,102.23 874.2,102.44 874.8,102.64 875.4,102.84 876,103.03 876.6,103.21 877.2,103.38 877.8,103.54 878.4,103.69 879,103.83 879.6,103.95 880.2,104.07 880.8,104.17 881.4,104.26 882,104.33 882.6,104.39 883.2,104.44 883.8,104.47 884.4,104.49 885,104.49 885.6,104.48 886.2,104.46 886.8,104.42 887.4,104.36 888,104.3 888.6,104.21 889.2,104.12 889.8,104.01 890.4,103.89 891,103.76 891.6,103.61 892.2,103.46 892.8,103.29 893.4,103.11 894,102.92 894.6,102.73 895.2,102.53 895.8,102.31 896.4,102.1 897,101.87 897.6,101.64 898.2,101.41 898.8,101.17 899.4,100.93 900,100.69 900.6,100.44 901.2,100.2 901.8,99.95 902.4,99.7 903,99.46 903.6,99.21 904.2,98.97 904.8,98.73 905.4,98.49 906,98.26 906.6,98.03 907.2,97.8 907.8,97.58 908.4,97.36 909,97.15 909.6,96.94 910.2,96.74 910.8,96.55 911.4,96.36 912,96.18 912.6,96 913.2,95.83 913.8,95.67 914.4,95.51 915,95.36 915.6,95.21 916.2,95.07 916.8,94.94 917.4,94.81 918,94.69 918.6,94.58 919.2,94.47 919.8,94.36 920.4,94.26 921,94.17 921.6,94.08 922.2,94 922.8,93.92 923.4,93.84 924,93.77 924.6,93.7 925.2,93.64 925.8,93.58 926.4,93.52 927,93.47 927.6,93.42 928.2,93.37 928.8,93.33 929.4,93.28 930,93.24 930.6,93.21 931.2,93.17 931.8,93.14 932.4,93.11 933,93.08 933.6,93.05 934.2,93.02 934.8,92.99 935.4,92.97 936,92.95 936.6,92.93 937.2,92.9 937.8,92.88 938.4,92.86 939,92.85 939.6,92.83 940.2,92.81 940.8,92.79 941.4,92.78 942,92.76 942.6,92.75 943.2,92.73 943.8,92.72 944.4,92.71 945,92.69 945.6,92.68 946.2,92.67 946.8,92.65 947.4,92.64 948,92.63 948.6,92.62 949.2,92.61 949.8,92.59 950.4,92.58 951,92.57 951.6,92.56 952.2,92.55 952.8,92.54 953.4,92.53 954,92.52 954.6,92.51 955.2,92.5 955.8,92.49 956.4,92.48 957,92.48 957.6,92.47 958.2,92.46 958.8,92.45 959.4,92.44 960,92.43 960.6,92.43 961.2,92.42 961.8,92.41 962.4,92.4 963,92.4 963.6,92.39 964.2,92.38 964.8,92.38 965.4,92.37 966,92.36 966.6,92.36 967.2,92.35 967.8,92.35 968.4,92.34 969,92.34 969.6,92.33 970.2,92.33 970.8,92.32 971.4,92.32 972,92.32" fill="none" stroke="#1f2933" stroke-width="2.2" stroke-linecap="round" stroke-linejoin="round"/></svg>
